<svg width="360" height="915" viewBox="0 0 360 915" fill="none" xmlns="http://www.w3.org/2000/svg">
<mask id="mask0_771_406" style="mask-type:alpha" maskUnits="userSpaceOnUse" x="0" y="2" width="360" height="915">
<rect y="2" width="360" height="915" fill="#D9D9D9"/>
</mask>
<g mask="url(#mask0_771_406)">
</g>
<g clip-path="url(#clip0_771_406)">
<path d="M319.111 561.19C318.751 561.1 318.451 560.91 318.131 560.74C318.361 553.37 320.561 546.27 325.471 540.61C329.081 536.44 333.981 533.69 337.711 529.64C341.241 525.82 342.331 521.66 342.291 516.55C342.221 508.62 343.151 501.98 349.461 496.51C350.121 496.35 350.781 496.17 351.441 495.93C347.791 499.08 345.351 503.5 344.551 508.29C344.011 511.48 344.271 514.71 344.191 517.93C344.051 522.66 342.711 526.55 339.591 530.1C335.591 534.65 330.351 537.89 326.721 542.8C322.781 548.14 320.691 554.56 320.431 561.16C320.431 561.17 320.431 561.18 320.431 561.2C319.991 561.3 319.551 561.31 319.111 561.2V561.19Z" fill="#6BC2DD"/>
<path d="M310.681 536.281C309.221 542.551 304.551 547.051 298.771 549.491C298.681 549.531 298.631 549.591 298.611 549.671H298.501C298.521 549.521 298.491 549.371 298.351 549.271C297.581 548.701 296.951 547.871 296.561 546.981C296.701 547.051 296.871 547.081 297.041 547.011C301.371 545.141 306.261 542.471 307.751 537.661C308.731 534.481 307.821 531.191 307.881 527.951C307.951 523.921 309.141 519.941 311.251 516.511C314.581 511.091 320.691 508.871 324.331 503.851C327.651 499.271 327.261 493.151 326.161 487.891C326.251 487.921 326.341 487.941 326.431 487.931C326.591 489.601 327.721 490.911 329.241 491.961C329.041 492.071 328.901 492.281 328.941 492.561C330.261 500.391 326.331 506.101 320.241 510.431C316.991 512.741 313.521 515.041 311.941 518.871C309.651 524.421 311.991 530.571 310.661 536.291L310.681 536.281Z" fill="#EB9727"/>
<path d="M313.97 545.34C310.38 549.5 308.83 555.14 309.78 560.52C309.72 560.51 309.66 560.49 309.6 560.5C309.21 560.56 308.84 560.72 308.44 560.76C308.09 560.8 307.75 560.78 307.4 560.74C306.31 553.7 308.7 546.32 314.22 541.65C318.65 537.9 324.56 536.4 328 531.44C330.98 527.15 331.77 521.77 331.78 516.65C331.79 509.2 330.65 499.6 339.53 496.76C339.78 496.68 339.83 496.33 339.67 496.16C340.08 496.27 340.49 496.38 340.9 496.47C340.99 496.82 341.52 497 341.82 496.64C342.78 496.81 343.75 496.91 344.71 496.95C340.37 499.39 336.12 502.58 334.33 507.37C333.12 510.63 333.43 514.08 333.56 517.49C333.75 522.18 333.12 526.69 330.61 530.76C326.53 537.37 318.88 539.63 313.97 545.34Z" fill="#F2B92A"/>
<path d="M329.07 417.089C329.03 417.339 329.38 417.539 329.52 417.279C330.18 415.959 330.87 414.809 331.92 413.769C332.31 413.379 331.71 412.769 331.31 413.159C330.25 414.189 329.33 415.609 329.07 417.089ZM327.35 418.729C328.09 416.539 329.14 414.649 330.83 413.059C331.21 412.699 330.64 412.119 330.26 412.489C328.54 414.129 327.25 416.229 326.85 418.599C326.8 418.919 327.24 419.049 327.35 418.729ZM325.29 419.219C326.45 413.599 330.65 409.539 334.36 405.449C337.94 401.489 341.58 397.599 345.3 393.759C352.65 386.159 360.27 378.809 368.1 371.689C368.17 371.669 368.22 371.619 368.26 371.549C368.33 371.489 368.39 371.429 368.45 371.369C368.72 371.679 368.99 371.979 369.27 372.279C369.27 372.319 369.25 372.369 369.24 372.409C369.18 372.699 369.51 372.839 369.69 372.689C371.74 374.739 374.16 376.399 376.79 377.669C362.52 393.009 351.54 411.229 340.81 429.099C338.31 433.259 336.59 437.109 336.13 441.969C335.59 447.659 335.42 453.409 335.12 459.109C334.52 470.399 333.79 481.709 333.71 493.019C330.65 491.749 327.66 489.929 327.21 487.429C327.17 487.219 326.99 487.139 326.82 487.149C326.28 475.939 325.56 464.749 325.21 453.519C325.02 447.609 324.9 441.699 324.84 435.789C324.78 430.399 324.22 424.529 325.32 419.219H325.29Z" fill="#F2B92A"/>
<path d="M384.83 380.24C384.68 380.31 384.55 380.44 384.52 380.66C382.41 391.16 380.8 401.75 379.77 412.41C379.26 417.71 378.88 423.02 378.65 428.33C378.42 433.87 378.93 439.75 377.85 445.21C376.73 450.83 372.6 454.65 369.01 458.83C365.55 462.88 362.17 466.99 358.88 471.17C352.73 478.99 346.73 487.01 341.39 495.42C340.62 495.27 339.86 495.08 339.1 494.85C337.95 494.51 336.32 494.02 334.65 493.38C335.37 482.7 335.62 471.97 336.22 461.27C336.53 455.73 336.83 450.18 337.21 444.65C337.63 438.47 339.43 433.85 342.6 428.6C353.2 411.08 364.08 393.89 377.71 378.54C377.81 378.42 377.86 378.29 377.87 378.15C380.09 379.1 382.44 379.79 384.83 380.22V380.24Z" fill="#90BC20"/>
<path d="M385.919 395.609C385.939 393.639 385.959 391.629 385.809 389.659C385.789 389.329 385.329 389.329 385.299 389.659C385.149 391.629 385.169 393.639 385.179 395.609C385.179 396.089 385.919 396.089 385.919 395.609ZM387.669 391.519C387.659 391.199 387.179 391.199 387.159 391.519C387.109 393.009 387.039 394.499 387.029 395.979C387.029 396.469 387.789 396.469 387.789 395.979C387.789 394.489 387.719 392.999 387.659 391.519H387.669ZM378.079 470.839C369.849 478.569 361.519 486.219 353.469 494.139C353.399 494.209 353.359 494.269 353.339 494.349C353.179 494.149 352.899 494.029 352.599 494.179C349.389 495.799 345.959 496.139 342.529 495.649C348.699 486.949 354.829 478.259 361.499 469.929C364.969 465.589 368.539 461.329 372.179 457.139C374.939 453.989 377.689 450.969 378.799 446.819C380.019 442.269 379.669 437.369 379.819 432.709C379.989 427.149 380.299 421.589 380.759 416.039C381.749 404.279 383.449 392.599 385.779 381.029C385.839 380.739 385.709 380.509 385.529 380.369C389.029 380.919 392.609 380.939 395.979 380.399C397.509 391.369 399.059 402.349 400.599 413.319C401.369 418.859 402.159 424.379 402.939 429.919C403.809 436.119 405.919 443.129 401.579 448.479C398.509 452.239 394.469 455.409 390.939 458.729C386.649 462.769 382.359 466.799 378.069 470.839H378.079ZM357.479 485.469C358.419 484.389 359.529 483.599 360.819 482.999C361.269 482.789 360.879 482.119 360.439 482.339C359.099 482.999 357.979 483.979 357.069 485.159C356.889 485.389 357.289 485.699 357.479 485.469ZM358.659 487.029C359.429 486.319 360.269 485.639 360.939 484.839C361.239 484.479 360.789 484.049 360.429 484.329C359.609 484.979 358.909 485.809 358.179 486.549C357.439 487.299 356.699 488.049 355.999 488.829C355.809 489.039 356.099 489.309 356.309 489.139C357.109 488.459 357.879 487.729 358.649 487.019L358.659 487.029Z" fill="#E13B45"/>
<path d="M360.441 482.331C360.881 482.111 361.271 482.781 360.821 482.991C359.531 483.591 358.421 484.381 357.481 485.461C357.291 485.681 356.891 485.381 357.071 485.151C357.981 483.971 359.101 482.991 360.441 482.331Z" fill="black"/>
<path d="M360.95 484.83C360.28 485.63 359.43 486.3 358.67 487.02C357.91 487.74 357.14 488.46 356.33 489.14C356.11 489.32 355.83 489.04 356.02 488.83C356.72 488.04 357.46 487.3 358.2 486.55C358.93 485.81 359.63 484.97 360.45 484.33C360.81 484.05 361.25 484.48 360.96 484.84L360.95 484.83Z" fill="black"/>
<path d="M331.919 413.78C330.859 414.82 330.179 415.98 329.519 417.29C329.389 417.55 329.029 417.35 329.069 417.1C329.329 415.62 330.249 414.2 331.309 413.17C331.709 412.78 332.309 413.39 331.919 413.78Z" fill="black"/>
<path d="M330.83 413.061C329.13 414.651 328.09 416.541 327.35 418.731C327.25 419.051 326.8 418.921 326.85 418.601C327.24 416.231 328.54 414.131 330.26 412.491C330.64 412.131 331.21 412.711 330.83 413.061Z" fill="black"/>
<path d="M370.05 371.57C376.17 376.45 383 379.52 390.66 379.55C390.63 379.39 390.66 379.23 390.79 379.09C391.76 377.95 392.69 376.8 393.61 375.63C393.53 375.61 393.45 375.57 393.36 375.51C386.79 370.27 378.57 368.66 370.4 370.27C370.28 370.7 370.17 371.13 370.05 371.56V371.57ZM376.52 335.94C372.21 346.94 370.8 358.49 368.57 369.97C368.85 370.1 369.06 370.4 368.99 370.7C369.15 370.85 369.33 370.98 369.5 371.12C372.16 358.56 374.95 345.46 379.63 333.52C382.99 324.91 388.37 316.03 397 311.88C405.03 308.01 413.14 311.57 416.37 319.75C420.35 329.85 414.61 340.99 410.34 350.03C405.35 360.57 399.38 370.6 391.85 379.52C392.85 379.48 393.86 379.41 394.89 379.27C394.9 379.25 394.9 379.22 394.92 379.2C402.53 367.77 409.78 355.81 415.41 343.26C418.34 336.76 420.66 329.44 419.06 322.28C417.48 315.27 412.39 309.27 404.83 308.92C390.49 308.29 381.04 324.42 376.53 335.94H376.52ZM379.39 336.91C375.7 347.52 373.56 358.61 370.62 369.43C378.89 367.22 387.52 369.42 394.17 374.71C394.21 374.74 394.22 374.77 394.24 374.8C401.17 365.76 406.64 355.73 411.3 345.33C414.12 339.03 417.17 332.1 416.53 325.02C415.93 318.38 411.28 311.35 404.02 311.2C391.06 310.92 382.97 326.61 379.38 336.92L379.39 336.91ZM361.5 469.91C354.83 478.24 348.7 486.93 342.53 495.63C345.95 496.12 349.39 495.78 352.6 494.16C352.9 494.01 353.17 494.13 353.34 494.33C353.36 494.26 353.41 494.19 353.47 494.12C361.52 486.2 369.85 478.55 378.08 470.82C382.37 466.78 386.67 462.75 390.95 458.71C394.48 455.39 398.52 452.22 401.59 448.46C405.94 443.12 403.82 436.1 402.95 429.9C402.17 424.36 401.39 418.84 400.61 413.3C399.07 402.33 397.52 391.35 395.99 380.38C392.61 380.92 389.03 380.9 385.54 380.35C385.73 380.49 385.85 380.72 385.79 381.01C383.46 392.58 381.76 404.26 380.77 416.02C380.31 421.57 380 427.13 379.83 432.69C379.68 437.36 380.03 442.25 378.81 446.8C377.7 450.95 374.95 453.97 372.19 457.12C368.54 461.31 364.98 465.57 361.51 469.91H361.5ZM339.1 494.87C339.86 495.09 340.63 495.29 341.39 495.44C346.72 487.03 352.72 479.01 358.88 471.19C362.18 467.01 365.55 462.89 369.01 458.85C372.6 454.67 376.73 450.84 377.85 445.23C378.94 439.77 378.42 433.89 378.65 428.35C378.88 423.04 379.25 417.72 379.77 412.43C380.8 401.77 382.4 391.18 384.52 380.68C384.56 380.46 384.68 380.32 384.83 380.26C382.44 379.83 380.09 379.14 377.87 378.19C377.87 378.32 377.82 378.46 377.71 378.58C364.08 393.93 353.2 411.13 342.6 428.64C339.42 433.89 337.63 438.51 337.21 444.69C336.83 450.23 336.53 455.77 336.22 461.31C335.62 472.01 335.37 482.74 334.65 493.42C336.32 494.06 337.95 494.54 339.1 494.89V494.87ZM325.19 453.52C325.55 464.75 326.27 475.95 326.8 487.15C326.97 487.15 327.15 487.22 327.19 487.43C327.64 489.93 330.63 491.75 333.69 493.02C333.77 481.72 334.51 470.4 335.1 459.11C335.41 453.4 335.58 447.66 336.11 441.97C336.57 437.1 338.29 433.26 340.79 429.1C351.53 411.23 362.5 393.01 376.77 377.67C374.14 376.41 371.73 374.75 369.67 372.69C369.49 372.84 369.16 372.69 369.22 372.41C369.22 372.37 369.24 372.32 369.25 372.28C368.97 371.98 368.7 371.68 368.43 371.37C368.36 371.43 368.3 371.49 368.24 371.55C368.2 371.62 368.15 371.67 368.08 371.69C360.25 378.81 352.63 386.15 345.28 393.76C341.57 397.6 337.92 401.49 334.34 405.45C330.63 409.54 326.43 413.6 325.27 419.22C324.18 424.53 324.73 430.4 324.79 435.79C324.85 441.71 324.98 447.61 325.16 453.52H325.19ZM319.12 561.19C319.56 561.31 320 561.3 320.44 561.19C320.44 561.18 320.44 561.17 320.44 561.15C320.7 554.54 322.79 548.13 326.73 542.79C330.36 537.88 335.61 534.64 339.6 530.09C342.72 526.54 344.06 522.65 344.2 517.92C344.29 514.71 344.03 511.48 344.56 508.28C345.36 503.5 347.8 499.08 351.45 495.92C350.8 496.16 350.13 496.34 349.47 496.5C343.15 501.98 342.23 508.61 342.3 516.54C342.34 521.65 341.25 525.8 337.72 529.63C333.99 533.68 329.09 536.42 325.48 540.6C320.58 546.25 318.37 553.35 318.14 560.73C318.46 560.9 318.76 561.09 319.12 561.18V561.19ZM309.6 560.5C309.66 560.5 309.72 560.5 309.78 560.52C308.83 555.14 310.38 549.5 313.97 545.34C318.88 539.63 326.52 537.37 330.61 530.76C333.12 526.69 333.75 522.18 333.56 517.49C333.43 514.08 333.11 510.63 334.33 507.37C336.12 502.58 340.37 499.39 344.71 496.95C343.74 496.91 342.78 496.82 341.82 496.64C341.52 497 340.99 496.82 340.9 496.47C340.49 496.38 340.08 496.27 339.67 496.16C339.83 496.32 339.78 496.67 339.53 496.76C330.65 499.59 331.8 509.2 331.78 516.65C331.78 521.77 330.98 527.15 328 531.44C324.56 536.4 318.65 537.9 314.22 541.65C308.7 546.32 306.3 553.7 307.4 560.74C307.75 560.78 308.09 560.81 308.44 560.76C308.84 560.72 309.21 560.56 309.6 560.5ZM296 546.72C295.97 546.55 296.11 546.46 296.24 546.48C296.24 546.32 296.31 546.17 296.51 546.08C299.37 544.79 302.33 543.38 304.49 541.04C307.34 537.96 307.13 534.34 306.92 530.44C306.64 525.53 307.57 520.76 310.07 516.49C312.68 512.01 316.71 509.51 320.58 506.27C326.58 501.24 326 495 325.66 487.91C325.66 487.75 325.79 487.66 325.93 487.66C325.9 487.61 325.88 487.54 325.87 487.47C324.69 475.22 324.21 462.87 323.85 450.56C323.67 444.65 323.56 438.74 323.5 432.83C323.46 427.87 322.97 422.53 324.3 417.69C325.51 413.28 328.59 409.9 331.57 406.57C335.28 402.42 339.06 398.33 342.92 394.32C350.91 385.99 359.21 377.94 367.77 370.18C369 357.96 371.48 345.33 376.21 333.99C379.98 324.93 385.91 315.08 394.84 310.31C403.46 305.71 413.69 307.97 418.26 316.88C423.06 326.25 419.79 336.69 415.56 345.59C410.05 357.22 403.46 368.37 396.31 379.07C396.5 379.07 396.64 379.14 396.76 379.25C397 379.26 397.2 379.41 397.24 379.73C398.93 391.76 400.61 403.79 402.28 415.83C403.16 422.09 404.03 428.35 404.9 434.6C405.45 438.56 406.23 442.73 404.42 446.48C402.36 450.74 397.91 453.91 394.55 457.08L381.13 469.7C372.19 478.1 363.34 486.63 354.21 494.84C354.05 494.99 353.86 495 353.7 494.94C353.69 494.99 353.66 495.04 353.62 495.07C347.75 500.23 345.29 506.31 345.29 514.06C345.29 519.58 345.21 524.56 341.81 529.16C338.51 533.62 333.71 536.65 329.96 540.67C324.72 546.28 321.92 553.5 321.54 561.13C321.52 561.49 321.23 561.66 320.95 561.66H320.94C319.94 562.23 318.01 562.31 317.47 561.04C317.42 560.92 317.44 560.76 317.52 560.65C317.24 554.54 318.96 548.49 322.27 543.35C323.89 540.82 325.92 538.75 328.08 536.83C330.25 534.9 332.55 533.11 334.75 531.15C337.47 528.72 339.91 525.93 340.84 522.32C341.89 518.23 340.94 513.96 341.33 509.8C341.81 504.78 344.14 500.27 347.68 496.79C347.42 496.82 347.17 496.83 346.91 496.86C346.87 496.93 346.81 496.99 346.72 497.05C339.85 500.64 334.55 505.32 334.44 513.58C334.36 519.73 334.94 525.12 331.75 530.7C330.47 532.94 328.83 534.72 327 536.28C324.65 538.3 321.99 539.97 319.37 541.84C312.78 546.56 309.6 553 310.49 561.12C310.53 561.45 309.98 561.51 309.92 561.19C309.92 561.19 309.92 561.17 309.92 561.16C309.15 561.75 307.99 561.77 307.07 561.53C306.84 561.6 306.57 561.52 306.51 561.2C305.37 555.18 306.71 549.02 310.4 544.09C310.54 543.9 310.68 543.72 310.83 543.54C315.44 537.97 323.39 536.5 327.35 530.39C331.98 523.22 329.82 515.04 330.73 507.13C331.3 502.23 333.98 496.72 339.4 496.07C338.59 495.85 337.77 495.6 336.97 495.3C335.15 494.63 332.32 493.76 330.05 492.42C330.88 497.84 329.48 503.34 325.65 507.38C321.27 512.02 314.27 514.13 312.47 520.84C310.74 527.27 313.34 533.78 310.39 540.07C309.97 540.96 309.49 541.8 308.95 542.61C306.6 546.12 303.13 548.85 299.05 550.07C298.77 550.14 298.57 549.85 298.63 549.63C298.65 549.56 298.7 549.49 298.79 549.45C304.57 547 309.24 542.51 310.7 536.24C312.03 530.52 309.69 524.37 311.98 518.82C313.56 514.99 317.02 512.7 320.28 510.38C326.37 506.05 330.3 500.34 328.98 492.51C328.94 492.23 329.08 492.03 329.28 491.91C327.75 490.86 326.62 489.55 326.47 487.88C326.38 487.89 326.29 487.88 326.2 487.84C327.3 493.1 327.69 499.22 324.37 503.8C320.73 508.82 314.62 511.04 311.29 516.46C309.18 519.89 307.99 523.86 307.92 527.9C307.86 531.14 308.77 534.43 307.79 537.61C306.29 542.42 301.41 545.1 297.08 546.96C296.9 547.03 296.74 547 296.6 546.93C296.99 547.82 297.62 548.65 298.39 549.22C298.52 549.32 298.56 549.47 298.54 549.61C298.5 549.86 298.25 550.06 298 549.87C296.92 549.05 296.27 548 296.04 546.67L296 546.72Z" fill="black"/>
</g>
<g clip-path="url(#clip1_771_406)">
<path d="M367.34 47.3705C365.71 46.9905 364.01 46.7305 362.35 46.5105C362.01 46.4705 361.93 46.9605 362.26 47.0405C363.89 47.4005 365.58 47.7305 367.24 47.9205C367.6 47.9605 367.69 47.4505 367.34 47.3705ZM366.1 46.0505C364.22 45.6705 362.3 45.3405 360.39 45.1005C360.1 45.0605 360.02 45.5005 360.31 45.5605C362.18 45.9805 364.1 46.3205 366 46.5905C366.36 46.6405 366.45 46.1205 366.1 46.0405V46.0505ZM350.14 73.8805C344.39 75.4905 338.57 77.4705 333.02 79.6505C335 73.6305 335.59 66.8805 336.88 60.6905C338.33 53.7305 339.89 46.7905 341.53 39.8805C341.53 39.8505 341.53 39.8305 341.53 39.8105C353.26 42.2405 365 44.6505 376.74 47.0605C376.74 47.0605 376.74 47.0705 376.73 47.0905C373.89 60.3105 370.39 73.6705 368.39 87.0505C363.05 82.6605 357.53 78.4005 351.91 74.3605C352.12 73.9905 351.79 73.4305 351.25 73.5805C351.15 73.6105 351.05 73.6305 350.94 73.6705C350.9 73.6305 350.86 73.6005 350.82 73.5805C350.51 73.3605 350.15 73.6105 350.14 73.9005V73.8805ZM345.46 73.3605C343.62 73.9105 341.75 74.5805 339.98 75.3105C339.73 75.4105 339.87 75.7605 340.13 75.6905C341.98 75.2005 343.88 74.6005 345.69 73.9405C346.07 73.8005 345.86 73.2405 345.47 73.3505L345.46 73.3605ZM344.9 71.9305C345.28 71.7305 345.08 71.1105 344.66 71.2905C343.3 71.8605 342.02 72.3305 340.54 72.5305C340.23 72.5705 340.28 73.0305 340.59 73.0205C342.05 72.9405 343.6 72.6105 344.9 71.9305Z" fill="#D4212A"/>
<path d="M312.611 67.9393C313.071 66.5393 313.521 65.1293 313.941 63.7093C314.071 63.2593 313.341 63.1293 313.211 63.5793C312.841 64.9793 312.501 66.3793 312.171 67.7993C312.111 68.0493 312.531 68.1893 312.611 67.9393ZM314.721 64.8493C314.111 66.5793 313.681 68.3993 313.201 70.1693C313.151 70.3693 313.481 70.4793 313.551 70.2793C314.141 68.5393 314.791 66.7893 315.251 65.0093C315.321 64.7093 314.821 64.5393 314.711 64.8393L314.721 64.8493ZM287.931 40.1093C287.881 40.5093 288.471 40.6093 288.541 40.2193C288.751 39.1793 289.061 38.0893 289.121 37.0193C289.141 36.5793 288.571 36.4893 288.451 36.8993C288.151 37.9293 288.081 39.0593 287.921 40.1093H287.931ZM284.011 49.8793C285.341 42.9593 286.631 36.0293 287.861 29.0893C287.911 28.8393 287.811 28.6593 287.661 28.5293C297.531 30.6193 307.401 32.7093 317.271 34.7793C318.851 35.1093 320.431 35.4293 322.011 35.7593C319.011 48.6393 315.741 62.0993 314.821 75.3493C309.411 70.9793 303.841 66.6593 298.091 62.7193C298.121 62.6993 298.151 62.6893 298.191 62.6693C298.761 62.3693 298.241 61.3793 297.661 61.6693C291.941 64.5193 286.111 66.7293 280.051 68.6893C282.191 62.8093 282.851 55.9993 284.021 49.8793H284.011ZM287.101 41.7993C287.391 40.4193 287.871 38.8793 287.871 37.4593C287.871 37.1993 287.451 37.1293 287.361 37.3693C286.891 38.7093 286.821 40.3193 286.631 41.7193C286.581 42.0293 287.041 42.1093 287.111 41.7993H287.101Z" fill="#00AAC4"/>
<path d="M233.751 50.3409C234.951 49.8209 236.131 49.2709 237.341 48.8109C237.721 48.6609 237.471 48.0509 237.121 48.2409C235.971 48.8409 234.771 49.3709 233.591 49.9309C233.341 50.0509 233.481 50.4609 233.751 50.3509V50.3409ZM243.461 50.7209C240.281 52.0709 237.081 53.3809 233.861 54.6309C231.141 55.6909 228.221 56.4909 225.641 57.8809C227.601 51.3609 228.621 44.4209 230.001 37.7609C231.421 30.8909 232.831 24.0109 234.251 17.1309C235.811 17.4709 237.371 17.8009 238.931 18.1309C248.561 20.2109 258.211 22.2609 267.851 24.3109C266.451 31.0409 265.241 37.8109 263.941 44.5609C262.651 51.2709 260.981 58.0509 260.181 64.8509C254.771 60.1209 249.591 55.1309 244.111 50.4809C243.831 50.2409 243.531 50.4509 243.471 50.7109L243.461 50.7209ZM237.351 51.0509C237.681 50.9509 237.561 50.4009 237.221 50.4609C235.231 50.8209 233.191 51.6809 231.491 52.7709C231.291 52.9009 231.471 53.2609 231.691 53.1509C233.551 52.2509 235.381 51.6209 237.351 51.0509Z" fill="#FF8F24"/>
<path d="M194.51 38.1105C195.66 39.1505 196.82 40.4305 198.13 41.2405C198.38 41.3905 198.68 41.0105 198.5 40.8005C197.49 39.6205 196.06 38.6705 194.86 37.6905C194.58 37.4705 194.25 37.8705 194.51 38.1105ZM197 42.3305C197.3 42.6205 197.7 42.1305 197.42 41.8405C196.01 40.4405 194.55 39.0205 193.05 37.7205C192.86 37.5605 192.54 37.8305 192.72 38.0205C194.08 39.5105 195.55 40.9405 197.01 42.3305H197ZM181.28 5.73047C192.17 8.20047 203.11 10.5305 214.04 12.8405C211.33 26.3205 208.35 39.8205 206.1 53.3805C200.98 48.4905 196.18 43.3605 191.21 38.3105C190.95 38.0405 190.56 38.2605 190.46 38.5505C187.16 39.8805 183.94 41.4205 180.7 42.8905C179.78 43.3105 173.67 46.6705 172.01 46.9405C175.72 33.4005 178.27 19.4405 181.28 5.73047ZM189.47 10.9505C187.9 10.5705 186.46 9.98047 184.99 9.34047C184.72 9.22047 184.56 9.60047 184.8 9.74047C186.2 10.5905 187.79 11.1405 189.36 11.5605C189.74 11.6605 189.85 11.0405 189.47 10.9505ZM183.28 8.17047C184.92 8.76047 186.94 9.51047 188.67 9.57047C188.95 9.57047 188.97 9.17047 188.76 9.07047C188 8.68047 187.11 8.54047 186.28 8.34047C185.33 8.12047 184.39 7.87047 183.42 7.73047C183.17 7.69047 183.02 8.08047 183.28 8.17047Z" fill="#7CB202"/>
<path d="M345.68 73.95C343.88 74.61 341.97 75.22 340.12 75.7C339.87 75.77 339.72 75.42 339.97 75.32C341.74 74.59 343.62 73.92 345.45 73.37C345.84 73.25 346.05 73.82 345.67 73.96L345.68 73.95Z" fill="black"/>
<path d="M344.659 71.2898C345.079 71.1098 345.279 71.7398 344.899 71.9298C343.599 72.6098 342.049 72.9298 340.589 73.0198C340.279 73.0398 340.229 72.5798 340.539 72.5298C342.019 72.3198 343.299 71.8598 344.659 71.2898Z" fill="black"/>
<path d="M313.211 70.1692C313.691 68.3992 314.121 66.5792 314.731 64.8492C314.831 64.5492 315.341 64.7092 315.271 65.0192C314.811 66.7992 314.161 68.5492 313.571 70.2892C313.501 70.4792 313.171 70.3692 313.221 70.1792L313.211 70.1692Z" fill="black"/>
<path d="M313.94 63.7105C313.53 65.1305 313.07 66.5405 312.61 67.9405C312.53 68.1905 312.11 68.0505 312.17 67.8005C312.5 66.3905 312.84 64.9805 313.21 63.5805C313.33 63.1205 314.07 63.2605 313.94 63.7105Z" fill="black"/>
<path d="M289.13 37.0108C289.07 38.0808 288.76 39.1708 288.55 40.2108C288.47 40.6108 287.88 40.5108 287.94 40.1008C288.1 39.0508 288.16 37.9208 288.47 36.8908C288.59 36.4708 289.16 36.5708 289.14 37.0108H289.13Z" fill="black"/>
<path d="M287.87 37.4501C287.87 38.8701 287.39 40.4101 287.1 41.7901C287.03 42.0901 286.58 42.0101 286.62 41.7101C286.81 40.3101 286.88 38.7001 287.35 37.3601C287.44 37.1201 287.86 37.1901 287.86 37.4501H287.87Z" fill="black"/>
<path d="M237.34 48.8102C236.13 49.2702 234.95 49.8302 233.75 50.3402C233.49 50.4602 233.35 50.0402 233.59 49.9202C234.77 49.3602 235.97 48.8302 237.12 48.2302C237.47 48.0502 237.71 48.6602 237.34 48.8002V48.8102Z" fill="black"/>
<path d="M231.479 52.7809C233.179 51.7009 235.219 50.8309 237.209 50.4709C237.549 50.4009 237.679 50.9609 237.339 51.0609C235.359 51.6309 233.539 52.2609 231.679 53.1609C231.459 53.2709 231.279 52.9109 231.479 52.7809Z" fill="black"/>
<path d="M194.86 37.7006C196.06 38.6806 197.5 39.6306 198.5 40.8106C198.68 41.0306 198.38 41.4106 198.13 41.2506C196.81 40.4306 195.65 39.1606 194.51 38.1206C194.25 37.8806 194.58 37.4806 194.86 37.7006Z" fill="black"/>
<path d="M193.049 37.7205C194.559 39.0205 196.009 40.4305 197.419 41.8405C197.709 42.1305 197.309 42.6205 196.999 42.3305C195.539 40.9405 194.069 39.5105 192.709 38.0205C192.529 37.8305 192.849 37.5605 193.039 37.7205H193.049Z" fill="black"/>
<path d="M184.999 9.3302C186.469 9.9702 187.909 10.5702 189.479 10.9402C189.859 11.0302 189.749 11.6502 189.369 11.5502C187.789 11.1302 186.209 10.5802 184.809 9.7302C184.559 9.5802 184.729 9.2102 184.999 9.3302Z" fill="black"/>
<path d="M188.68 9.5695C186.94 9.5095 184.92 8.7595 183.29 8.1695C183.04 8.0695 183.18 7.6895 183.43 7.7295C184.4 7.8795 185.34 8.1195 186.29 8.3395C187.11 8.5395 188.01 8.6795 188.77 9.0695C188.98 9.1695 188.96 9.5695 188.68 9.5695Z" fill="black"/>
<path d="M181.28 5.72967C178.27 19.4397 175.72 33.3997 172.01 46.9397C173.66 46.6697 179.77 43.3097 180.7 42.8897C183.94 41.4197 187.17 39.8797 190.46 38.5497C190.55 38.2597 190.94 38.0397 191.21 38.3097C196.17 43.3597 200.98 48.4897 206.1 53.3797C208.36 39.8097 211.33 26.3097 214.04 12.8397C203.11 10.5297 192.18 8.19967 181.28 5.72967ZM341.53 39.8097C341.53 39.8097 341.53 39.8497 341.53 39.8797C339.88 46.7897 338.33 53.7297 336.88 60.6897C335.59 66.8797 335 73.6297 333.02 79.6497C338.57 77.4697 344.4 75.4897 350.14 73.8797C350.14 73.5897 350.5 73.3397 350.82 73.5597C350.86 73.5897 350.91 73.6197 350.94 73.6497C351.05 73.6197 351.15 73.5897 351.25 73.5597C351.79 73.4097 352.12 73.9797 351.91 74.3397C357.53 78.3697 363.06 82.6397 368.39 87.0297C370.4 73.6497 373.89 60.2897 376.73 47.0697C376.73 47.0597 376.74 47.0497 376.74 47.0397C365 44.6397 353.26 42.2197 341.53 39.7897V39.8097ZM280.04 68.6897C286.1 66.7297 291.93 64.5197 297.65 61.6697C298.23 61.3797 298.75 62.3697 298.18 62.6697C298.15 62.6897 298.12 62.6997 298.08 62.7197C303.82 66.6597 309.39 70.9797 314.81 75.3497C315.74 62.0997 319 48.6397 322 35.7597C320.42 35.4297 318.84 35.0997 317.26 34.7797C307.39 32.7197 297.51 30.6297 287.65 28.5297C287.8 28.6497 287.9 28.8397 287.85 29.0897C286.62 36.0297 285.33 42.9597 284 49.8797C282.83 55.9897 282.18 62.8097 280.03 68.6897H280.04ZM244.09 50.4897C249.57 55.1397 254.75 60.1297 260.16 64.8597C260.96 58.0597 262.63 51.2797 263.92 44.5697C265.22 37.8197 266.43 31.0497 267.83 24.3197C258.19 22.2697 248.55 20.2097 238.91 18.1397C237.35 17.7997 235.79 17.4697 234.23 17.1397C232.81 24.0197 231.4 30.8997 229.98 37.7697C228.6 44.4297 227.58 51.3697 225.62 57.8897C228.19 56.4997 231.12 55.6997 233.84 54.6397C237.07 53.3897 240.26 52.0797 243.44 50.7297C243.5 50.4597 243.8 50.2597 244.08 50.4997L244.09 50.4897ZM495.3 112.78C500.84 109.76 507.31 107.56 513.26 105.5C513.67 105.36 513.96 105.66 513.99 105.99C519.36 109.28 524.47 113.22 529.23 117.35C529.82 111.23 531.26 105.04 532.26 99.0097C533.4 92.1897 534.43 85.3297 535.71 78.5297C524.81 76.4297 513.91 74.3297 503.01 72.2097C498.99 85.5497 496.94 98.9697 495.28 112.76C495.28 112.78 495.28 112.79 495.27 112.8C495.29 112.8 495.29 112.79 495.3 112.78ZM462.75 99.0097C464.19 100.1 465.62 101.2 467.06 102.29C469.78 104.34 472.53 106.36 475.28 108.38C475.42 102.12 476.8 95.6597 477.9 89.5397C479.17 82.4597 480.55 75.2797 482.63 68.3797C482.65 68.3297 482.67 68.2997 482.69 68.2697C479.4 67.6297 476.12 66.9897 472.83 66.3497C464.98 64.8097 457.13 63.2497 449.28 61.6897C449.29 61.7397 449.3 61.7997 449.28 61.8697C448.11 68.6897 446.44 75.4597 444.99 82.2297C443.55 88.9797 442.38 95.8997 440.48 102.54C440.48 102.58 440.45 102.61 440.43 102.63C446.46 100.16 452.55 97.8497 458.56 95.3297C459.18 95.0697 459.57 95.8397 459.25 96.2897C459.85 97.3897 461.96 98.4097 462.75 99.0097ZM249.73 19.1297C301.46 30.2497 353.27 41.0497 405.14 51.5297C457.24 62.0597 509.41 72.2597 561.64 82.1597C562.46 82.3197 562.24 83.5897 561.42 83.4397C553.25 81.8897 545.08 80.3297 536.92 78.7597C535.9 85.5997 534.61 92.3997 533.44 99.2197C532.27 106.02 531.56 113.21 529.66 119.84C529.56 120.22 529.05 120.12 529.07 119.74C529.09 119.36 529.13 118.99 529.16 118.6C529.03 118.6 528.91 118.58 528.78 118.48C523.72 114.5 518.56 110.64 513.53 106.63C507.86 109.13 501.66 111.9 495.67 113.43C495.41 113.5 495.15 113.25 495.17 113.03C494.91 113.23 494.43 113.12 494.44 112.74C494.95 98.9997 497.98 85.1297 501.93 71.9997C495.84 70.8197 489.75 69.6397 483.66 68.4497C483.66 68.4897 483.66 68.5197 483.66 68.5597C482.16 75.3997 480.41 82.1497 479.15 89.0497C477.89 95.8997 477.47 103 475.94 109.78C475.87 110.12 475.32 110.13 475.29 109.78C475.2 109.76 475.11 109.73 475.02 109.67C471.17 106.92 467.37 104.08 463.64 101.19C462.44 100.26 459.13 98.5897 458.52 96.7597C452.62 99.3797 446.57 101.81 440.38 103.63C439.86 103.78 439.59 103.09 440.03 102.85C439.86 102.81 439.72 102.66 439.76 102.43C440.73 95.5997 442.48 88.8097 443.92 82.0497C445.36 75.2797 446.59 68.4097 448.31 61.7097C448.33 61.6297 448.36 61.5697 448.4 61.5197C442.43 60.3297 436.46 59.1397 430.49 57.9397C429.21 64.7897 427.82 71.6297 426.49 78.4697C425.16 85.2797 424.23 92.3697 422.3 99.0297C422.23 99.2497 422.03 99.3297 421.86 99.2797C421.7 99.3297 421.52 99.2897 421.36 99.1397C416.37 94.2897 410.46 90.2597 405.66 85.2797C405.63 85.3097 405.6 85.3397 405.55 85.3697C399.71 88.2997 393.43 90.8597 386.91 91.7597C386.55 91.8097 386.42 91.2497 386.77 91.1297C386.81 91.1297 386.85 91.1097 386.89 91.0897C386.89 91.0897 386.88 91.0697 386.89 91.0497C387.42 84.2597 389.43 77.3097 390.77 70.6297C392.1 63.9997 393.44 57.3697 394.79 50.7397C389.18 49.5997 383.58 48.4597 377.97 47.3197C375.16 60.7697 372.92 74.6197 369.23 87.8597C369.25 87.9297 369.25 87.9997 369.23 88.0697C369.21 88.1597 369.17 88.2597 369.1 88.3297C368.96 88.8097 368.31 88.7597 368.25 88.3297C362.39 84.0597 356.62 79.5397 351.08 74.8597C344.95 77.2297 338.45 79.2797 332.12 80.9497C331.6 81.0897 331.32 80.3697 331.82 80.1697C332.01 80.0897 332.2 80.0197 332.39 79.9497C332.52 73.5297 334.49 66.8097 335.77 60.5297C337.17 53.5597 338.7 46.6197 340.34 39.7097C340.35 39.6697 340.38 39.6397 340.39 39.5997C334.67 38.4197 328.94 37.2397 323.22 36.0397C321.66 42.7197 320.23 49.4197 318.97 56.1597C317.71 62.8997 316.94 69.7797 315.48 76.4697C315.39 76.8597 314.92 76.8097 314.81 76.5097C314.66 76.5397 314.51 76.5197 314.36 76.4197C308.57 72.1997 302.78 67.8197 297.35 63.1597C291.77 66.0397 285.81 68.3697 279.68 69.7397C279.37 69.7997 279.19 69.4897 279.24 69.2297C279.24 69.1897 279.25 69.1497 279.28 69.1097C279.53 62.4897 281.71 55.5197 282.96 49.0097C284.24 42.3297 285.48 35.6197 286.67 28.9197C286.72 28.6497 286.9 28.4997 287.1 28.4497C281.07 27.1697 275.05 25.8897 269.02 24.6097C267.82 31.3597 266.44 38.0797 265.14 44.8097C263.81 51.6897 262.83 58.7997 260.96 65.5497C260.88 65.8297 260.63 65.9097 260.42 65.8497C260.23 66.0797 259.89 66.1897 259.6 65.9397C254.35 61.3697 249.04 56.7897 244.2 51.7797C244.15 51.8197 244.11 51.8497 244.06 51.8797C238.24 54.3997 231.73 57.8497 225.43 58.7997C225.41 58.7997 225.39 58.7997 225.38 58.7997C225.17 59.0597 224.73 58.9397 224.77 58.5497C225.49 51.5297 227.4 44.5097 228.82 37.6097C230.24 30.7197 231.67 23.8197 233.08 16.9397C227.14 15.6697 221.18 14.4097 215.22 13.1497C212.57 26.8697 210.15 40.7297 207 54.3497C207.31 54.8697 206.66 55.5697 206.13 55.1097C200.73 50.4297 195.4 45.2297 190.99 39.5797C187.36 41.3897 183.6 42.9697 179.9 44.6097C177.79 45.5497 174.01 48.1697 171.67 47.7297C171.57 47.7097 171.47 47.6397 171.44 47.5397C171.44 47.5397 171.44 47.5297 171.44 47.5197C171.25 47.4697 171.1 47.3097 171.15 47.0597C173.48 33.1297 177.06 19.3097 180.12 5.51967C173.84 4.03967 167.62 2.56967 161.41 1.02967C160.77 0.879672 160.92 -0.120328 161.58 0.00967229C191.07 5.78967 220.34 12.8197 249.73 19.1297ZM387.48 90.8797C393.52 88.9597 399.42 87.1097 405.11 84.2197C405.53 84.0097 405.84 84.3397 405.88 84.7097C405.9 84.7197 405.93 84.7297 405.96 84.7397C411.84 87.8697 416.98 93.1797 421.74 97.8297C422.49 91.2797 424.15 84.7197 425.38 78.2597C426.69 71.4097 427.94 64.5397 429.31 57.6797C418.18 55.4597 407.06 53.2197 395.94 50.9597C394.54 57.8097 393.12 64.6597 391.71 71.4997C390.39 77.8797 389.54 84.6797 387.5 90.8797H387.48Z" fill="black"/>
</g>
<defs>
<clipPath id="clip0_771_406">
<rect width="124.63" height="254.08" fill="white" transform="translate(296 308)"/>
</clipPath>
<clipPath id="clip1_771_406">
<rect width="401.15" height="120.07" fill="white" transform="translate(161)"/>
</clipPath>
</defs>
</svg>
