<svg width="960" height="1080" viewBox="0 0 960 1080" fill="none" xmlns="http://www.w3.org/2000/svg">
<mask id="mask0_766_10" style="mask-type:alpha" maskUnits="userSpaceOnUse" x="0" y="0" width="960" height="1080">
<rect width="960" height="1080" fill="#D9D9D9"/>
</mask>
<g mask="url(#mask0_766_10)">
</g>
<g clip-path="url(#clip0_766_10)">
<path d="M889.231 826.69C888.611 826.54 888.111 826.21 887.561 825.92C887.951 813.41 891.691 801.36 900.011 791.76C906.131 784.68 914.461 780.02 920.781 773.15C926.781 766.66 928.621 759.61 928.561 750.94C928.451 737.48 930.011 726.22 940.731 716.92C941.851 716.65 942.981 716.34 944.091 715.94C937.901 721.29 933.761 728.79 932.401 736.91C931.491 742.33 931.931 747.81 931.781 753.26C931.541 761.29 929.271 767.9 923.981 773.92C917.201 781.65 908.301 787.14 902.131 795.47C895.441 804.54 891.891 815.42 891.451 826.63C891.451 826.66 891.461 826.67 891.461 826.69C890.711 826.87 889.971 826.88 889.221 826.68L889.231 826.69Z" fill="#6BC3DE"/>
<path d="M874.919 784.41C872.449 795.05 864.519 802.68 854.699 806.84C854.549 806.9 854.459 807.02 854.419 807.14H854.229C854.269 806.89 854.199 806.63 853.979 806.46C852.679 805.49 851.609 804.09 850.949 802.57C851.189 802.7 851.469 802.75 851.769 802.62C859.119 799.45 867.419 794.92 869.949 786.75C871.619 781.36 870.079 775.76 870.179 770.27C870.309 763.43 872.309 756.68 875.899 750.86C881.559 741.65 891.919 737.89 898.099 729.37C903.729 721.59 903.079 711.21 901.209 702.28C901.359 702.33 901.509 702.37 901.659 702.34C901.929 705.18 903.839 707.4 906.429 709.18C906.089 709.37 905.849 709.72 905.919 710.19C908.159 723.47 901.489 733.17 891.159 740.52C885.639 744.45 879.759 748.34 877.079 754.84C873.189 764.26 877.169 774.69 874.909 784.4L874.919 784.41Z" fill="#EC9827"/>
<path d="M880.49 799.79C874.4 806.85 871.76 816.42 873.38 825.55C873.28 825.52 873.18 825.5 873.08 825.51C872.41 825.61 871.79 825.88 871.11 825.95C870.52 826.03 869.94 825.99 869.34 825.91C867.48 813.96 871.55 801.44 880.92 793.52C888.45 787.16 898.47 784.61 904.31 776.2C909.36 768.91 910.71 759.78 910.72 751.1C910.75 738.46 908.8 722.16 923.87 717.35C924.3 717.21 924.38 716.62 924.11 716.34C924.8 716.53 925.5 716.72 926.19 716.87C926.34 717.46 927.24 717.77 927.74 717.16C929.37 717.45 931.01 717.61 932.65 717.68C925.29 721.82 918.07 727.24 915.03 735.37C912.97 740.9 913.5 746.76 913.73 752.54C914.05 760.5 912.99 768.15 908.72 775.05C901.79 786.26 888.82 790.1 880.49 799.79Z" fill="#F3BA2A"/>
<path d="M906.12 582.14C906.04 582.57 906.65 582.91 906.88 582.47C908 580.24 909.17 578.28 910.96 576.51C911.63 575.84 910.61 574.82 909.92 575.47C908.11 577.21 906.56 579.62 906.12 582.14ZM903.2 584.92C904.46 581.21 906.23 578 909.11 575.3C909.75 574.69 908.78 573.71 908.14 574.33C905.22 577.11 903.03 580.68 902.36 584.7C902.27 585.24 903.03 585.47 903.21 584.93L903.2 584.92ZM899.7 585.75C901.67 576.22 908.79 569.32 915.09 562.38C921.16 555.66 927.35 549.06 933.65 542.54C946.13 529.63 959.06 517.17 972.34 505.09C972.45 505.05 972.54 504.98 972.61 504.85C972.72 504.75 972.82 504.65 972.94 504.55C973.39 505.08 973.85 505.59 974.33 506.09C974.32 506.17 974.29 506.24 974.28 506.32C974.18 506.81 974.73 507.05 975.04 506.8C978.53 510.29 982.63 513.1 987.09 515.25C962.87 541.28 944.25 572.2 926.02 602.53C921.78 609.59 918.86 616.12 918.08 624.38C917.17 634.04 916.88 643.79 916.36 653.47C915.35 672.63 914.1 691.83 913.96 711.01C908.77 708.85 903.69 705.77 902.92 701.53C902.86 701.18 902.55 701.04 902.26 701.05C901.35 682.03 900.13 663.03 899.52 643.97C899.2 633.94 898.99 623.92 898.89 613.88C898.79 604.73 897.84 594.77 899.7 585.76V585.75Z" fill="#F3BA2A"/>
<path d="M1000.75 519.6C1000.5 519.71 1000.28 519.94 1000.22 520.32C996.63 538.14 993.91 556.11 992.16 574.2C991.29 583.19 990.66 592.21 990.27 601.22C989.88 610.63 990.75 620.6 988.91 629.87C987 639.4 980 645.89 973.91 652.99C968.04 659.86 962.31 666.84 956.71 673.94C946.27 687.21 936.09 700.82 927.04 715.09C925.74 714.84 924.44 714.51 923.15 714.13C921.19 713.55 918.44 712.73 915.6 711.64C916.82 693.51 917.25 675.3 918.26 657.14C918.78 647.73 919.3 638.33 919.94 628.93C920.66 618.45 923.7 610.61 929.09 601.69C947.08 571.96 965.55 542.78 988.68 516.73C988.86 516.53 988.93 516.3 988.95 516.07C992.71 517.69 996.7 518.85 1000.76 519.58L1000.75 519.6Z" fill="#91BD20"/>
<path d="M1002.61 545.68C1002.65 542.33 1002.67 538.92 1002.42 535.58C1002.38 535.02 1001.6 535.02 1001.56 535.58C1001.31 538.93 1001.33 542.34 1001.36 545.68C1001.37 546.49 1002.61 546.49 1002.61 545.68ZM1005.58 538.74C1005.55 538.2 1004.75 538.2 1004.72 538.74C1004.63 541.27 1004.52 543.79 1004.51 546.32C1004.51 547.15 1005.8 547.15 1005.8 546.32C1005.79 543.79 1005.67 541.27 1005.59 538.74H1005.58ZM989.3 673.35C975.33 686.47 961.2 699.45 947.54 712.89C947.43 713 947.35 713.12 947.31 713.24C947.03 712.9 946.56 712.7 946.06 712.95C940.62 715.7 934.78 716.28 928.98 715.45C939.45 700.69 949.85 685.94 961.17 671.8C967.07 664.44 973.12 657.2 979.3 650.09C983.98 644.74 988.66 639.62 990.54 632.58C992.61 624.85 992.02 616.54 992.27 608.63C992.56 599.2 993.09 589.76 993.87 580.34C995.55 560.39 998.44 540.56 1002.39 520.93C1002.49 520.44 1002.28 520.05 1001.96 519.81C1007.89 520.74 1013.97 520.77 1019.7 519.86C1022.3 538.49 1024.93 557.11 1027.54 575.74C1028.85 585.13 1030.18 594.52 1031.51 603.91C1032.99 614.43 1036.57 626.34 1029.2 635.4C1023.98 641.79 1017.14 647.17 1011.14 652.8C1003.87 659.66 996.58 666.5 989.29 673.36L989.3 673.35ZM954.33 698.18C955.92 696.35 957.82 695.01 960 693.99C960.76 693.64 960.1 692.5 959.36 692.87C957.09 693.99 955.18 695.66 953.64 697.66C953.34 698.05 954.01 698.57 954.33 698.19V698.18ZM956.34 700.83C957.64 699.62 959.08 698.47 960.22 697.12C960.73 696.51 959.97 695.78 959.36 696.26C957.97 697.36 956.78 698.77 955.55 700.04C954.3 701.32 953.04 702.58 951.85 703.92C951.53 704.27 952.01 704.74 952.38 704.44C953.74 703.29 955.04 702.05 956.35 700.84L956.34 700.83Z" fill="#E23B45"/>
<path d="M959.36 692.85C960.1 692.48 960.76 693.62 960 693.97C957.82 694.99 955.92 696.33 954.33 698.16C954 698.54 953.33 698.02 953.64 697.63C955.18 695.63 957.09 693.97 959.36 692.84V692.85Z" fill="black"/>
<path d="M960.219 697.1C959.079 698.45 957.639 699.6 956.339 700.81C955.039 702.02 953.739 703.26 952.369 704.41C951.999 704.71 951.519 704.25 951.839 703.89C953.029 702.55 954.289 701.29 955.539 700.01C956.779 698.75 957.959 697.33 959.349 696.23C959.959 695.75 960.709 696.48 960.209 697.09L960.219 697.1Z" fill="black"/>
<path d="M910.961 576.51C909.171 578.28 908.011 580.24 906.881 582.47C906.651 582.91 906.051 582.57 906.121 582.14C906.561 579.63 908.121 577.22 909.921 575.47C910.601 574.81 911.621 575.84 910.961 576.51Z" fill="black"/>
<path d="M909.119 575.3C906.239 578 904.469 581.21 903.209 584.92C903.029 585.46 902.279 585.24 902.359 584.69C903.029 580.67 905.229 577.1 908.139 574.32C908.779 573.7 909.759 574.69 909.109 575.29L909.119 575.3Z" fill="black"/>
<path d="M975.671 504.89C986.061 513.17 997.651 518.38 1010.65 518.44C1010.6 518.17 1010.65 517.9 1010.86 517.66C1012.5 515.73 1014.09 513.77 1015.65 511.79C1015.51 511.75 1015.37 511.69 1015.23 511.59C1004.08 502.7 990.131 499.97 976.261 502.7C976.061 503.43 975.871 504.16 975.671 504.9V504.89ZM986.661 444.43C979.351 463.09 976.951 482.69 973.161 502.19C973.641 502.4 973.991 502.92 973.881 503.43C974.161 503.68 974.461 503.91 974.751 504.15C979.271 482.83 984.011 460.6 991.941 440.33C997.651 425.72 1006.78 410.66 1021.43 403.61C1035.06 397.04 1048.82 403.08 1054.3 416.97C1061.06 434.11 1051.32 453.02 1044.06 468.35C1035.6 486.23 1025.46 503.26 1012.68 518.4C1014.37 518.34 1016.09 518.21 1017.83 517.97C1017.86 517.93 1017.86 517.88 1017.88 517.84C1030.8 498.44 1043.1 478.14 1052.66 456.85C1057.64 445.81 1061.57 433.4 1058.85 421.24C1056.17 409.35 1047.54 399.15 1034.71 398.57C1010.38 397.5 994.331 424.87 986.681 444.42L986.661 444.43ZM991.531 446.07C985.271 464.08 981.641 482.89 976.641 501.26C990.671 497.51 1005.32 501.23 1016.61 510.21C1016.67 510.26 1016.7 510.31 1016.74 510.36C1028.5 495.02 1037.79 478 1045.69 460.34C1050.48 449.64 1055.65 437.89 1054.57 425.87C1053.55 414.59 1045.66 402.67 1033.34 402.41C1011.34 401.94 997.621 428.56 991.531 446.06V446.07ZM961.161 671.78C949.851 685.92 939.441 700.67 928.971 715.43C934.781 716.26 940.611 715.68 946.051 712.93C946.561 712.68 947.021 712.88 947.301 713.22C947.341 713.09 947.411 712.98 947.531 712.87C961.191 699.43 975.321 686.45 989.291 673.33C996.581 666.47 1003.86 659.63 1011.14 652.77C1017.14 647.14 1023.98 641.76 1029.2 635.37C1036.57 626.3 1032.99 614.4 1031.51 603.88C1030.18 594.49 1028.86 585.1 1027.54 575.71C1024.93 557.08 1022.3 538.46 1019.7 519.83C1013.97 520.74 1007.89 520.71 1001.96 519.78C1002.28 520.02 1002.49 520.41 1002.39 520.9C998.441 540.54 995.551 560.36 993.871 580.31C993.091 589.73 992.561 599.16 992.271 608.6C992.021 616.52 992.611 624.83 990.541 632.55C988.661 639.6 983.991 644.71 979.301 650.06C973.111 657.17 967.061 664.4 961.171 671.77L961.161 671.78ZM923.141 714.13C924.431 714.51 925.731 714.84 927.031 715.09C936.081 700.82 946.261 687.21 956.701 673.94C962.291 666.84 968.031 659.86 973.901 652.99C979.991 645.89 986.991 639.4 988.901 629.87C990.741 620.6 989.871 610.63 990.261 601.22C990.651 592.2 991.281 583.19 992.151 574.2C993.891 556.1 996.621 538.14 1000.21 520.32C1000.27 519.94 1000.49 519.71 1000.74 519.6C996.691 518.87 992.701 517.71 988.931 516.09C988.921 516.32 988.841 516.54 988.661 516.75C965.531 542.8 947.071 571.98 929.071 601.71C923.681 610.62 920.631 618.47 919.921 628.95C919.281 638.34 918.761 647.75 918.241 657.16C917.231 675.32 916.801 693.53 915.581 711.66C918.421 712.75 921.171 713.57 923.131 714.15L923.141 714.13ZM899.531 643.96C900.141 663.01 901.361 682.02 902.271 701.04C902.561 701.03 902.861 701.17 902.931 701.52C903.701 705.76 908.781 708.84 913.971 711C914.111 691.82 915.361 672.61 916.371 653.46C916.891 643.77 917.181 634.03 918.091 624.37C918.871 616.11 921.791 609.58 926.031 602.52C944.251 572.19 962.881 541.26 987.101 515.24C982.641 513.09 978.541 510.28 975.051 506.79C974.751 507.04 974.191 506.8 974.291 506.31C974.301 506.23 974.331 506.16 974.341 506.08C973.861 505.57 973.411 505.07 972.951 504.54C972.841 504.64 972.741 504.74 972.621 504.84C972.561 504.97 972.471 505.04 972.351 505.08C959.071 517.16 946.141 529.63 933.661 542.53C927.361 549.05 921.171 555.65 915.101 562.37C908.801 569.31 901.681 576.21 899.711 585.74C897.851 594.76 898.801 604.71 898.901 613.86C899.001 623.9 899.221 633.92 899.531 643.95V643.96ZM889.231 826.68C889.981 826.88 890.721 826.87 891.471 826.69C891.471 826.66 891.461 826.65 891.461 826.63C891.901 815.42 895.451 804.53 902.141 795.47C908.301 787.14 917.201 781.64 923.991 773.92C929.281 767.9 931.551 761.29 931.791 753.26C931.941 747.8 931.501 742.32 932.411 736.91C933.771 728.79 937.921 721.29 944.101 715.94C942.991 716.34 941.861 716.66 940.741 716.92C930.021 726.21 928.451 737.48 928.571 750.94C928.631 759.62 926.791 766.66 920.791 773.15C914.461 780.02 906.141 784.68 900.021 791.76C891.701 801.36 887.961 813.4 887.571 825.92C888.111 826.21 888.621 826.54 889.241 826.69L889.231 826.68ZM873.081 825.51C873.181 825.5 873.281 825.52 873.381 825.55C871.761 816.42 874.401 806.85 880.491 799.79C888.821 790.1 901.791 786.27 908.721 775.05C912.991 768.14 914.051 760.49 913.731 752.54C913.501 746.76 912.971 740.9 915.031 735.37C918.061 727.24 925.281 721.82 932.651 717.68C931.011 717.62 929.371 717.45 927.741 717.16C927.231 717.77 926.341 717.46 926.191 716.87C925.501 716.72 924.801 716.53 924.111 716.34C924.381 716.62 924.301 717.21 923.871 717.35C908.811 722.16 910.751 738.46 910.721 751.1C910.711 759.79 909.361 768.92 904.311 776.2C898.481 784.61 888.451 787.16 880.921 793.52C871.551 801.44 867.481 813.96 869.341 825.91C869.931 825.99 870.511 826.02 871.111 825.95C871.791 825.87 872.411 825.61 873.081 825.51ZM850.001 802.14C849.951 801.85 850.191 801.7 850.401 801.74C850.401 801.47 850.531 801.21 850.851 801.06C855.701 798.86 860.721 796.48 864.401 792.51C869.241 787.28 868.881 781.15 868.521 774.52C868.051 766.19 869.621 758.09 873.861 750.84C878.291 743.24 885.141 739 891.691 733.5C901.871 724.96 900.881 714.37 900.311 702.35C900.301 702.07 900.541 701.92 900.761 701.92C900.711 701.83 900.671 701.72 900.661 701.59C898.651 680.79 897.841 659.84 897.231 638.96C896.931 628.93 896.741 618.9 896.641 608.87C896.561 600.45 895.741 591.39 898.001 583.17C900.061 575.68 905.291 569.95 910.341 564.3C916.641 557.25 923.061 550.32 929.601 543.5C943.161 529.36 957.251 515.71 971.781 502.54C973.861 481.81 978.081 460.36 986.101 441.12C992.501 425.75 1002.55 409.03 1017.72 400.94C1032.34 393.14 1049.72 396.96 1057.47 412.09C1065.61 427.99 1060.06 445.72 1052.89 460.82C1043.53 480.56 1032.36 499.49 1020.22 517.63C1020.54 517.62 1020.79 517.74 1020.99 517.93C1021.39 517.96 1021.73 518.21 1021.81 518.75C1024.68 539.17 1027.53 559.59 1030.37 580.02C1031.86 590.64 1033.34 601.26 1034.81 611.88C1035.74 618.6 1037.07 625.67 1033.99 632.05C1030.49 639.29 1022.94 644.66 1017.23 650.03L994.451 671.45C979.271 685.71 964.261 700.19 948.761 714.12C948.481 714.37 948.171 714.4 947.891 714.3C947.861 714.39 947.831 714.46 947.751 714.53C937.791 723.28 933.621 733.6 933.621 746.76C933.611 756.13 933.481 764.58 927.711 772.39C922.121 779.97 913.971 785.09 907.591 791.92C898.701 801.44 893.941 813.7 893.301 826.65C893.261 827.26 892.781 827.55 892.301 827.55H892.271C890.581 828.52 887.291 828.65 886.371 826.5C886.281 826.3 886.321 826.02 886.461 825.84C885.981 815.47 888.911 805.21 894.531 796.48C897.281 792.19 900.721 788.68 904.391 785.42C908.061 782.14 911.981 779.11 915.721 775.79C920.341 771.67 924.481 766.94 926.051 760.8C927.831 753.85 926.211 746.62 926.881 739.56C927.701 731.04 931.641 723.38 937.661 717.47C937.221 717.52 936.791 717.55 936.351 717.58C936.271 717.69 936.171 717.81 936.021 717.9C924.361 724 915.361 731.93 915.171 745.95C915.031 756.39 916.021 765.54 910.611 775.01C908.441 778.81 905.651 781.83 902.551 784.48C898.561 787.9 894.041 790.74 889.611 793.91C878.421 801.92 873.031 812.85 874.551 826.63C874.611 827.19 873.691 827.3 873.581 826.76C873.581 826.75 873.571 826.72 873.571 826.71C872.261 827.71 870.291 827.75 868.731 827.34C868.341 827.45 867.881 827.31 867.781 826.78C865.851 816.56 868.121 806.11 874.381 797.74C874.621 797.42 874.861 797.11 875.111 796.81C882.931 787.36 896.431 784.86 903.141 774.48C910.991 762.31 907.331 748.43 908.871 735.01C909.831 726.69 914.391 717.34 923.581 716.25C922.201 715.87 920.811 715.45 919.451 714.95C916.361 713.81 911.561 712.34 907.711 710.06C909.121 719.27 906.741 728.58 900.251 735.45C892.831 743.32 880.931 746.9 877.871 758.29C874.941 769.2 879.351 780.25 874.331 790.93C873.621 792.43 872.801 793.87 871.891 795.25C867.901 801.21 862.021 805.84 855.101 807.9C854.631 808.03 854.281 807.52 854.381 807.16C854.421 807.03 854.511 806.92 854.661 806.86C864.471 802.71 872.401 795.08 874.881 784.43C877.141 774.72 873.161 764.29 877.051 754.87C879.731 748.37 885.611 744.48 891.131 740.55C901.461 733.2 908.131 723.5 905.891 710.22C905.811 709.75 906.051 709.4 906.401 709.21C903.811 707.43 901.891 705.21 901.631 702.37C901.481 702.4 901.331 702.36 901.181 702.31C903.051 711.24 903.711 721.62 898.071 729.4C891.901 737.92 881.531 741.69 875.871 750.89C872.281 756.71 870.281 763.45 870.151 770.3C870.051 775.79 871.591 781.39 869.921 786.78C867.381 794.95 859.091 799.48 851.741 802.65C851.441 802.78 851.161 802.73 850.921 802.6C851.581 804.12 852.651 805.52 853.951 806.49C854.181 806.67 854.241 806.92 854.201 807.16C854.121 807.58 853.711 807.93 853.291 807.6C851.461 806.21 850.361 804.43 849.971 802.17L850.001 802.14Z" fill="black"/>
</g>
<g clip-path="url(#clip1_766_10)">
<path d="M844.62 90.4603C834.12 95.7903 823.23 99.2103 812.08 102.75C815.85 91.3203 817.42 78.7703 819.86 66.9803C822.47 54.3503 825.09 41.7003 827.67 29.0703C848.2 33.2403 868.74 37.3703 889.28 41.4803C886.76 54.1303 884.44 66.8103 882.03 79.4603C879.76 91.3903 876.69 103.5 875.32 115.59C866.54 107.01 857.04 97.1903 846.19 91.4203C846.14 91.4003 846.09 91.3903 846.05 91.3703C845.99 90.6803 845.41 90.0703 844.64 90.4603H844.62ZM834.34 91.6003C830.04 93.2903 825.92 95.0303 821.47 96.3203C821.07 96.4403 821.23 97.0903 821.63 97.0303C826.12 96.3003 830.94 94.9103 834.88 92.6203C835.45 92.3003 834.95 91.3703 834.34 91.6003ZM825.91 91.1503C825.35 91.2803 825.39 92.1303 825.99 92.0703C828.03 91.8903 830.04 91.4303 832.01 90.8903C832.7 90.6803 832.43 89.5403 831.72 89.6503C830.94 89.7903 830.16 89.9103 829.38 90.0403C829.12 90.0803 828.96 90.2503 828.9 90.4403C827.91 90.6903 826.91 90.9203 825.91 91.1403V91.1503Z" fill="#D5212A"/>
<path d="M774.899 22.4402C771.889 21.7402 768.749 21.2502 765.689 20.8602C765.069 20.7902 764.909 21.7002 765.519 21.8302C768.529 22.5002 771.649 23.1002 774.719 23.4502C775.379 23.5202 775.549 22.5902 774.899 22.4402ZM772.609 20.0102C769.139 19.3002 765.589 18.7002 762.079 18.2602C761.539 18.1902 761.399 18.9902 761.929 19.1102C765.389 19.8902 768.929 20.5102 772.439 21.0102C773.099 21.1002 773.269 20.1402 772.619 20.0002L772.609 20.0102ZM743.149 71.3902C732.539 74.3602 721.789 78.0202 711.539 82.0402C715.199 70.9302 716.289 58.4702 718.669 47.0402C721.349 34.1902 724.219 21.3802 727.259 8.62024C727.259 8.57024 727.259 8.53023 727.259 8.49023C748.909 12.9802 770.589 17.4302 792.259 21.8702C792.259 21.8802 792.239 21.8902 792.239 21.9202C786.999 46.3302 780.539 70.9902 776.839 95.6902C766.989 87.5902 756.789 79.7202 746.409 72.2702C746.799 71.5902 746.179 70.5502 745.179 70.8202C744.999 70.8702 744.809 70.9202 744.609 70.9802C744.539 70.9102 744.459 70.8602 744.379 70.8002C743.799 70.3902 743.139 70.8602 743.129 71.3802L743.149 71.3902ZM734.509 70.4302C731.119 71.4502 727.659 72.6802 724.389 74.0402C723.919 74.2302 724.189 74.8702 724.659 74.7502C728.079 73.8502 731.589 72.7402 734.919 71.5202C735.629 71.2602 735.229 70.2202 734.509 70.4302ZM733.479 67.7902C734.179 67.4202 733.809 66.2802 733.039 66.6002C730.529 67.6502 728.169 68.5202 725.429 68.9002C724.859 68.9802 724.939 69.8302 725.519 69.8002C728.219 69.6402 731.079 69.0402 733.479 67.7902Z" fill="#FF9024"/>
<path d="M673.87 60.4102C674.71 57.8202 675.56 55.2202 676.32 52.6002C676.56 51.7702 675.21 51.5302 674.98 52.3702C674.29 54.9502 673.66 57.5502 673.06 60.1502C672.95 60.6202 673.72 60.8702 673.87 60.4102ZM677.77 54.7102C676.65 57.9002 675.85 61.2602 674.97 64.5302C674.88 64.8902 675.49 65.1002 675.62 64.7402C676.71 61.5302 677.9 58.3002 678.76 55.0202C678.9 54.4602 677.96 54.1502 677.77 54.7102ZM628.31 9.04016C628.21 9.78016 629.3 9.97015 629.44 9.24015C629.83 7.32015 630.41 5.30016 630.52 3.33016C630.56 2.52016 629.51 2.34016 629.28 3.12016C628.72 5.01016 628.6 7.11016 628.31 9.05016V9.04016ZM621.08 27.0702C623.54 14.2902 625.91 1.51015 628.18 -11.3098C628.27 -11.7698 628.09 -12.1098 627.8 -12.3398C646.01 -8.47984 664.24 -4.61984 682.46 -0.809841C685.38 -0.209841 688.29 0.390159 691.21 1.01016C685.68 24.7802 679.64 49.6401 677.94 74.0901C667.95 66.0201 657.67 58.0402 647.06 50.7702C647.12 50.7402 647.18 50.7102 647.24 50.6802C648.28 50.1302 647.33 48.3002 646.26 48.8302C635.7 54.1002 624.95 58.1602 613.75 61.7902C617.71 50.9402 618.91 38.3602 621.07 27.0702H621.08ZM626.78 12.1602C627.32 9.61016 628.2 6.77016 628.2 4.14016C628.2 3.67016 627.43 3.53016 627.25 3.98016C626.37 6.46016 626.25 9.43016 625.9 12.0102C625.82 12.5802 626.66 12.7202 626.78 12.1602Z" fill="#00ABC5"/>
<path d="M528.29 27.9299C530.5 26.9699 532.68 25.9599 534.92 25.0999C535.62 24.8299 535.16 23.7099 534.52 24.0399C532.39 25.1499 530.17 26.1299 528 27.1599C527.54 27.3799 527.8 28.1399 528.29 27.9299ZM546.21 28.6299C540.33 31.1199 534.44 33.5399 528.49 35.8499C523.48 37.8099 518.07 39.2899 513.32 41.8499C516.94 29.8099 518.82 16.9999 521.36 4.70988C523.98 -7.97012 526.59 -20.6801 529.21 -33.3701C532.08 -32.7501 534.97 -32.1401 537.84 -31.5201C555.62 -27.6901 573.43 -23.9001 591.22 -20.1101C588.63 -7.69012 586.39 4.81988 584 17.2699C581.62 29.6599 578.53 42.1799 577.05 54.7299C567.07 45.9899 557.5 36.7899 547.38 28.2099C546.86 27.7699 546.31 28.1499 546.19 28.6399L546.21 28.6299ZM534.93 29.2499C535.54 29.0699 535.32 28.0399 534.68 28.1599C531 28.8199 527.24 30.4199 524.11 32.4199C523.74 32.6699 524.08 33.3199 524.48 33.1199C527.91 31.4499 531.28 30.2899 534.93 29.2399V29.2499Z" fill="#FF9024"/>
<path d="M977.13 90.7397C977.43 89.7997 976.07 89.3596 975.82 90.3396C975.22 92.6896 974.39 95.0597 974.04 97.4697C973.98 97.9096 974.61 98.1397 974.81 97.7097C975.82 95.4997 976.36 93.0497 977.13 90.7397ZM979.63 95.2197C979.92 94.5797 978.98 93.8997 978.55 94.5197C976.95 96.8197 975.85 99.7096 975.22 102.42C975.09 103.02 976.04 103.33 976.27 102.75C977.28 100.15 978.48 97.7397 979.64 95.2197H979.63ZM987.75 61.2197C983.92 73.9496 981.37 87.2096 979.02 100.28C976.98 111.59 974.44 123.5 974.18 135.07C969.11 131.35 964.03 127.62 959.01 123.84C956.35 121.83 953.71 119.79 951.05 117.79C949.59 116.68 945.7 114.79 944.59 112.77C945.19 111.95 944.48 110.53 943.32 111.01C932.22 115.65 920.98 119.92 909.85 124.48C909.89 124.43 909.92 124.38 909.93 124.31C913.45 112.05 915.6 99.2696 918.26 86.8096C920.93 74.3096 924.02 61.8097 926.18 49.2297C926.2 49.0997 926.19 48.9896 926.18 48.8896C940.68 51.7696 955.17 54.6396 969.66 57.4896C975.73 58.6796 981.79 59.8496 987.86 61.0396C987.82 61.0997 987.77 61.1596 987.74 61.2496L987.75 61.2197Z" fill="#7CB302"/>
<path d="M455.86 5.36008C457.98 7.29008 460.12 9.63007 462.55 11.1401C463.02 11.4201 463.57 10.7201 463.23 10.3201C461.37 8.14008 458.72 6.40007 456.5 4.59007C455.99 4.18007 455.37 4.92008 455.85 5.36008H455.86ZM460.46 13.1501C461.02 13.6801 461.76 12.7801 461.23 12.2401C458.62 9.65008 455.94 7.04008 453.16 4.64008C452.8 4.35007 452.22 4.84007 452.55 5.20007C455.05 7.95007 457.76 10.5901 460.46 13.1601V13.1501ZM431.45 -54.4199C451.56 -49.8599 471.74 -45.5599 491.92 -41.2899C486.91 -16.4099 481.42 8.51008 477.26 33.5501C467.81 24.5201 458.94 15.0501 449.78 5.73008C449.3 5.23008 448.58 5.63007 448.4 6.17007C442.31 8.62008 436.36 11.4601 430.38 14.1801C428.67 14.9501 417.4 21.1501 414.35 21.6501C421.19 -3.34992 425.91 -29.1099 431.46 -54.4199H431.45ZM446.58 -44.7899C443.68 -45.4799 441.03 -46.5799 438.31 -47.7699C437.82 -47.9899 437.51 -47.2999 437.96 -47.0299C440.55 -45.4599 443.47 -44.4499 446.39 -43.6699C447.09 -43.4799 447.29 -44.6299 446.58 -44.7899ZM435.16 -49.9099C438.18 -48.8199 441.91 -47.4399 445.12 -47.3299C445.63 -47.3299 445.67 -48.0599 445.28 -48.2499C443.87 -48.9699 442.23 -49.2299 440.71 -49.5999C438.95 -50.0099 437.22 -50.4599 435.43 -50.7299C434.97 -50.7999 434.7 -50.0899 435.17 -49.9099H435.16Z" fill="#7CB302"/>
<path d="M825.91 91.1595C826.91 90.9395 827.909 90.7095 828.899 90.4595C828.959 90.2695 829.11 90.0895 829.38 90.0595C830.16 89.9195 830.94 89.7995 831.72 89.6695C832.43 89.5595 832.69 90.7095 832.01 90.9095C830.05 91.4495 828.029 91.9095 825.989 92.0895C825.379 92.1495 825.34 91.2995 825.91 91.1695V91.1595Z" fill="black"/>
<path d="M821.46 96.32C825.91 95.03 830.03 93.3 834.33 91.6C834.94 91.37 835.44 92.2899 834.87 92.6199C830.93 94.8999 826.1 96.2999 821.62 97.0299C821.22 97.0999 821.06 96.44 821.46 96.32Z" fill="black"/>
<path d="M774.9 22.4403C775.55 22.5903 775.39 23.5303 774.72 23.4503C771.65 23.0903 768.53 22.5003 765.52 21.8303C764.91 21.7003 765.06 20.7903 765.69 20.8603C768.75 21.2603 771.89 21.7503 774.9 22.4403Z" fill="black"/>
<path d="M772.611 20.01C773.261 20.15 773.101 21.11 772.431 21.02C768.931 20.52 765.381 19.89 761.921 19.12C761.391 19 761.521 18.2 762.071 18.27C765.581 18.7 769.141 19.31 772.601 20.02L772.611 20.01Z" fill="black"/>
<path d="M734.92 71.5104C731.59 72.7304 728.08 73.8504 724.66 74.7404C724.19 74.8604 723.92 74.2204 724.39 74.0304C727.66 72.6704 731.12 71.4504 734.51 70.4204C735.22 70.2104 735.63 71.2504 734.92 71.5104Z" fill="black"/>
<path d="M733.03 66.5998C733.8 66.2698 734.17 67.4198 733.47 67.7898C731.07 69.0398 728.2 69.6398 725.51 69.7998C724.93 69.8398 724.85 68.9798 725.42 68.8998C728.15 68.5198 730.51 67.6598 733.03 66.5998Z" fill="black"/>
<path d="M674.97 64.5298C675.85 61.2598 676.65 57.8998 677.77 54.7098C677.96 54.1498 678.9 54.4598 678.76 55.0198C677.91 58.2998 676.71 61.5298 675.62 64.7398C675.49 65.0998 674.88 64.8998 674.97 64.5298Z" fill="black"/>
<path d="M676.32 52.5999C675.55 55.2199 674.71 57.8199 673.87 60.4099C673.72 60.8699 672.95 60.6199 673.06 60.1499C673.66 57.5499 674.29 54.9399 674.98 52.3699C675.21 51.5299 676.56 51.7799 676.32 52.5999Z" fill="black"/>
<path d="M630.519 3.32994C630.409 5.29994 629.829 7.30994 629.439 9.23994C629.299 9.96994 628.209 9.77994 628.309 9.03994C628.609 7.09994 628.729 5.00994 629.279 3.10994C629.509 2.33994 630.559 2.51994 630.519 3.31994V3.32994Z" fill="black"/>
<path d="M628.199 4.13976C628.199 6.76976 627.319 9.60976 626.779 12.1598C626.659 12.7198 625.809 12.5698 625.899 12.0098C626.249 9.42976 626.379 6.45976 627.249 3.97976C627.419 3.53976 628.199 3.66976 628.199 4.13976Z" fill="black"/>
<path d="M534.92 25.0998C532.69 25.9598 530.5 26.9798 528.29 27.9298C527.81 28.1398 527.55 27.3798 528 27.1598C530.17 26.1298 532.39 25.1398 534.52 24.0398C535.16 23.6998 535.62 24.8298 534.92 25.0998Z" fill="black"/>
<path d="M524.11 32.4201C527.25 30.4201 531.01 28.8201 534.68 28.1601C535.31 28.0401 535.54 29.0701 534.93 29.2501C531.28 30.3001 527.91 31.4601 524.48 33.1301C524.08 33.3301 523.75 32.6801 524.11 32.4301V32.4201Z" fill="black"/>
<path d="M456.51 4.59036C458.73 6.40036 461.38 8.14036 463.24 10.3204C463.58 10.7204 463.02 11.4204 462.56 11.1404C460.13 9.63036 457.99 7.29036 455.87 5.36036C455.39 4.92036 456.01 4.18036 456.52 4.59036H456.51Z" fill="black"/>
<path d="M453.16 4.63016C455.94 7.04016 458.62 9.64017 461.23 12.2302C461.76 12.7702 461.02 13.6702 460.46 13.1402C457.76 10.5702 455.05 7.93017 452.55 5.18017C452.22 4.82017 452.81 4.33017 453.16 4.62017V4.63016Z" fill="black"/>
<path d="M431.45 -54.4204C425.89 -29.1104 421.18 -3.35043 414.34 21.6496C417.39 21.1496 428.67 14.9496 430.37 14.1796C436.35 11.4696 442.31 8.61957 448.39 6.16957C448.56 5.62957 449.28 5.22958 449.77 5.72958C458.93 15.0496 467.8 24.5196 477.25 33.5496C481.42 8.50957 486.91 -16.4104 491.91 -41.2904C471.74 -45.5604 451.55 -49.8604 431.44 -54.4204H431.45ZM727.27 8.47958C727.27 8.47958 727.27 8.55957 727.27 8.60957C724.23 21.3696 721.36 34.1796 718.68 47.0296C716.3 58.4596 715.21 70.9196 711.55 82.0296C721.8 78.0096 732.55 74.3496 743.16 71.3796C743.16 70.8496 743.83 70.3896 744.41 70.7996C744.48 70.8496 744.57 70.9096 744.64 70.9796C744.84 70.9196 745.02 70.8696 745.21 70.8196C746.21 70.5496 746.82 71.5896 746.44 72.2696C756.81 79.7196 767.01 87.5796 776.87 95.6896C780.57 70.9896 787.03 46.3296 792.27 21.9196C792.27 21.8896 792.29 21.8796 792.29 21.8696C770.61 17.4296 748.94 12.9796 727.29 8.48957L727.27 8.47958ZM613.76 61.7896C624.95 58.1696 635.71 54.0996 646.27 48.8296C647.34 48.2996 648.29 50.1296 647.25 50.6796C647.19 50.7096 647.13 50.7396 647.07 50.7696C657.67 58.0396 667.95 66.0196 677.95 74.0896C679.66 49.6396 685.69 24.7896 691.22 1.00957C688.31 0.399574 685.39 -0.200424 682.47 -0.810425C664.25 -4.62043 646.02 -8.47043 627.81 -12.3404C628.1 -12.1104 628.28 -11.7704 628.19 -11.3104C625.91 1.49957 623.55 14.2896 621.09 27.0696C618.93 38.3596 617.72 50.9396 613.77 61.7896H613.76ZM547.4 28.1996C557.52 36.7796 567.08 45.9896 577.07 54.7196C578.54 42.1696 581.64 29.6496 584.02 17.2596C586.41 4.80958 588.65 -7.70042 591.24 -20.1204C573.45 -23.9104 555.64 -27.7004 537.86 -31.5304C534.99 -32.1504 532.1 -32.7604 529.23 -33.3804C526.61 -20.6804 524 -7.98043 521.38 4.69957C518.84 16.9896 516.96 29.8096 513.34 41.8396C518.09 39.2796 523.5 37.7996 528.51 35.8396C534.46 33.5296 540.36 31.1096 546.23 28.6196C546.34 28.1196 546.9 27.7496 547.42 28.1896L547.4 28.1996ZM1011.13 143.19C1021.36 137.62 1033.3 133.56 1044.29 129.75C1045.04 129.49 1045.58 130.04 1045.64 130.65C1055.54 136.73 1064.98 144 1073.77 151.62C1074.85 140.32 1077.51 128.89 1079.36 117.76C1081.46 105.16 1083.36 92.4996 1085.73 79.9496C1065.61 76.0796 1045.49 72.1996 1025.37 68.2896C1017.95 92.9196 1014.16 117.68 1011.11 143.15C1011.11 143.18 1011.11 143.2 1011.08 143.23C1011.11 143.23 1011.11 143.21 1011.13 143.2V143.19ZM951.05 117.77C953.71 119.78 956.35 121.82 959.01 123.82C964.03 127.6 969.11 131.33 974.18 135.05C974.44 123.49 976.98 111.57 979.02 100.26C981.37 87.1896 983.91 73.9396 987.75 61.1996C987.78 61.1096 987.83 61.0496 987.87 60.9896C981.8 59.7996 975.74 58.6296 969.67 57.4396C955.18 54.5896 940.69 51.7196 926.19 48.8396C926.21 48.9396 926.22 49.0496 926.19 49.1796C924.03 61.7696 920.94 74.2596 918.27 86.7596C915.61 99.2196 913.46 112 909.94 124.26C909.93 124.34 909.89 124.39 909.86 124.43C920.99 119.87 932.22 115.6 943.33 110.96C944.48 110.48 945.2 111.91 944.6 112.72C945.71 114.74 949.6 116.63 951.06 117.74L951.05 117.77ZM557.79 -29.6904C653.29 -9.17043 748.92 10.7696 844.67 30.1196C940.85 49.5596 1037.16 68.3896 1133.56 86.6596C1135.08 86.9496 1134.67 89.2996 1133.15 89.0096C1118.07 86.1496 1102.99 83.2596 1087.91 80.3796C1086.02 92.9996 1083.65 105.57 1081.48 118.14C1079.31 130.7 1078.02 143.97 1074.5 156.21C1074.31 156.91 1073.38 156.73 1073.41 156.02C1073.45 155.32 1073.53 154.63 1073.58 153.92C1073.35 153.93 1073.11 153.88 1072.87 153.7C1063.52 146.36 1054.01 139.22 1044.73 131.82C1034.27 136.44 1022.82 141.55 1011.76 144.37C1011.28 144.5 1010.8 144.04 1010.83 143.63C1010.35 143.99 1009.46 143.8 1009.49 143.1C1010.44 117.73 1016.03 92.1396 1023.32 67.8996C1012.08 65.7196 1000.83 63.5496 989.59 61.3396C989.59 61.4096 989.59 61.4596 989.59 61.5396C986.82 74.1596 983.6 86.6296 981.27 99.3696C978.94 112.01 978.17 125.13 975.34 137.64C975.2 138.27 974.2 138.3 974.14 137.64C973.97 137.61 973.8 137.55 973.63 137.43C966.52 132.35 959.52 127.11 952.61 121.77C950.4 120.06 944.29 116.97 943.17 113.59C932.28 118.42 921.11 122.9 909.69 126.27C908.73 126.55 908.22 125.27 909.05 124.83C908.74 124.75 908.49 124.49 908.55 124.05C910.33 111.44 913.58 98.8996 916.23 86.4396C918.89 73.9396 921.17 61.2596 924.33 48.8896C924.37 48.7496 924.43 48.6396 924.5 48.5396C913.48 46.3396 902.46 44.1496 891.44 41.9396C889.07 54.5896 886.52 67.1996 884.05 79.8296C881.59 92.3896 879.88 105.48 876.31 117.78C876.18 118.19 875.81 118.33 875.5 118.24C875.2 118.32 874.87 118.27 874.58 117.99C865.38 109.04 854.46 101.6 845.6 92.3996C845.54 92.4596 845.49 92.5196 845.39 92.5696C834.6 97.9896 823.01 102.71 810.98 104.36C810.31 104.45 810.07 103.42 810.72 103.2C810.79 103.19 810.86 103.16 810.95 103.13C810.94 103.11 810.93 103.09 810.94 103.06C811.91 90.5196 815.63 77.6896 818.1 65.3596C820.55 53.1196 823.02 40.8796 825.51 28.6496C815.16 26.5396 804.81 24.4496 794.46 22.3296C789.27 47.1496 785.13 72.7296 778.32 97.1596C778.35 97.2896 778.36 97.4096 778.34 97.5396C778.31 97.7096 778.23 97.8896 778.09 98.0296C777.84 98.9196 776.63 98.8196 776.52 98.0196C765.71 90.1296 755.05 81.7896 744.82 73.1496C733.5 77.5196 721.51 81.3096 709.82 84.3896C708.87 84.6396 708.34 83.3196 709.27 82.9496C709.62 82.8096 709.97 82.6796 710.32 82.5396C710.56 70.6896 714.2 58.2896 716.55 46.6996C719.13 33.8296 721.97 21.0196 724.99 8.25957C725.02 8.17957 725.05 8.11957 725.08 8.05957C714.51 5.86957 703.95 3.69957 693.38 1.48957C690.51 13.8196 687.86 26.1896 685.54 38.6296C683.22 51.0696 681.79 63.7696 679.09 76.1296C678.93 76.8496 678.06 76.7596 677.86 76.1996C677.59 76.2596 677.3 76.2196 677.02 76.0296C666.33 68.2396 655.65 60.1596 645.61 51.5496C635.3 56.8596 624.3 61.1696 612.99 63.6896C612.41 63.8096 612.09 63.2396 612.18 62.7496C612.19 62.6696 612.21 62.6096 612.25 62.5296C612.72 50.3096 616.74 37.4496 619.04 25.4296C621.41 13.0896 623.69 0.719574 625.89 -11.6604C625.98 -12.1604 626.31 -12.4304 626.69 -12.5204C615.56 -14.8804 604.44 -17.2504 593.31 -19.6104C591.09 -7.15043 588.55 5.25957 586.15 17.6896C583.69 30.3896 581.89 43.5096 578.44 55.9696C578.3 56.4896 577.84 56.6396 577.45 56.5196C577.1 56.9496 576.47 57.1496 575.94 56.6896C566.26 48.2496 556.44 39.7996 547.52 30.5496C547.43 30.6196 547.36 30.6796 547.26 30.7296C536.51 35.3796 524.5 41.7496 512.87 43.4996C512.84 43.4996 512.8 43.4996 512.78 43.4996C512.4 43.9796 511.58 43.7696 511.66 43.0296C512.99 30.0796 516.51 17.1196 519.14 4.36958C521.77 -8.35043 524.39 -21.0804 527.01 -33.7904C516.04 -36.1404 505.05 -38.4704 494.05 -40.7804C489.15 -15.4504 484.69 10.1296 478.88 35.2796C479.44 36.2396 478.24 37.5396 477.27 36.6796C467.31 28.0396 457.46 18.4496 449.33 8.00957C442.63 11.3396 435.69 14.2596 428.85 17.2996C424.95 19.0296 417.98 23.8796 413.65 23.0596C413.47 23.0296 413.29 22.8896 413.22 22.7096C413.22 22.6996 413.22 22.6796 413.22 22.6696C412.87 22.5796 412.59 22.2896 412.68 21.8196C416.98 -3.89043 423.6 -29.4004 429.25 -54.8604C417.71 -57.5404 406.22 -60.2604 394.75 -63.1004C393.57 -63.3804 393.86 -65.2204 395.08 -64.9804C449.51 -54.3204 503.56 -41.3404 557.79 -29.6904ZM812.07 102.76C823.22 99.2196 834.11 95.7996 844.61 90.4696C845.38 90.0796 845.97 90.6896 846.02 91.3796C846.06 91.3996 846.11 91.4096 846.16 91.4296C857.01 97.1996 866.51 107.02 875.29 115.6C876.67 103.51 879.73 91.4096 882 79.4696C884.41 66.8196 886.73 54.1296 889.25 41.4896C868.71 37.3796 848.17 33.2496 827.64 29.0796C825.05 41.7196 822.44 54.3596 819.83 66.9896C817.39 78.7696 815.82 91.3296 812.05 102.76H812.07Z" fill="black"/>
</g>
<defs>
<clipPath id="clip0_766_10">
<rect width="211.51" height="431.2" fill="white" transform="translate(850 397)"/>
</clipPath>
<clipPath id="clip1_766_10">
<rect width="740.52" height="221.65" fill="white" transform="translate(394 -65)"/>
</clipPath>
</defs>
</svg>
