<svg width="468" height="350" viewBox="0 0 468 350" fill="none" xmlns="http://www.w3.org/2000/svg">
<path d="M208.275 55.46L207.667 60.457H212.588L213.196 55.46C213.234 55.194 213.348 55.08 213.614 55.08H214.773C215.02 55.08 215.096 55.194 215.058 55.46L213.557 67.62C213.519 67.886 213.443 68 213.196 68H212.037C211.771 68 211.676 67.867 211.714 67.62L212.398 62.034H207.477L206.774 67.62C206.736 67.867 206.66 68 206.394 68H205.235C204.988 68 204.874 67.886 204.912 67.62L206.413 55.46C206.451 55.194 206.565 55.08 206.812 55.08H207.971C208.237 55.08 208.313 55.194 208.275 55.46ZM216.524 65.549L217.075 61.027C217.265 59.469 218.405 58.424 221.16 58.424C223.554 58.424 224.694 59.317 224.694 60.685C224.694 60.799 224.694 60.856 224.675 61.027L224.124 65.549C223.934 67.107 222.813 68.152 220.058 68.152C217.645 68.152 216.505 67.24 216.505 65.872C216.505 65.777 216.505 65.72 216.524 65.549ZM222.338 65.397L222.851 61.331C222.889 61.084 222.889 61.046 222.889 60.989C222.889 60.286 222.281 59.906 221.027 59.906C219.602 59.906 218.975 60.362 218.88 61.179L218.348 65.397C218.329 65.53 218.329 65.549 218.329 65.606C218.329 66.328 218.88 66.67 220.191 66.67C221.616 66.67 222.243 66.214 222.338 65.397ZM232.171 58.443C232.437 58.443 232.551 58.538 232.513 58.804L232.399 59.697C232.361 59.963 232.247 60.039 231.981 60.058C230.632 60.153 229.397 60.875 228.903 61.255L228.124 67.62C228.086 67.886 227.991 68 227.725 68H226.604C226.357 68 226.262 67.886 226.3 67.62L227.383 58.937C227.421 58.69 227.516 58.576 227.763 58.576H228.789C229.036 58.576 229.131 58.69 229.112 58.937L229.055 59.754C229.644 59.241 230.727 58.443 232.171 58.443ZM238.718 67.05C238.11 67.468 237.065 68.152 235.469 68.152C233.854 68.152 233.018 67.316 233.018 66.005C233.018 65.872 233.037 65.701 233.056 65.568L233.626 61.008C233.816 59.45 234.652 58.424 236.571 58.424C238.129 58.424 239.155 59.127 239.649 59.564L239.763 58.956C239.82 58.69 239.896 58.576 240.162 58.576H241.169C241.359 58.576 241.511 58.671 241.473 58.956L240.409 67.62C240.371 67.886 240.257 68 240.01 68H238.984C238.775 68 238.661 67.905 238.68 67.62L238.718 67.05ZM235.393 61.274L234.88 65.302C234.861 65.435 234.861 65.473 234.861 65.568C234.861 66.119 235.203 66.537 236.153 66.537C237.331 66.537 238.395 65.872 238.851 65.568L239.421 61.027C239.041 60.704 238.167 60.039 236.97 60.039C235.906 60.039 235.469 60.609 235.393 61.274ZM245.924 58.956L245.734 60.476C245.696 60.723 245.601 60.837 245.335 60.837H244.195C243.948 60.837 243.853 60.723 243.891 60.476L244.081 58.956C244.119 58.69 244.233 58.576 244.48 58.576H245.62C245.886 58.576 245.962 58.69 245.924 58.956ZM245.031 66.119L244.86 67.639C244.822 67.905 244.708 68 244.461 68H243.321C243.055 68 242.979 67.905 243.017 67.639L243.188 66.119C243.207 65.872 243.34 65.758 243.606 65.758H244.746C244.993 65.758 245.05 65.872 245.031 66.119ZM252.543 55.08H260.523C260.789 55.08 260.903 55.175 260.865 55.441L260.751 56.277C260.732 56.391 260.675 56.562 260.618 56.657L254.519 67.62C254.405 67.829 254.291 68 254.044 68H252.676C252.41 68 252.315 67.886 252.467 67.62L258.566 56.657H252.372C252.125 56.657 251.992 56.562 252.03 56.296L252.144 55.441C252.182 55.175 252.296 55.08 252.543 55.08ZM264.052 58.956L263.862 60.476C263.824 60.723 263.729 60.837 263.463 60.837H262.323C262.076 60.837 261.981 60.723 262.019 60.476L262.209 58.956C262.247 58.69 262.361 58.576 262.608 58.576H263.748C264.014 58.576 264.09 58.69 264.052 58.956ZM263.159 66.119L262.988 67.639C262.95 67.905 262.836 68 262.589 68H261.449C261.183 68 261.107 67.905 261.145 67.639L261.316 66.119C261.335 65.872 261.468 65.758 261.734 65.758H262.874C263.121 65.758 263.178 65.872 263.159 66.119ZM268.696 60.476H270.14C271.85 60.476 272.401 59.925 272.553 58.88L272.667 58.082C272.686 57.93 272.705 57.854 272.705 57.759C272.705 56.942 272.173 56.467 270.691 56.467C269.057 56.467 268.43 57.056 268.354 58.082L268.335 58.329C268.316 58.576 268.183 58.69 267.936 58.69H266.834C266.568 58.69 266.511 58.557 266.53 58.329L266.568 57.835C266.682 56.296 267.632 54.928 270.881 54.928C273.674 54.928 274.567 56.03 274.567 57.379C274.567 57.531 274.548 57.702 274.529 57.892L274.358 59.184C274.225 60.229 273.807 60.856 272.572 61.198C273.655 61.54 274.016 62.186 274.016 63.003C274.016 63.174 273.997 63.345 273.978 63.516L273.75 65.321C273.56 66.879 272.629 68.152 269.399 68.152C266.53 68.152 265.561 67.031 265.561 65.644C265.561 65.549 265.561 65.454 265.58 65.245L265.637 64.751C265.675 64.504 265.789 64.39 266.036 64.39H267.138C267.442 64.39 267.461 64.542 267.442 64.751L267.423 64.998C267.404 65.169 267.404 65.245 267.404 65.321C267.404 66.138 268.012 66.613 269.513 66.613C271.166 66.613 271.831 66.024 271.964 64.998L272.135 63.611C272.154 63.421 272.154 63.326 272.154 63.25C272.154 62.452 271.603 62.015 270.121 62.015H268.506C268.259 62.015 268.164 61.882 268.183 61.654L268.278 60.837C268.316 60.571 268.43 60.476 268.696 60.476ZM276.275 65.15L277.168 57.854C277.358 56.296 278.327 54.928 281.576 54.928C284.407 54.928 285.452 56.087 285.452 57.455C285.452 57.588 285.433 57.759 285.414 57.93L284.54 65.226C284.35 66.784 283.343 68.152 280.113 68.152C277.263 68.152 276.237 67.012 276.237 65.644C276.237 65.511 276.256 65.302 276.275 65.15ZM282.697 64.922L283.533 58.253C283.552 58.082 283.552 57.968 283.552 57.873C283.552 56.999 282.963 56.505 281.462 56.505C279.79 56.505 279.125 57.132 278.992 58.158L278.175 64.751C278.156 64.903 278.118 65.112 278.118 65.207C278.118 66.081 278.726 66.575 280.246 66.575C281.918 66.575 282.564 65.948 282.697 64.922ZM296.609 67.05C296.001 67.468 294.956 68.152 293.36 68.152C291.745 68.152 290.909 67.316 290.909 66.005C290.909 65.872 290.928 65.701 290.947 65.568L291.517 61.008C291.707 59.45 292.543 58.424 294.462 58.424C296.02 58.424 297.046 59.127 297.54 59.564L297.654 58.956C297.711 58.69 297.787 58.576 298.053 58.576H299.06C299.25 58.576 299.402 58.671 299.364 58.956L298.3 67.62C298.262 67.886 298.148 68 297.901 68H296.875C296.666 68 296.552 67.905 296.571 67.62L296.609 67.05ZM293.284 61.274L292.771 65.302C292.752 65.435 292.752 65.473 292.752 65.568C292.752 66.119 293.094 66.537 294.044 66.537C295.222 66.537 296.286 65.872 296.742 65.568L297.312 61.027C296.932 60.704 296.058 60.039 294.861 60.039C293.797 60.039 293.36 60.609 293.284 61.274ZM302.827 66.119L302.637 67.639C302.599 67.905 302.504 68 302.257 68H301.117C300.87 68 300.775 67.905 300.813 67.639L300.984 66.119C301.003 65.872 301.136 65.758 301.383 65.758H302.542C302.789 65.758 302.865 65.872 302.827 66.119ZM305.064 67.62L306.147 58.937C306.185 58.69 306.28 58.576 306.527 58.576H307.553C307.8 58.576 307.876 58.69 307.857 58.937L307.819 59.526C308.37 59.089 309.339 58.424 310.954 58.424C312.132 58.424 313.006 58.937 313.272 59.716C313.804 59.317 314.773 58.424 316.635 58.424C318.174 58.424 319.105 59.279 319.105 60.495C319.105 60.609 319.105 60.685 319.086 60.856L318.25 67.62C318.212 67.886 318.098 68 317.851 68H316.749C316.559 68 316.407 67.886 316.445 67.62L317.205 61.388C317.224 61.236 317.243 61.122 317.243 61.027C317.243 60.419 316.844 60.039 315.97 60.039C314.754 60.039 313.785 60.685 313.386 61.008L312.569 67.62C312.531 67.886 312.417 68 312.17 68H311.068C310.859 68 310.726 67.886 310.764 67.62L311.505 61.502C311.524 61.331 311.543 61.103 311.543 61.027C311.543 60.419 311.144 60.039 310.289 60.039C309.092 60.039 308.123 60.685 307.686 61.008L306.888 67.62C306.85 67.886 306.755 68 306.489 68H305.368C305.159 68 305.026 67.886 305.064 67.62ZM322.717 66.119L322.527 67.639C322.489 67.905 322.394 68 322.147 68H321.007C320.76 68 320.665 67.905 320.703 67.639L320.874 66.119C320.893 65.872 321.026 65.758 321.273 65.758H322.432C322.679 65.758 322.755 65.872 322.717 66.119ZM334.739 67.05C334.131 67.468 333.086 68.152 331.49 68.152C329.875 68.152 329.039 67.316 329.039 66.005C329.039 65.872 329.058 65.701 329.077 65.568L329.647 61.008C329.837 59.45 330.673 58.424 332.592 58.424C334.15 58.424 335.176 59.127 335.67 59.564L335.784 58.956C335.841 58.69 335.917 58.576 336.183 58.576H337.19C337.38 58.576 337.532 58.671 337.494 58.956L336.43 67.62C336.392 67.886 336.278 68 336.031 68H335.005C334.796 68 334.682 67.905 334.701 67.62L334.739 67.05ZM331.414 61.274L330.901 65.302C330.882 65.435 330.882 65.473 330.882 65.568C330.882 66.119 331.224 66.537 332.174 66.537C333.352 66.537 334.416 65.872 334.872 65.568L335.442 61.027C335.062 60.704 334.188 60.039 332.991 60.039C331.927 60.039 331.49 60.609 331.414 61.274ZM345.059 55.08H351.652C351.88 55.08 352.013 55.156 351.975 55.441L351.88 56.296C351.842 56.562 351.728 56.657 351.481 56.657H346.408L345.99 59.925H347.719C350.265 59.925 351.462 60.951 351.462 62.376C351.462 62.471 351.443 62.661 351.424 62.851L351.139 65.264C350.949 66.822 350.056 68.171 346.807 68.171C343.938 68.171 343.064 67.031 343.064 65.663C343.064 65.53 343.064 65.454 343.083 65.264L343.14 64.77C343.178 64.504 343.273 64.39 343.52 64.39H344.641C344.888 64.39 344.964 64.485 344.945 64.77L344.926 64.979C344.907 65.15 344.907 65.188 344.907 65.34C344.907 66.138 345.42 66.632 346.94 66.632C348.612 66.632 349.163 66.043 349.296 64.998L349.524 63.193C349.562 62.908 349.562 62.813 349.562 62.737C349.562 61.996 349.068 61.464 347.529 61.464H344.299C344.033 61.464 343.957 61.331 343.995 61.084L344.679 55.46C344.717 55.194 344.812 55.08 345.059 55.08ZM356.102 58.956L355.912 60.476C355.874 60.723 355.779 60.837 355.513 60.837H354.373C354.126 60.837 354.031 60.723 354.069 60.476L354.259 58.956C354.297 58.69 354.411 58.576 354.658 58.576H355.798C356.064 58.576 356.14 58.69 356.102 58.956ZM355.209 66.119L355.038 67.639C355 67.905 354.886 68 354.639 68H353.499C353.233 68 353.157 67.905 353.195 67.639L353.366 66.119C353.385 65.872 353.518 65.758 353.784 65.758H354.924C355.171 65.758 355.228 65.872 355.209 66.119ZM357.934 65.15L358.827 57.854C359.017 56.296 359.986 54.928 363.235 54.928C366.066 54.928 367.111 56.087 367.111 57.455C367.111 57.588 367.092 57.759 367.073 57.93L366.199 65.226C366.009 66.784 365.002 68.152 361.772 68.152C358.922 68.152 357.896 67.012 357.896 65.644C357.896 65.511 357.915 65.302 357.934 65.15ZM364.356 64.922L365.192 58.253C365.211 58.082 365.211 57.968 365.211 57.873C365.211 56.999 364.622 56.505 363.121 56.505C361.449 56.505 360.784 57.132 360.651 58.158L359.834 64.751C359.815 64.903 359.777 65.112 359.777 65.207C359.777 66.081 360.385 66.575 361.905 66.575C363.577 66.575 364.223 65.948 364.356 64.922ZM368.788 65.15L369.681 57.854C369.871 56.296 370.84 54.928 374.089 54.928C376.92 54.928 377.965 56.087 377.965 57.455C377.965 57.588 377.946 57.759 377.927 57.93L377.053 65.226C376.863 66.784 375.856 68.152 372.626 68.152C369.776 68.152 368.75 67.012 368.75 65.644C368.75 65.511 368.769 65.302 368.788 65.15ZM375.21 64.922L376.046 58.253C376.065 58.082 376.065 57.968 376.065 57.873C376.065 56.999 375.476 56.505 373.975 56.505C372.303 56.505 371.638 57.132 371.505 58.158L370.688 64.751C370.669 64.903 370.631 65.112 370.631 65.207C370.631 66.081 371.239 66.575 372.759 66.575C374.431 66.575 375.077 65.948 375.21 64.922ZM384.81 58.576H385.836C386.083 58.576 386.178 58.69 386.159 58.956L386.102 59.545C386.71 59.127 387.774 58.424 389.351 58.424C390.966 58.424 391.802 59.26 391.802 60.59C391.802 60.723 391.802 60.799 391.783 61.008L391.213 65.568C391.023 67.126 390.187 68.152 388.268 68.152C386.786 68.152 385.722 67.506 385.228 67.088L384.696 71.496C384.658 71.762 384.563 71.876 384.297 71.876H383.195C382.986 71.876 382.834 71.8 382.872 71.496L384.43 58.956C384.468 58.69 384.563 58.576 384.81 58.576ZM389.427 65.302L389.921 61.35C389.94 61.217 389.959 61.103 389.959 61.008C389.959 60.457 389.598 60.039 388.686 60.039C387.47 60.039 386.425 60.704 385.988 61.027L385.418 65.568C385.779 65.872 386.653 66.537 387.869 66.537C388.952 66.537 389.351 65.967 389.427 65.302ZM395.34 66.119L395.15 67.639C395.112 67.905 395.017 68 394.77 68H393.63C393.383 68 393.288 67.905 393.326 67.639L393.497 66.119C393.516 65.872 393.649 65.758 393.896 65.758H395.055C395.302 65.758 395.378 65.872 395.34 66.119ZM397.578 67.62L398.661 58.937C398.699 58.69 398.794 58.576 399.041 58.576H400.067C400.314 58.576 400.39 58.69 400.371 58.937L400.333 59.526C400.884 59.089 401.853 58.424 403.468 58.424C404.646 58.424 405.52 58.937 405.786 59.716C406.318 59.317 407.287 58.424 409.149 58.424C410.688 58.424 411.619 59.279 411.619 60.495C411.619 60.609 411.619 60.685 411.6 60.856L410.764 67.62C410.726 67.886 410.612 68 410.365 68H409.263C409.073 68 408.921 67.886 408.959 67.62L409.719 61.388C409.738 61.236 409.757 61.122 409.757 61.027C409.757 60.419 409.358 60.039 408.484 60.039C407.268 60.039 406.299 60.685 405.9 61.008L405.083 67.62C405.045 67.886 404.931 68 404.684 68H403.582C403.373 68 403.24 67.886 403.278 67.62L404.019 61.502C404.038 61.331 404.057 61.103 404.057 61.027C404.057 60.419 403.658 60.039 402.803 60.039C401.606 60.039 400.637 60.685 400.2 61.008L399.402 67.62C399.364 67.886 399.269 68 399.003 68H397.882C397.673 68 397.54 67.886 397.578 67.62ZM415.231 66.119L415.041 67.639C415.003 67.905 414.908 68 414.661 68H413.521C413.274 68 413.179 67.905 413.217 67.639L413.388 66.119C413.407 65.872 413.54 65.758 413.787 65.758H414.946C415.193 65.758 415.269 65.872 415.231 66.119Z" fill="black"/>
<path d="M175 50C176.896 50 178.664 50.4831 180.305 51.4492C181.891 52.3607 183.148 53.6094 184.078 55.1953C185.026 56.8359 185.5 58.6042 185.5 60.5C185.5 62.3958 185.026 64.1641 184.078 65.8047C183.148 67.3906 181.891 68.6484 180.305 69.5781C178.664 70.526 176.896 71 175 71C173.104 71 171.336 70.526 169.695 69.5781C168.109 68.6484 166.861 67.3906 165.949 65.8047C164.983 64.1641 164.5 62.3958 164.5 60.5C164.5 58.6042 164.983 56.8359 165.949 55.1953C166.861 53.6094 168.109 52.3607 169.695 51.4492C171.336 50.4831 173.104 50 175 50ZM175 51.75C173.414 51.75 171.938 52.151 170.57 52.9531C169.258 53.7188 168.219 54.7578 167.453 56.0703C166.651 57.4375 166.25 58.9141 166.25 60.5C166.25 62.0859 166.651 63.5625 167.453 64.9297C168.219 66.2422 169.258 67.2812 170.57 68.0469C171.938 68.849 173.414 69.25 175 69.25C176.586 69.25 178.062 68.849 179.43 68.0469C180.742 67.2812 181.781 66.2422 182.547 64.9297C183.349 63.5625 183.75 62.0859 183.75 60.5C183.75 58.9141 183.349 57.4375 182.547 56.0703C181.781 54.7578 180.742 53.7188 179.43 52.9531C178.062 52.151 176.586 51.75 175 51.75ZM174.125 53.5H175.875V59.625H180.25V61.375H174.125V53.5Z" fill="black"/>
<path d="M209.738 104.193H207.325L206.774 108.62C206.736 108.886 206.66 109 206.394 109H205.235C204.988 109 204.874 108.867 204.912 108.62L206.413 96.46C206.451 96.194 206.565 96.08 206.812 96.08H210.612C213.557 96.08 214.621 97.296 214.621 98.759C214.621 98.835 214.621 98.911 214.583 99.253L214.355 101.362C214.165 103.034 213.063 104.193 209.738 104.193ZM210.517 97.657H208.142L207.534 102.616H209.871C211.619 102.616 212.417 102.084 212.55 101.058L212.74 99.5C212.759 99.329 212.759 99.196 212.759 99.12C212.759 98.17 212.17 97.657 210.517 97.657ZM221.294 108.639L221.332 108.069C220.781 108.506 219.774 109.152 218.216 109.152C216.639 109.152 215.746 108.297 215.746 107.062C215.746 106.948 215.746 106.891 215.765 106.739L216.601 99.956C216.639 99.69 216.753 99.576 217 99.576H218.102C218.292 99.576 218.444 99.652 218.406 99.956L217.627 106.283C217.608 106.435 217.608 106.492 217.608 106.587C217.608 107.176 217.969 107.537 218.881 107.537C220.059 107.537 221.028 106.91 221.484 106.587L222.282 99.956C222.32 99.69 222.434 99.576 222.681 99.576H223.802C224.068 99.576 224.144 99.709 224.106 99.956L223.023 108.639C222.985 108.905 222.89 109 222.624 109H221.617C221.37 109 221.275 108.905 221.294 108.639ZM227.113 99.576H228.139C228.386 99.576 228.481 99.69 228.462 99.937L228.424 100.545C229.013 100.089 230.096 99.424 231.654 99.424C233.193 99.424 234.105 100.298 234.105 101.533C234.105 101.628 234.105 101.761 234.086 101.951L233.269 108.62C233.231 108.886 233.117 109 232.851 109H231.768C231.559 109 231.426 108.924 231.464 108.62L232.224 102.388C232.243 102.255 232.262 102.103 232.262 102.027C232.262 101.419 231.901 101.039 230.989 101.039C229.773 101.039 228.728 101.685 228.272 102.008L227.474 108.62C227.436 108.886 227.322 109 227.075 109H225.954C225.745 109 225.612 108.924 225.65 108.62L226.733 99.937C226.771 99.69 226.866 99.576 227.113 99.576ZM239.067 101.096L238.44 106.112C238.421 106.245 238.421 106.34 238.421 106.435C238.421 107.138 238.858 107.461 240.188 107.461H240.549C240.815 107.461 240.891 107.613 240.872 107.841L240.796 108.639C240.777 108.905 240.644 109 240.378 109H239.751C237.395 109 236.578 108.24 236.578 106.891C236.578 106.72 236.578 106.606 236.597 106.397L237.243 101.096H236.198C235.932 101.096 235.875 100.963 235.894 100.716L235.97 100.051C235.989 99.804 236.122 99.709 236.369 99.69L237.414 99.614H237.433L237.68 97.695C237.718 97.429 237.813 97.315 238.079 97.315H239.181C239.447 97.315 239.523 97.448 239.485 97.695L239.238 99.614H241.214C241.48 99.614 241.537 99.747 241.518 99.956L241.442 100.735C241.423 101.001 241.29 101.096 241.024 101.096H239.067ZM242.519 106.549L243.07 102.027C243.26 100.469 244.4 99.424 247.155 99.424C249.549 99.424 250.689 100.317 250.689 101.685C250.689 101.799 250.689 101.856 250.67 102.027L250.119 106.549C249.929 108.107 248.808 109.152 246.053 109.152C243.64 109.152 242.5 108.24 242.5 106.872C242.5 106.777 242.5 106.72 242.519 106.549ZM248.333 106.397L248.846 102.331C248.884 102.084 248.884 102.046 248.884 101.989C248.884 101.286 248.276 100.906 247.022 100.906C245.597 100.906 244.97 101.362 244.875 102.179L244.343 106.397C244.324 106.53 244.324 106.549 244.324 106.606C244.324 107.328 244.875 107.67 246.186 107.67C247.611 107.67 248.238 107.214 248.333 106.397ZM258.033 102.217L258.071 101.894C258.09 101.723 258.09 101.628 258.09 101.59C258.09 101.077 257.539 100.735 256.418 100.735C255.259 100.735 254.632 100.982 254.537 101.666L254.499 101.951C254.48 102.122 254.48 102.141 254.48 102.16C254.48 102.502 254.575 102.787 255.145 102.977L257.9 103.927C258.907 104.269 259.382 104.934 259.382 105.599C259.382 105.732 259.363 105.884 259.344 106.055L259.249 107.005C259.135 108.183 258.052 109.152 255.43 109.152C253.055 109.152 252.029 108.202 252.029 107.157C252.029 107.081 252.029 107.043 252.048 106.853L252.105 106.397C252.143 106.15 252.238 106.055 252.485 106.055H253.492C253.701 106.055 253.777 106.131 253.758 106.397L253.72 106.758C253.701 106.891 253.701 106.967 253.701 107.005C253.701 107.518 254.404 107.822 255.506 107.822C256.722 107.822 257.501 107.537 257.596 106.853L257.653 106.416C257.672 106.207 257.672 106.188 257.672 106.093C257.672 105.789 257.349 105.523 256.779 105.314L254.157 104.383C253.283 104.079 252.789 103.433 252.789 102.597C252.789 102.559 252.789 102.502 252.808 102.293L252.884 101.647C253.017 100.469 253.91 99.424 256.513 99.424C258.812 99.424 259.762 100.431 259.762 101.495C259.762 101.59 259.762 101.609 259.743 101.818L259.705 102.217C259.686 102.464 259.572 102.559 259.325 102.559H258.318C258.109 102.559 258.014 102.445 258.033 102.217ZM271.022 108.05C270.414 108.468 269.426 109.152 267.792 109.152C266.177 109.152 265.341 108.316 265.341 107.005C265.341 106.872 265.36 106.701 265.379 106.568L265.949 102.008C266.139 100.45 266.975 99.424 268.894 99.424C270.357 99.424 271.421 100.089 271.915 100.507L272.447 96.099C272.485 95.833 272.599 95.719 272.846 95.719H273.967C274.214 95.719 274.309 95.852 274.271 96.099L272.732 108.62C272.694 108.886 272.58 109 272.333 109H271.307C271.06 109 271.003 108.886 271.003 108.62L271.022 108.05ZM267.716 102.274L267.222 106.226C267.203 106.359 267.184 106.473 267.184 106.568C267.184 107.119 267.545 107.537 268.476 107.537C269.654 107.537 270.718 106.872 271.174 106.568L271.744 102.027C271.364 101.704 270.471 101.039 269.293 101.039C268.21 101.039 267.792 101.609 267.716 102.274ZM283.3 102.027L283.015 104.345C282.996 104.573 282.863 104.687 282.635 104.687H277.467L277.258 106.302C277.239 106.454 277.22 106.625 277.22 106.701C277.22 107.347 277.676 107.746 278.987 107.746C280.431 107.746 280.944 107.252 281.039 106.53L281.077 106.226C281.115 105.979 281.248 105.865 281.495 105.865H282.445C282.692 105.865 282.768 105.998 282.749 106.226L282.711 106.549C282.521 108.107 281.647 109.152 278.873 109.152C276.46 109.152 275.453 108.259 275.453 106.91C275.453 106.777 275.453 106.72 275.472 106.549L276.023 102.027C276.213 100.469 277.22 99.424 279.956 99.424C282.312 99.424 283.319 100.317 283.319 101.666C283.319 101.78 283.319 101.856 283.3 102.027ZM277.79 102.103L277.638 103.338H281.438L281.59 102.198C281.609 102.046 281.609 101.97 281.609 101.894C281.609 101.248 281.153 100.83 279.842 100.83C278.417 100.83 277.885 101.343 277.79 102.103ZM294.567 102.217L294.605 101.894C294.624 101.723 294.624 101.628 294.624 101.59C294.624 101.077 294.073 100.735 292.952 100.735C291.793 100.735 291.166 100.982 291.071 101.666L291.033 101.951C291.014 102.122 291.014 102.141 291.014 102.16C291.014 102.502 291.109 102.787 291.679 102.977L294.434 103.927C295.441 104.269 295.916 104.934 295.916 105.599C295.916 105.732 295.897 105.884 295.878 106.055L295.783 107.005C295.669 108.183 294.586 109.152 291.964 109.152C289.589 109.152 288.563 108.202 288.563 107.157C288.563 107.081 288.563 107.043 288.582 106.853L288.639 106.397C288.677 106.15 288.772 106.055 289.019 106.055H290.026C290.235 106.055 290.311 106.131 290.292 106.397L290.254 106.758C290.235 106.891 290.235 106.967 290.235 107.005C290.235 107.518 290.938 107.822 292.04 107.822C293.256 107.822 294.035 107.537 294.13 106.853L294.187 106.416C294.206 106.207 294.206 106.188 294.206 106.093C294.206 105.789 293.883 105.523 293.313 105.314L290.691 104.383C289.817 104.079 289.323 103.433 289.323 102.597C289.323 102.559 289.323 102.502 289.342 102.293L289.418 101.647C289.551 100.469 290.444 99.424 293.047 99.424C295.346 99.424 296.296 100.431 296.296 101.495C296.296 101.59 296.296 101.609 296.277 101.818L296.239 102.217C296.22 102.464 296.106 102.559 295.859 102.559H294.852C294.643 102.559 294.548 102.445 294.567 102.217ZM303.567 108.05C302.959 108.468 301.914 109.152 300.318 109.152C298.703 109.152 297.867 108.316 297.867 107.005C297.867 106.872 297.886 106.701 297.905 106.568L298.475 102.008C298.665 100.45 299.501 99.424 301.42 99.424C302.978 99.424 304.004 100.127 304.498 100.564L304.612 99.956C304.669 99.69 304.745 99.576 305.011 99.576H306.018C306.208 99.576 306.36 99.671 306.322 99.956L305.258 108.62C305.22 108.886 305.106 109 304.859 109H303.833C303.624 109 303.51 108.905 303.529 108.62L303.567 108.05ZM300.242 102.274L299.729 106.302C299.71 106.435 299.71 106.473 299.71 106.568C299.71 107.119 300.052 107.537 301.002 107.537C302.18 107.537 303.244 106.872 303.7 106.568L304.27 102.027C303.89 101.704 303.016 101.039 301.819 101.039C300.755 101.039 300.318 101.609 300.242 102.274ZM311.229 96.099L309.709 108.62C309.671 108.886 309.576 109 309.31 109H308.189C307.942 109 307.847 108.886 307.885 108.62L309.424 96.099C309.462 95.833 309.576 95.719 309.823 95.719H310.944C311.191 95.719 311.267 95.833 311.229 96.099ZM315.682 96.099L315.473 97.809C315.435 98.056 315.34 98.17 315.093 98.17H313.972C313.725 98.17 313.63 98.056 313.668 97.809L313.877 96.099C313.915 95.833 314.029 95.719 314.276 95.719H315.397C315.644 95.719 315.72 95.833 315.682 96.099ZM315.226 99.956L314.162 108.62C314.124 108.886 314.01 109 313.763 109H312.642C312.395 109 312.3 108.886 312.338 108.62L313.421 99.956C313.459 99.709 313.554 99.576 313.801 99.576H314.903C315.169 99.576 315.264 99.69 315.226 99.956ZM322.548 108.05C321.94 108.468 320.952 109.152 319.318 109.152C317.703 109.152 316.867 108.316 316.867 107.005C316.867 106.872 316.886 106.701 316.905 106.568L317.475 102.008C317.665 100.45 318.501 99.424 320.42 99.424C321.883 99.424 322.947 100.089 323.441 100.507L323.973 96.099C324.011 95.833 324.125 95.719 324.372 95.719H325.493C325.74 95.719 325.835 95.852 325.797 96.099L324.258 108.62C324.22 108.886 324.106 109 323.859 109H322.833C322.586 109 322.529 108.886 322.529 108.62L322.548 108.05ZM319.242 102.274L318.748 106.226C318.729 106.359 318.71 106.473 318.71 106.568C318.71 107.119 319.071 107.537 320.002 107.537C321.18 107.537 322.244 106.872 322.7 106.568L323.27 102.027C322.89 101.704 321.997 101.039 320.819 101.039C319.736 101.039 319.318 101.609 319.242 102.274ZM332.661 108.05C332.053 108.468 331.008 109.152 329.412 109.152C327.797 109.152 326.961 108.316 326.961 107.005C326.961 106.872 326.98 106.701 326.999 106.568L327.569 102.008C327.759 100.45 328.595 99.424 330.514 99.424C332.072 99.424 333.098 100.127 333.592 100.564L333.706 99.956C333.763 99.69 333.839 99.576 334.105 99.576H335.112C335.302 99.576 335.454 99.671 335.416 99.956L334.352 108.62C334.314 108.886 334.2 109 333.953 109H332.927C332.718 109 332.604 108.905 332.623 108.62L332.661 108.05ZM329.336 102.274L328.823 106.302C328.804 106.435 328.804 106.473 328.804 106.568C328.804 107.119 329.146 107.537 330.096 107.537C331.274 107.537 332.338 106.872 332.794 106.568L333.364 102.027C332.984 101.704 332.11 101.039 330.913 101.039C329.849 101.039 329.412 101.609 329.336 102.274ZM339.866 99.956L339.676 101.476C339.638 101.723 339.543 101.837 339.277 101.837H338.137C337.89 101.837 337.795 101.723 337.833 101.476L338.023 99.956C338.061 99.69 338.175 99.576 338.422 99.576H339.562C339.828 99.576 339.904 99.69 339.866 99.956ZM338.973 107.119L338.802 108.639C338.764 108.905 338.65 109 338.403 109H337.263C336.997 109 336.921 108.905 336.959 108.639L337.13 107.119C337.149 106.872 337.282 106.758 337.548 106.758H338.688C338.935 106.758 338.992 106.872 338.973 107.119ZM352.679 109H345.972C345.725 109 345.611 108.886 345.649 108.62L347.15 96.46C347.188 96.194 347.302 96.08 347.549 96.08H354.047C354.294 96.08 354.408 96.175 354.37 96.441L354.256 97.296C354.218 97.562 354.104 97.657 353.857 97.657H348.879L348.404 101.495H353.059C353.306 101.495 353.401 101.59 353.363 101.856L353.268 102.673C353.23 102.92 353.116 103.034 352.869 103.034H348.214L347.663 107.423H352.85C353.116 107.423 353.23 107.499 353.192 107.765L353.078 108.639C353.04 108.905 352.945 109 352.679 109ZM356.681 99.576H357.707C357.954 99.576 358.049 99.69 358.03 99.937L357.992 100.545C358.581 100.089 359.664 99.424 361.222 99.424C362.761 99.424 363.673 100.298 363.673 101.533C363.673 101.628 363.673 101.761 363.654 101.951L362.837 108.62C362.799 108.886 362.685 109 362.419 109H361.336C361.127 109 360.994 108.924 361.032 108.62L361.792 102.388C361.811 102.255 361.83 102.103 361.83 102.027C361.83 101.419 361.469 101.039 360.557 101.039C359.341 101.039 358.296 101.685 357.84 102.008L357.042 108.62C357.004 108.886 356.89 109 356.643 109H355.522C355.313 109 355.18 108.924 355.218 108.62L356.301 99.937C356.339 99.69 356.434 99.576 356.681 99.576ZM374.01 99.424C376.442 99.424 377.373 100.355 377.373 101.666C377.373 101.78 377.373 101.875 377.354 102.065L377.316 102.369C377.278 102.635 377.164 102.73 376.917 102.73H375.891C375.663 102.73 375.568 102.616 375.587 102.388L375.606 102.16C375.625 101.989 375.625 101.951 375.625 101.875C375.625 101.267 375.207 100.906 373.915 100.906C372.471 100.906 371.977 101.362 371.882 102.16L371.369 106.226C371.35 106.378 371.331 106.549 371.331 106.644C371.331 107.309 371.768 107.67 373.06 107.67C374.504 107.67 374.979 107.214 375.093 106.416L375.15 106.036C375.188 105.789 375.283 105.675 375.53 105.675H376.556C376.841 105.675 376.879 105.827 376.86 106.036L376.803 106.549C376.632 108.069 375.682 109.152 372.889 109.152C370.495 109.152 369.507 108.259 369.507 106.91C369.507 106.796 369.507 106.701 369.526 106.549L370.077 102.027C370.267 100.469 371.255 99.424 374.01 99.424ZM384.447 108.05C383.839 108.468 382.794 109.152 381.198 109.152C379.583 109.152 378.747 108.316 378.747 107.005C378.747 106.872 378.766 106.701 378.785 106.568L379.355 102.008C379.545 100.45 380.381 99.424 382.3 99.424C383.858 99.424 384.884 100.127 385.378 100.564L385.492 99.956C385.549 99.69 385.625 99.576 385.891 99.576H386.898C387.088 99.576 387.24 99.671 387.202 99.956L386.138 108.62C386.1 108.886 385.986 109 385.739 109H384.713C384.504 109 384.39 108.905 384.409 108.62L384.447 108.05ZM381.122 102.274L380.609 106.302C380.59 106.435 380.59 106.473 380.59 106.568C380.59 107.119 380.932 107.537 381.882 107.537C383.06 107.537 384.124 106.872 384.58 106.568L385.15 102.027C384.77 101.704 383.896 101.039 382.699 101.039C381.635 101.039 381.198 101.609 381.122 102.274ZM394.522 108.05C393.914 108.468 392.926 109.152 391.292 109.152C389.677 109.152 388.841 108.316 388.841 107.005C388.841 106.872 388.86 106.701 388.879 106.568L389.449 102.008C389.639 100.45 390.475 99.424 392.394 99.424C393.857 99.424 394.921 100.089 395.415 100.507L395.947 96.099C395.985 95.833 396.099 95.719 396.346 95.719H397.467C397.714 95.719 397.809 95.852 397.771 96.099L396.232 108.62C396.194 108.886 396.08 109 395.833 109H394.807C394.56 109 394.503 108.886 394.503 108.62L394.522 108.05ZM391.216 102.274L390.722 106.226C390.703 106.359 390.684 106.473 390.684 106.568C390.684 107.119 391.045 107.537 391.976 107.537C393.154 107.537 394.218 106.872 394.674 106.568L395.244 102.027C394.864 101.704 393.971 101.039 392.793 101.039C391.71 101.039 391.292 101.609 391.216 102.274ZM404.634 108.05C404.026 108.468 402.981 109.152 401.385 109.152C399.77 109.152 398.934 108.316 398.934 107.005C398.934 106.872 398.953 106.701 398.972 106.568L399.542 102.008C399.732 100.45 400.568 99.424 402.487 99.424C404.045 99.424 405.071 100.127 405.565 100.564L405.679 99.956C405.736 99.69 405.812 99.576 406.078 99.576H407.085C407.275 99.576 407.427 99.671 407.389 99.956L406.325 108.62C406.287 108.886 406.173 109 405.926 109H404.9C404.691 109 404.577 108.905 404.596 108.62L404.634 108.05ZM401.309 102.274L400.796 106.302C400.777 106.435 400.777 106.473 400.777 106.568C400.777 107.119 401.119 107.537 402.069 107.537C403.247 107.537 404.311 106.872 404.767 106.568L405.337 102.027C404.957 101.704 404.083 101.039 402.886 101.039C401.822 101.039 401.385 101.609 401.309 102.274ZM418.698 102.217L418.736 101.894C418.755 101.723 418.755 101.628 418.755 101.59C418.755 101.077 418.204 100.735 417.083 100.735C415.924 100.735 415.297 100.982 415.202 101.666L415.164 101.951C415.145 102.122 415.145 102.141 415.145 102.16C415.145 102.502 415.24 102.787 415.81 102.977L418.565 103.927C419.572 104.269 420.047 104.934 420.047 105.599C420.047 105.732 420.028 105.884 420.009 106.055L419.914 107.005C419.8 108.183 418.717 109.152 416.095 109.152C413.72 109.152 412.694 108.202 412.694 107.157C412.694 107.081 412.694 107.043 412.713 106.853L412.77 106.397C412.808 106.15 412.903 106.055 413.15 106.055H414.157C414.366 106.055 414.442 106.131 414.423 106.397L414.385 106.758C414.366 106.891 414.366 106.967 414.366 107.005C414.366 107.518 415.069 107.822 416.171 107.822C417.387 107.822 418.166 107.537 418.261 106.853L418.318 106.416C418.337 106.207 418.337 106.188 418.337 106.093C418.337 105.789 418.014 105.523 417.444 105.314L414.822 104.383C413.948 104.079 413.454 103.433 413.454 102.597C413.454 102.559 413.454 102.502 413.473 102.293L413.549 101.647C413.682 100.469 414.575 99.424 417.178 99.424C419.477 99.424 420.427 100.431 420.427 101.495C420.427 101.59 420.427 101.609 420.408 101.818L420.37 102.217C420.351 102.464 420.237 102.559 419.99 102.559H418.983C418.774 102.559 418.679 102.445 418.698 102.217ZM429.864 102.027L429.579 104.345C429.56 104.573 429.427 104.687 429.199 104.687H424.031L423.822 106.302C423.803 106.454 423.784 106.625 423.784 106.701C423.784 107.347 424.24 107.746 425.551 107.746C426.995 107.746 427.508 107.252 427.603 106.53L427.641 106.226C427.679 105.979 427.812 105.865 428.059 105.865H429.009C429.256 105.865 429.332 105.998 429.313 106.226L429.275 106.549C429.085 108.107 428.211 109.152 425.437 109.152C423.024 109.152 422.017 108.259 422.017 106.91C422.017 106.777 422.017 106.72 422.036 106.549L422.587 102.027C422.777 100.469 423.784 99.424 426.52 99.424C428.876 99.424 429.883 100.317 429.883 101.666C429.883 101.78 429.883 101.856 429.864 102.027ZM424.354 102.103L424.202 103.338H428.002L428.154 102.198C428.173 102.046 428.173 101.97 428.173 101.894C428.173 101.248 427.717 100.83 426.406 100.83C424.981 100.83 424.449 101.343 424.354 102.103ZM437.142 108.05C436.534 108.468 435.546 109.152 433.912 109.152C432.297 109.152 431.461 108.316 431.461 107.005C431.461 106.872 431.48 106.701 431.499 106.568L432.069 102.008C432.259 100.45 433.095 99.424 435.014 99.424C436.477 99.424 437.541 100.089 438.035 100.507L438.567 96.099C438.605 95.833 438.719 95.719 438.966 95.719H440.087C440.334 95.719 440.429 95.852 440.391 96.099L438.852 108.62C438.814 108.886 438.7 109 438.453 109H437.427C437.18 109 437.123 108.886 437.123 108.62L437.142 108.05ZM433.836 102.274L433.342 106.226C433.323 106.359 433.304 106.473 433.304 106.568C433.304 107.119 433.665 107.537 434.596 107.537C435.774 107.537 436.838 106.872 437.294 106.568L437.864 102.027C437.484 101.704 436.591 101.039 435.413 101.039C434.33 101.039 433.912 101.609 433.836 102.274ZM449.42 102.027L449.135 104.345C449.116 104.573 448.983 104.687 448.755 104.687H443.587L443.378 106.302C443.359 106.454 443.34 106.625 443.34 106.701C443.34 107.347 443.796 107.746 445.107 107.746C446.551 107.746 447.064 107.252 447.159 106.53L447.197 106.226C447.235 105.979 447.368 105.865 447.615 105.865H448.565C448.812 105.865 448.888 105.998 448.869 106.226L448.831 106.549C448.641 108.107 447.767 109.152 444.993 109.152C442.58 109.152 441.573 108.259 441.573 106.91C441.573 106.777 441.573 106.72 441.592 106.549L442.143 102.027C442.333 100.469 443.34 99.424 446.076 99.424C448.432 99.424 449.439 100.317 449.439 101.666C449.439 101.78 449.439 101.856 449.42 102.027ZM443.91 102.103L443.758 103.338H447.558L447.71 102.198C447.729 102.046 447.729 101.97 447.729 101.894C447.729 101.248 447.273 100.83 445.962 100.83C444.537 100.83 444.005 101.343 443.91 102.103ZM452.841 107.119L452.651 108.639C452.613 108.905 452.518 109 452.271 109H451.131C450.884 109 450.789 108.905 450.827 108.639L450.998 107.119C451.017 106.872 451.15 106.758 451.397 106.758H452.556C452.803 106.758 452.879 106.872 452.841 107.119Z" fill="black"/>
<path d="M180.25 90.125C181.198 90.125 182.073 90.362 182.875 90.8359C183.677 91.3099 184.315 91.9479 184.789 92.75C185.263 93.5521 185.5 94.4271 185.5 95.375C185.5 95.776 185.427 96.2135 185.281 96.6875C185.172 97.0703 184.99 97.5443 184.734 98.1094C184.333 99.0391 183.823 100.033 183.203 101.09C182.747 101.892 182.237 102.721 181.672 103.578L180.25 105.656L179.539 104.617C178.792 103.542 178.044 102.366 177.297 101.09C176.677 100.033 176.167 99.0391 175.766 98.1094C175.51 97.5443 175.328 97.0703 175.219 96.6875C175.073 96.2135 175 95.776 175 95.375C175 94.4271 175.237 93.5521 175.711 92.75C176.185 91.9479 176.823 91.3099 177.625 90.8359C178.427 90.362 179.302 90.125 180.25 90.125ZM171.473 91.8203L173.797 92.668C173.578 93.1966 173.423 93.7617 173.332 94.3633L172.375 94.0078V107.023L177.625 108.992V104.945L179.375 107.488V108.91L183.75 107.051V103.578C184.461 102.448 185.044 101.445 185.5 100.57V108.199L178.527 111.18L171.527 108.555L164.5 111.59V94.8008L171.473 91.8203ZM180.25 91.875C179.612 91.875 179.02 92.0299 178.473 92.3398C177.944 92.6497 177.525 93.0781 177.215 93.625C176.905 94.1536 176.75 94.737 176.75 95.375C176.75 95.5573 176.805 95.8398 176.914 96.2227C177.023 96.5872 177.169 96.9792 177.352 97.3984C177.68 98.1458 178.172 99.0846 178.828 100.215C179.247 100.926 179.676 101.609 180.113 102.266L180.25 102.484L180.387 102.266C180.824 101.609 181.253 100.926 181.672 100.215C182.328 99.0846 182.82 98.1458 183.148 97.3984C183.331 96.9792 183.477 96.5872 183.586 96.2227C183.695 95.8398 183.75 95.5573 183.75 95.375C183.75 94.737 183.595 94.1536 183.285 93.625C182.975 93.0781 182.547 92.6497 182 92.3398C181.471 92.0299 180.888 91.875 180.25 91.875ZM170.625 94.0625L166.25 95.9492V108.91L170.625 107.051V94.0625ZM180.25 94.0625C180.615 94.0625 180.924 94.1901 181.18 94.4453C181.435 94.7005 181.562 95.0104 181.562 95.375C181.562 95.7396 181.435 96.0495 181.18 96.3047C180.924 96.5599 180.615 96.6875 180.25 96.6875C179.885 96.6875 179.576 96.5599 179.32 96.3047C179.065 96.0495 178.938 95.7396 178.938 95.375C178.938 95.0104 179.065 94.7005 179.32 94.4453C179.576 94.1901 179.885 94.0625 180.25 94.0625Z" fill="black"/>
<path d="M205.539 142.457L205.729 140.937C205.767 140.671 205.862 140.576 206.128 140.576H207.268C207.534 140.576 207.629 140.671 207.591 140.937L207.401 142.457C207.363 142.704 207.249 142.818 207.002 142.818H205.843C205.577 142.818 205.501 142.704 205.539 142.457ZM204.817 147.986L205.482 144.186C205.52 143.939 205.634 143.825 205.881 143.825H206.698C206.964 143.825 207.021 143.939 207.002 144.186L206.717 147.986L206.09 153.116C206.052 153.382 205.957 153.496 205.691 153.496H204.513C204.247 153.496 204.171 153.382 204.209 153.116L204.817 147.986ZM213.869 137.08H215.047C215.294 137.08 215.408 137.194 215.446 137.441L217.65 149.639C217.688 149.867 217.593 150 217.346 150H216.168C215.921 150 215.807 149.867 215.769 149.639L215.256 146.694H211.247L209.993 149.639C209.898 149.867 209.803 150 209.537 150H208.435C208.169 150 208.112 149.867 208.207 149.639L213.375 137.441C213.489 137.194 213.622 137.08 213.869 137.08ZM215.028 145.212L214.401 141.754C214.306 141.222 214.211 139.759 214.211 138.942C214.078 139.474 213.622 141.089 213.356 141.716L211.855 145.212H215.028ZM222.704 137.099L221.184 149.62C221.146 149.886 221.051 150 220.785 150H219.664C219.417 150 219.322 149.886 219.36 149.62L220.899 137.099C220.937 136.833 221.051 136.719 221.298 136.719H222.419C222.666 136.719 222.742 136.833 222.704 137.099ZM227.157 137.099L226.948 138.809C226.91 139.056 226.815 139.17 226.568 139.17H225.447C225.2 139.17 225.105 139.056 225.143 138.809L225.352 137.099C225.39 136.833 225.504 136.719 225.751 136.719H226.872C227.119 136.719 227.195 136.833 227.157 137.099ZM226.701 140.956L225.637 149.62C225.599 149.886 225.485 150 225.238 150H224.117C223.87 150 223.775 149.886 223.813 149.62L224.896 140.956C224.934 140.709 225.029 140.576 225.276 140.576H226.378C226.644 140.576 226.739 140.69 226.701 140.956ZM234.005 143.217L234.043 142.894C234.062 142.723 234.062 142.628 234.062 142.59C234.062 142.077 233.511 141.735 232.39 141.735C231.231 141.735 230.604 141.982 230.509 142.666L230.471 142.951C230.452 143.122 230.452 143.141 230.452 143.16C230.452 143.502 230.547 143.787 231.117 143.977L233.872 144.927C234.879 145.269 235.354 145.934 235.354 146.599C235.354 146.732 235.335 146.884 235.316 147.055L235.221 148.005C235.107 149.183 234.024 150.152 231.402 150.152C229.027 150.152 228.001 149.202 228.001 148.157C228.001 148.081 228.001 148.043 228.02 147.853L228.077 147.397C228.115 147.15 228.21 147.055 228.457 147.055H229.464C229.673 147.055 229.749 147.131 229.73 147.397L229.692 147.758C229.673 147.891 229.673 147.967 229.673 148.005C229.673 148.518 230.376 148.822 231.478 148.822C232.694 148.822 233.473 148.537 233.568 147.853L233.625 147.416C233.644 147.207 233.644 147.188 233.644 147.093C233.644 146.789 233.321 146.523 232.751 146.314L230.129 145.383C229.255 145.079 228.761 144.433 228.761 143.597C228.761 143.559 228.761 143.502 228.78 143.293L228.856 142.647C228.989 141.469 229.882 140.424 232.485 140.424C234.784 140.424 235.734 141.431 235.734 142.495C235.734 142.59 235.734 142.609 235.715 142.818L235.677 143.217C235.658 143.464 235.544 143.559 235.297 143.559H234.29C234.081 143.559 233.986 143.445 234.005 143.217ZM240.458 142.096L239.831 147.112C239.812 147.245 239.812 147.34 239.812 147.435C239.812 148.138 240.249 148.461 241.579 148.461H241.94C242.206 148.461 242.282 148.613 242.263 148.841L242.187 149.639C242.168 149.905 242.035 150 241.769 150H241.142C238.786 150 237.969 149.24 237.969 147.891C237.969 147.72 237.969 147.606 237.988 147.397L238.634 142.096H237.589C237.323 142.096 237.266 141.963 237.285 141.716L237.361 141.051C237.38 140.804 237.513 140.709 237.76 140.69L238.805 140.614H238.824L239.071 138.695C239.109 138.429 239.204 138.315 239.47 138.315H240.572C240.838 138.315 240.914 138.448 240.876 138.695L240.629 140.614H242.605C242.871 140.614 242.928 140.747 242.909 140.956L242.833 141.735C242.814 142.001 242.681 142.096 242.415 142.096H240.458ZM249.591 149.05C248.983 149.468 247.938 150.152 246.342 150.152C244.727 150.152 243.891 149.316 243.891 148.005C243.891 147.872 243.91 147.701 243.929 147.568L244.499 143.008C244.689 141.45 245.525 140.424 247.444 140.424C249.002 140.424 250.028 141.127 250.522 141.564L250.636 140.956C250.693 140.69 250.769 140.576 251.035 140.576H252.042C252.232 140.576 252.384 140.671 252.346 140.956L251.282 149.62C251.244 149.886 251.13 150 250.883 150H249.857C249.648 150 249.534 149.905 249.553 149.62L249.591 149.05ZM246.266 143.274L245.753 147.302C245.734 147.435 245.734 147.473 245.734 147.568C245.734 148.119 246.076 148.537 247.026 148.537C248.204 148.537 249.268 147.872 249.724 147.568L250.294 143.027C249.914 142.704 249.04 142.039 247.843 142.039C246.779 142.039 246.342 142.609 246.266 143.274ZM261.147 142.096L260.52 147.112C260.501 147.245 260.501 147.34 260.501 147.435C260.501 148.138 260.938 148.461 262.268 148.461H262.629C262.895 148.461 262.971 148.613 262.952 148.841L262.876 149.639C262.857 149.905 262.724 150 262.458 150H261.831C259.475 150 258.658 149.24 258.658 147.891C258.658 147.72 258.658 147.606 258.677 147.397L259.323 142.096H258.278C258.012 142.096 257.955 141.963 257.974 141.716L258.05 141.051C258.069 140.804 258.202 140.709 258.449 140.69L259.494 140.614H259.513L259.76 138.695C259.798 138.429 259.893 138.315 260.159 138.315H261.261C261.527 138.315 261.603 138.448 261.565 138.695L261.318 140.614H263.294C263.56 140.614 263.617 140.747 263.598 140.956L263.522 141.735C263.503 142.001 263.37 142.096 263.104 142.096H261.147ZM270.223 149.639L270.261 149.069C269.71 149.506 268.703 150.152 267.145 150.152C265.568 150.152 264.675 149.297 264.675 148.062C264.675 147.948 264.675 147.891 264.694 147.739L265.53 140.956C265.568 140.69 265.682 140.576 265.929 140.576H267.031C267.221 140.576 267.373 140.652 267.335 140.956L266.556 147.283C266.537 147.435 266.537 147.492 266.537 147.587C266.537 148.176 266.898 148.537 267.81 148.537C268.988 148.537 269.957 147.91 270.413 147.587L271.211 140.956C271.249 140.69 271.363 140.576 271.61 140.576H272.731C272.997 140.576 273.073 140.709 273.035 140.956L271.952 149.639C271.914 149.905 271.819 150 271.553 150H270.546C270.299 150 270.204 149.905 270.223 149.639ZM281.975 150H280.721C280.474 150 280.436 149.905 280.379 149.658L278.479 140.956C278.422 140.728 278.593 140.576 278.859 140.576H279.98C280.227 140.576 280.284 140.728 280.322 140.956L281.462 146.409C281.519 146.713 281.595 147.416 281.614 147.834C281.728 147.454 281.994 146.656 282.089 146.428L284.635 140.956C284.73 140.728 284.844 140.576 285.091 140.576H286.155C286.421 140.576 286.573 140.709 286.459 140.956L282.393 149.658C282.279 149.905 282.222 150 281.975 150ZM294.934 143.027L294.649 145.345C294.63 145.573 294.497 145.687 294.269 145.687H289.101L288.892 147.302C288.873 147.454 288.854 147.625 288.854 147.701C288.854 148.347 289.31 148.746 290.621 148.746C292.065 148.746 292.578 148.252 292.673 147.53L292.711 147.226C292.749 146.979 292.882 146.865 293.129 146.865H294.079C294.326 146.865 294.402 146.998 294.383 147.226L294.345 147.549C294.155 149.107 293.281 150.152 290.507 150.152C288.094 150.152 287.087 149.259 287.087 147.91C287.087 147.777 287.087 147.72 287.106 147.549L287.657 143.027C287.847 141.469 288.854 140.424 291.59 140.424C293.946 140.424 294.953 141.317 294.953 142.666C294.953 142.78 294.953 142.856 294.934 143.027ZM289.424 143.103L289.272 144.338H293.072L293.224 143.198C293.243 143.046 293.243 142.97 293.243 142.894C293.243 142.248 292.787 141.83 291.476 141.83C290.051 141.83 289.519 142.343 289.424 143.103ZM302.193 143.217L302.231 142.894C302.25 142.723 302.25 142.628 302.25 142.59C302.25 142.077 301.699 141.735 300.578 141.735C299.419 141.735 298.792 141.982 298.697 142.666L298.659 142.951C298.64 143.122 298.64 143.141 298.64 143.16C298.64 143.502 298.735 143.787 299.305 143.977L302.06 144.927C303.067 145.269 303.542 145.934 303.542 146.599C303.542 146.732 303.523 146.884 303.504 147.055L303.409 148.005C303.295 149.183 302.212 150.152 299.59 150.152C297.215 150.152 296.189 149.202 296.189 148.157C296.189 148.081 296.189 148.043 296.208 147.853L296.265 147.397C296.303 147.15 296.398 147.055 296.645 147.055H297.652C297.861 147.055 297.937 147.131 297.918 147.397L297.88 147.758C297.861 147.891 297.861 147.967 297.861 148.005C297.861 148.518 298.564 148.822 299.666 148.822C300.882 148.822 301.661 148.537 301.756 147.853L301.813 147.416C301.832 147.207 301.832 147.188 301.832 147.093C301.832 146.789 301.509 146.523 300.939 146.314L298.317 145.383C297.443 145.079 296.949 144.433 296.949 143.597C296.949 143.559 296.949 143.502 296.968 143.293L297.044 142.647C297.177 141.469 298.07 140.424 300.673 140.424C302.972 140.424 303.922 141.431 303.922 142.495C303.922 142.59 303.922 142.609 303.903 142.818L303.865 143.217C303.846 143.464 303.732 143.559 303.485 143.559H302.478C302.269 143.559 302.174 143.445 302.193 143.217ZM308.647 142.096L308.02 147.112C308.001 147.245 308.001 147.34 308.001 147.435C308.001 148.138 308.438 148.461 309.768 148.461H310.129C310.395 148.461 310.471 148.613 310.452 148.841L310.376 149.639C310.357 149.905 310.224 150 309.958 150H309.331C306.975 150 306.158 149.24 306.158 147.891C306.158 147.72 306.158 147.606 306.177 147.397L306.823 142.096H305.778C305.512 142.096 305.455 141.963 305.474 141.716L305.55 141.051C305.569 140.804 305.702 140.709 305.949 140.69L306.994 140.614H307.013L307.26 138.695C307.298 138.429 307.393 138.315 307.659 138.315H308.761C309.027 138.315 309.103 138.448 309.065 138.695L308.818 140.614H310.794C311.06 140.614 311.117 140.747 311.098 140.956L311.022 141.735C311.003 142.001 310.87 142.096 310.604 142.096H308.647ZM315.348 137.099L315.139 138.809C315.101 139.056 315.006 139.17 314.759 139.17H313.638C313.391 139.17 313.296 139.056 313.334 138.809L313.543 137.099C313.581 136.833 313.695 136.719 313.942 136.719H315.063C315.31 136.719 315.386 136.833 315.348 137.099ZM314.892 140.956L313.828 149.62C313.79 149.886 313.676 150 313.429 150H312.308C312.061 150 311.966 149.886 312.004 149.62L313.087 140.956C313.125 140.709 313.22 140.576 313.467 140.576H314.569C314.835 140.576 314.93 140.69 314.892 140.956ZM316.457 149.62L317.54 140.937C317.578 140.69 317.673 140.576 317.92 140.576H318.946C319.193 140.576 319.269 140.69 319.25 140.937L319.212 141.526C319.763 141.089 320.732 140.424 322.347 140.424C323.525 140.424 324.399 140.937 324.665 141.716C325.197 141.317 326.166 140.424 328.028 140.424C329.567 140.424 330.498 141.279 330.498 142.495C330.498 142.609 330.498 142.685 330.479 142.856L329.643 149.62C329.605 149.886 329.491 150 329.244 150H328.142C327.952 150 327.8 149.886 327.838 149.62L328.598 143.388C328.617 143.236 328.636 143.122 328.636 143.027C328.636 142.419 328.237 142.039 327.363 142.039C326.147 142.039 325.178 142.685 324.779 143.008L323.962 149.62C323.924 149.886 323.81 150 323.563 150H322.461C322.252 150 322.119 149.886 322.157 149.62L322.898 143.502C322.917 143.331 322.936 143.103 322.936 143.027C322.936 142.419 322.537 142.039 321.682 142.039C320.485 142.039 319.516 142.685 319.079 143.008L318.281 149.62C318.243 149.886 318.148 150 317.882 150H316.761C316.552 150 316.419 149.886 316.457 149.62ZM340.152 143.027L339.867 145.345C339.848 145.573 339.715 145.687 339.487 145.687H334.319L334.11 147.302C334.091 147.454 334.072 147.625 334.072 147.701C334.072 148.347 334.528 148.746 335.839 148.746C337.283 148.746 337.796 148.252 337.891 147.53L337.929 147.226C337.967 146.979 338.1 146.865 338.347 146.865H339.297C339.544 146.865 339.62 146.998 339.601 147.226L339.563 147.549C339.373 149.107 338.499 150.152 335.725 150.152C333.312 150.152 332.305 149.259 332.305 147.91C332.305 147.777 332.305 147.72 332.324 147.549L332.875 143.027C333.065 141.469 334.072 140.424 336.808 140.424C339.164 140.424 340.171 141.317 340.171 142.666C340.171 142.78 340.171 142.856 340.152 143.027ZM334.642 143.103L334.49 144.338H338.29L338.442 143.198C338.461 143.046 338.461 142.97 338.461 142.894C338.461 142.248 338.005 141.83 336.694 141.83C335.269 141.83 334.737 142.343 334.642 143.103ZM343.136 140.576H344.162C344.409 140.576 344.504 140.69 344.485 140.937L344.447 141.545C345.036 141.089 346.119 140.424 347.677 140.424C349.216 140.424 350.128 141.298 350.128 142.533C350.128 142.628 350.128 142.761 350.109 142.951L349.292 149.62C349.254 149.886 349.14 150 348.874 150H347.791C347.582 150 347.449 149.924 347.487 149.62L348.247 143.388C348.266 143.255 348.285 143.103 348.285 143.027C348.285 142.419 347.924 142.039 347.012 142.039C345.796 142.039 344.751 142.685 344.295 143.008L343.497 149.62C343.459 149.886 343.345 150 343.098 150H341.977C341.768 150 341.635 149.924 341.673 149.62L342.756 140.937C342.794 140.69 342.889 140.576 343.136 140.576ZM355.089 142.096L354.462 147.112C354.443 147.245 354.443 147.34 354.443 147.435C354.443 148.138 354.88 148.461 356.21 148.461H356.571C356.837 148.461 356.913 148.613 356.894 148.841L356.818 149.639C356.799 149.905 356.666 150 356.4 150H355.773C353.417 150 352.6 149.24 352.6 147.891C352.6 147.72 352.6 147.606 352.619 147.397L353.265 142.096H352.22C351.954 142.096 351.897 141.963 351.916 141.716L351.992 141.051C352.011 140.804 352.144 140.709 352.391 140.69L353.436 140.614H353.455L353.702 138.695C353.74 138.429 353.835 138.315 354.101 138.315H355.203C355.469 138.315 355.545 138.448 355.507 138.695L355.26 140.614H357.236C357.502 140.614 357.559 140.747 357.54 140.956L357.464 141.735C357.445 142.001 357.312 142.096 357.046 142.096H355.089ZM364.222 149.05C363.614 149.468 362.569 150.152 360.973 150.152C359.358 150.152 358.522 149.316 358.522 148.005C358.522 147.872 358.541 147.701 358.56 147.568L359.13 143.008C359.32 141.45 360.156 140.424 362.075 140.424C363.633 140.424 364.659 141.127 365.153 141.564L365.267 140.956C365.324 140.69 365.4 140.576 365.666 140.576H366.673C366.863 140.576 367.015 140.671 366.977 140.956L365.913 149.62C365.875 149.886 365.761 150 365.514 150H364.488C364.279 150 364.165 149.905 364.184 149.62L364.222 149.05ZM360.897 143.274L360.384 147.302C360.365 147.435 360.365 147.473 360.365 147.568C360.365 148.119 360.707 148.537 361.657 148.537C362.835 148.537 363.899 147.872 364.355 147.568L364.925 143.027C364.545 142.704 363.671 142.039 362.474 142.039C361.41 142.039 360.973 142.609 360.897 143.274ZM378.305 149.05C377.697 149.468 376.709 150.152 375.075 150.152C373.46 150.152 372.624 149.316 372.624 148.005C372.624 147.872 372.643 147.701 372.662 147.568L373.232 143.008C373.422 141.45 374.258 140.424 376.177 140.424C377.64 140.424 378.704 141.089 379.198 141.507L379.73 137.099C379.768 136.833 379.882 136.719 380.129 136.719H381.25C381.497 136.719 381.592 136.852 381.554 137.099L380.015 149.62C379.977 149.886 379.863 150 379.616 150H378.59C378.343 150 378.286 149.886 378.286 149.62L378.305 149.05ZM374.999 143.274L374.505 147.226C374.486 147.359 374.467 147.473 374.467 147.568C374.467 148.119 374.828 148.537 375.759 148.537C376.937 148.537 378.001 147.872 378.457 147.568L379.027 143.027C378.647 142.704 377.754 142.039 376.576 142.039C375.493 142.039 375.075 142.609 374.999 143.274ZM390.584 143.027L390.299 145.345C390.28 145.573 390.147 145.687 389.919 145.687H384.751L384.542 147.302C384.523 147.454 384.504 147.625 384.504 147.701C384.504 148.347 384.96 148.746 386.271 148.746C387.715 148.746 388.228 148.252 388.323 147.53L388.361 147.226C388.399 146.979 388.532 146.865 388.779 146.865H389.729C389.976 146.865 390.052 146.998 390.033 147.226L389.995 147.549C389.805 149.107 388.931 150.152 386.157 150.152C383.744 150.152 382.737 149.259 382.737 147.91C382.737 147.777 382.737 147.72 382.756 147.549L383.307 143.027C383.497 141.469 384.504 140.424 387.24 140.424C389.596 140.424 390.603 141.317 390.603 142.666C390.603 142.78 390.603 142.856 390.584 143.027ZM385.074 143.103L384.922 144.338H388.722L388.874 143.198C388.893 143.046 388.893 142.97 388.893 142.894C388.893 142.248 388.437 141.83 387.126 141.83C385.701 141.83 385.169 142.343 385.074 143.103ZM393.567 140.576H394.593C394.84 140.576 394.935 140.69 394.916 140.956L394.859 141.545C395.467 141.127 396.531 140.424 398.108 140.424C399.723 140.424 400.559 141.26 400.559 142.59C400.559 142.723 400.559 142.799 400.54 143.008L399.97 147.568C399.78 149.126 398.944 150.152 397.025 150.152C395.543 150.152 394.479 149.506 393.985 149.088L393.453 153.496C393.415 153.762 393.32 153.876 393.054 153.876H391.952C391.743 153.876 391.591 153.8 391.629 153.496L393.187 140.956C393.225 140.69 393.32 140.576 393.567 140.576ZM398.184 147.302L398.678 143.35C398.697 143.217 398.716 143.103 398.716 143.008C398.716 142.457 398.355 142.039 397.443 142.039C396.227 142.039 395.182 142.704 394.745 143.027L394.175 147.568C394.536 147.872 395.41 148.537 396.626 148.537C397.709 148.537 398.108 147.967 398.184 147.302ZM402.293 147.549L402.844 143.027C403.034 141.469 404.174 140.424 406.929 140.424C409.323 140.424 410.463 141.317 410.463 142.685C410.463 142.799 410.463 142.856 410.444 143.027L409.893 147.549C409.703 149.107 408.582 150.152 405.827 150.152C403.414 150.152 402.274 149.24 402.274 147.872C402.274 147.777 402.274 147.72 402.293 147.549ZM408.107 147.397L408.62 143.331C408.658 143.084 408.658 143.046 408.658 142.989C408.658 142.286 408.05 141.906 406.796 141.906C405.371 141.906 404.744 142.362 404.649 143.179L404.117 147.397C404.098 147.53 404.098 147.549 404.098 147.606C404.098 148.328 404.649 148.67 405.96 148.67C407.385 148.67 408.012 148.214 408.107 147.397ZM417.94 140.443C418.206 140.443 418.32 140.538 418.282 140.804L418.168 141.697C418.13 141.963 418.016 142.039 417.75 142.058C416.401 142.153 415.166 142.875 414.672 143.255L413.893 149.62C413.855 149.886 413.76 150 413.494 150H412.373C412.126 150 412.031 149.886 412.069 149.62L413.152 140.937C413.19 140.69 413.285 140.576 413.532 140.576H414.558C414.805 140.576 414.9 140.69 414.881 140.937L414.824 141.754C415.413 141.241 416.496 140.443 417.94 140.443ZM422.053 142.096L421.426 147.112C421.407 147.245 421.407 147.34 421.407 147.435C421.407 148.138 421.844 148.461 423.174 148.461H423.535C423.801 148.461 423.877 148.613 423.858 148.841L423.782 149.639C423.763 149.905 423.63 150 423.364 150H422.737C420.381 150 419.564 149.24 419.564 147.891C419.564 147.72 419.564 147.606 419.583 147.397L420.229 142.096H419.184C418.918 142.096 418.861 141.963 418.88 141.716L418.956 141.051C418.975 140.804 419.108 140.709 419.355 140.69L420.4 140.614H420.419L420.666 138.695C420.704 138.429 420.799 138.315 421.065 138.315H422.167C422.433 138.315 422.509 138.448 422.471 138.695L422.224 140.614H424.2C424.466 140.614 424.523 140.747 424.504 140.956L424.428 141.735C424.409 142.001 424.276 142.096 424.01 142.096H422.053ZM428.754 137.099L428.545 138.809C428.507 139.056 428.412 139.17 428.165 139.17H427.044C426.797 139.17 426.702 139.056 426.74 138.809L426.949 137.099C426.987 136.833 427.101 136.719 427.348 136.719H428.469C428.716 136.719 428.792 136.833 428.754 137.099ZM428.298 140.956L427.234 149.62C427.196 149.886 427.082 150 426.835 150H425.714C425.467 150 425.372 149.886 425.41 149.62L426.493 140.956C426.531 140.709 426.626 140.576 426.873 140.576H427.975C428.241 140.576 428.336 140.69 428.298 140.956ZM433.492 150H432.238C431.991 150 431.953 149.905 431.896 149.658L429.996 140.956C429.939 140.728 430.11 140.576 430.376 140.576H431.497C431.744 140.576 431.801 140.728 431.839 140.956L432.979 146.409C433.036 146.713 433.112 147.416 433.131 147.834C433.245 147.454 433.511 146.656 433.606 146.428L436.152 140.956C436.247 140.728 436.361 140.576 436.608 140.576H437.672C437.938 140.576 438.09 140.709 437.976 140.956L433.91 149.658C433.796 149.905 433.739 150 433.492 150ZM444.36 149.05C443.752 149.468 442.707 150.152 441.111 150.152C439.496 150.152 438.66 149.316 438.66 148.005C438.66 147.872 438.679 147.701 438.698 147.568L439.268 143.008C439.458 141.45 440.294 140.424 442.213 140.424C443.771 140.424 444.797 141.127 445.291 141.564L445.405 140.956C445.462 140.69 445.538 140.576 445.804 140.576H446.811C447.001 140.576 447.153 140.671 447.115 140.956L446.051 149.62C446.013 149.886 445.899 150 445.652 150H444.626C444.417 150 444.303 149.905 444.322 149.62L444.36 149.05ZM441.035 143.274L440.522 147.302C440.503 147.435 440.503 147.473 440.503 147.568C440.503 148.119 440.845 148.537 441.795 148.537C442.973 148.537 444.037 147.872 444.493 147.568L445.063 143.027C444.683 142.704 443.809 142.039 442.612 142.039C441.548 142.039 441.111 142.609 441.035 143.274ZM451.49 142.59L450.825 146.39C450.787 146.637 450.673 146.751 450.426 146.751H449.609C449.343 146.751 449.286 146.637 449.305 146.39L449.59 142.59L450.217 137.46C450.255 137.194 450.35 137.08 450.616 137.08H451.794C452.06 137.08 452.136 137.194 452.098 137.46L451.49 142.59ZM450.768 148.119L450.578 149.639C450.54 149.905 450.445 150 450.179 150H449.039C448.773 150 448.678 149.905 448.716 149.639L448.906 148.119C448.944 147.872 449.058 147.758 449.305 147.758H450.464C450.73 147.758 450.806 147.872 450.768 148.119Z" fill="black"/>
<path d="M175 131.125C175.62 131.125 176.44 131.28 177.461 131.59C177.898 131.717 178.327 131.872 178.746 132.055L182 133.121V133.203C183.021 133.714 183.85 134.47 184.488 135.473C184.707 135.819 184.88 136.238 185.008 136.73C185.081 137.022 185.172 137.469 185.281 138.07V138.152C185.336 138.535 185.391 138.918 185.445 139.301L185.5 139.793V141.625H182V153.875H168V141.625H164.5V139.848L164.555 139.164C164.609 138.599 164.691 138.052 164.801 137.523C164.965 136.776 165.184 136.12 165.457 135.555C165.967 134.461 166.815 133.659 168 133.148V133.121L168.273 133.039L171.199 132.055H171.254C171.673 131.872 172.102 131.717 172.539 131.59C173.56 131.28 174.38 131.125 175 131.125ZM175 132.875C174.617 132.875 173.97 133.012 173.059 133.285L172.73 133.395L172.895 133.641C173.132 133.951 173.396 134.178 173.688 134.324C174.052 134.525 174.49 134.625 175 134.625C175.51 134.625 175.948 134.525 176.312 134.324C176.604 134.178 176.868 133.951 177.105 133.641L177.27 133.395L176.941 133.285C176.03 133.012 175.383 132.875 175 132.875ZM171.008 133.941L169.75 134.379V152.125H180.25V134.379L178.992 133.941C178.846 134.215 178.673 134.479 178.473 134.734C178.09 135.208 177.643 135.582 177.133 135.855C176.477 136.202 175.766 136.375 175 136.375C174.234 136.375 173.523 136.202 172.867 135.855C172.357 135.582 171.91 135.208 171.527 134.734C171.327 134.479 171.154 134.215 171.008 133.941ZM168 135.117C167.599 135.427 167.28 135.828 167.043 136.32C166.77 136.885 166.56 137.633 166.414 138.562C166.341 139.036 166.286 139.474 166.25 139.875H168V135.117ZM182 135.254V139.875H183.75C183.695 139.401 183.632 138.918 183.559 138.426C183.486 138.025 183.395 137.615 183.285 137.195C183.176 136.776 183.085 136.512 183.012 136.402C182.738 135.983 182.401 135.6 182 135.254Z" fill="black"/>
<path d="M15.1537 5.336C16.8697 5.336 17.6837 5.534 19.7957 6.084V9.494H17.4637V7.646C17.1337 7.492 16.3417 7.272 15.1757 7.272C12.9977 7.272 11.9197 8.196 11.9197 9.494C11.9197 11.21 13.5697 11.496 15.9017 12.068C18.6077 12.728 20.3897 13.718 20.3897 16.402C20.3897 19.482 18.1237 21.264 14.4937 21.264C13.2177 21.264 10.4677 20.934 9.27967 20.45V16.732H11.7437V18.778C12.2057 19.02 13.3057 19.328 14.5377 19.328C16.4957 19.328 17.7937 18.47 17.7937 16.798C17.7937 15.544 16.9797 15.06 15.3957 14.62L12.7117 13.872C10.4237 13.234 9.32367 11.892 9.32367 9.846C9.32367 7.008 11.6557 5.336 15.1537 5.336ZM32.6949 5.6H35.4229L40.5929 19.196H41.9569V21H36.3249V19.196H37.7329L36.4129 15.368H31.0009L29.5709 19.196H31.1549V21H25.7869V19.196H27.1069L32.6949 5.6ZM33.8609 7.668H33.8169C33.7289 8.108 33.6189 8.526 33.4429 8.966L31.7049 13.432H35.7749L34.2569 9.076C34.0589 8.482 33.9489 8.086 33.8609 7.668ZM31.7269 4.192L36.1709 0.495999L37.4909 1.728L33.1129 5.248L31.7269 4.192ZM47.0342 5.6H53.5242C57.1102 5.6 58.1222 7.69 58.1222 9.384C58.1222 11.254 57.0002 12.706 55.0862 12.904V12.948C57.3742 12.992 59.0462 14.532 59.0462 16.688C59.0462 19.328 57.1102 21 53.6122 21H47.0342V19.196H48.5742L48.6622 7.404H47.0342V5.6ZM51.1482 7.404L51.1042 12.156H52.8422C54.4042 12.156 55.5262 11.298 55.5262 9.692C55.5262 8.526 55.0202 7.404 53.0402 7.404H51.1482ZM51.1042 14.092L51.0602 19.196H53.1722C55.0422 19.196 56.3182 18.294 56.3182 16.6C56.3182 15.038 54.9542 14.092 53.2822 14.092H51.1042ZM70.6286 5.6H73.3566L78.5266 19.196H79.8906V21H74.2586V19.196H75.6666L74.3466 15.368H68.9346L67.5046 19.196H69.0886V21H63.7206V19.196H65.0406L70.6286 5.6ZM71.7946 7.668H71.7506C71.6626 8.108 71.5526 8.526 71.3766 8.966L69.6386 13.432H73.7086L72.1906 9.076C71.9926 8.482 71.8826 8.086 71.7946 7.668ZM84.9679 5.6H92.3599C96.9579 5.6 100.06 8.306 100.06 12.948C100.06 17.744 96.8699 21 92.3599 21H84.9679V19.196H86.5299L86.6179 7.404H84.9679V5.6ZM89.0819 7.404L88.9939 19.196H91.5679C95.1099 19.196 97.3319 16.996 97.3319 13.058C97.3319 9.472 95.1319 7.404 91.6779 7.404H89.0819ZM113.861 5.336C118.195 5.336 120.989 8.196 120.989 13.036C120.989 17.744 118.085 21.264 113.421 21.264C108.933 21.264 106.095 18.25 106.095 13.564C106.095 8.68 109.219 5.336 113.861 5.336ZM108.823 13.454C108.823 16.886 110.627 19.196 113.509 19.196C116.567 19.196 118.261 16.842 118.261 13.168C118.261 9.494 116.677 7.404 113.685 7.404C110.847 7.404 108.823 9.538 108.823 13.454Z" fill="black"/>
<g clip-path="url(#clip0_777_2)">
<path d="M0 33V168.76L64.89 148.96L129.78 168.76V33H0Z" fill="url(#paint0_linear_777_2)"/>
</g>
<path d="M41.2694 110.96C27.9094 110.96 18.3094 101.44 18.3094 81.76C18.3094 64.8 27.5894 53.04 40.8694 53.04C56.5494 53.04 63.8294 64.64 63.8294 82.32C63.8294 100.08 55.7494 110.96 41.2694 110.96ZM41.2694 98.56C44.9494 98.56 47.7494 92.08 47.7494 82.32C47.7494 72.8 44.7094 65.92 40.7894 65.92C37.8294 65.84 34.1494 72 34.1494 81.76C34.1494 92.08 38.0694 98.56 41.2694 98.56ZM89.16 110.96C75.8 110.96 66.2 101.44 66.2 81.76C66.2 64.8 75.48 53.04 88.76 53.04C104.44 53.04 111.72 64.64 111.72 82.32C111.72 100.08 103.64 110.96 89.16 110.96ZM89.16 98.56C92.84 98.56 95.64 92.08 95.64 82.32C95.64 72.8 92.6 65.92 88.68 65.92C85.72 65.84 82.04 72 82.04 81.76C82.04 92.08 85.96 98.56 89.16 98.56Z" fill="white"/>
<path d="M26.2954 135H22.7084C22.5044 135 22.4364 134.881 22.4364 134.66V123.78C22.4364 123.542 22.5214 123.44 22.7424 123.44H26.2954C29.2024 123.44 30.1714 124.664 30.1714 126.058V132.382C30.1714 133.776 29.2024 135 26.2954 135ZM26.2954 124.851H24.0854V133.589H26.2954C27.8254 133.589 28.5054 133.028 28.5054 132.11V126.33C28.5054 125.412 27.8254 124.851 26.2954 124.851ZM42.4696 135H36.4686C36.2476 135 36.1626 134.898 36.1626 134.66V123.78C36.1626 123.542 36.2476 123.44 36.4686 123.44H42.2826C42.5036 123.44 42.6056 123.525 42.6056 123.763V124.528C42.6056 124.766 42.5036 124.851 42.2826 124.851H37.8116V128.285H41.9766C42.2146 128.285 42.3166 128.37 42.3166 128.608V129.339C42.3166 129.56 42.2146 129.662 41.9766 129.662H37.8116V133.589H42.4696C42.6906 133.589 42.7926 133.657 42.7926 133.895V134.677C42.7926 134.915 42.6906 135 42.4696 135ZM57.8175 123.44H58.8715C59.0925 123.44 59.2115 123.542 59.2795 123.763L62.5775 134.677C62.6455 134.881 62.5605 135 62.3225 135H61.2515C61.0305 135 60.9455 134.881 60.8775 134.677L60.0785 132.042H56.4915L55.7095 134.677C55.6415 134.881 55.5565 135 55.3355 135H54.3495C54.1285 135 54.0435 134.881 54.1115 134.677L57.4095 123.763C57.4775 123.542 57.5965 123.44 57.8175 123.44ZM59.7215 130.716L58.7695 127.622C58.6335 127.18 58.3785 125.803 58.3105 125.106C58.1915 125.956 58.0045 127.061 57.8345 127.588L56.8655 130.716H59.7215ZM71.5534 135H68.0514C67.8304 135 67.7454 134.898 67.7454 134.66V123.78C67.7454 123.542 67.8304 123.44 68.0514 123.44H71.0604C73.9844 123.44 74.9194 124.528 74.9194 125.905V126.976C74.9194 127.86 74.5114 128.54 73.4914 128.931C74.7834 129.288 75.4124 130.019 75.4124 131.005V132.45C75.4124 133.844 74.4774 135 71.5534 135ZM71.0604 124.817H69.3944V128.421H71.1794C72.5904 128.421 73.2704 127.877 73.2704 126.942V126.16C73.2704 125.225 72.5904 124.817 71.0604 124.817ZM71.5534 129.713H69.3944V133.623H71.5534C73.0834 133.623 73.7634 133.096 73.7634 132.161V131.124C73.7634 130.274 73.0834 129.713 71.5534 129.713ZM82.7387 134.66C82.7387 134.898 82.6707 135 82.4327 135H81.3957C81.1747 135 81.0897 134.898 81.0897 134.66V123.78C81.0897 123.542 81.1747 123.44 81.3957 123.44H84.8467C87.7707 123.44 88.7057 124.664 88.7057 126.058V127.826C88.7057 128.846 88.1787 129.798 86.7167 130.206L88.7567 134.66C88.8417 134.864 88.6887 135 88.4507 135H87.3287C87.1417 135 87.0397 134.898 86.9377 134.66L85.0507 130.427H82.7387V134.66ZM84.8467 124.851H82.7387V129.016H84.8467C86.3767 129.016 87.0567 128.472 87.0567 127.537V126.33C87.0567 125.412 86.3767 124.851 84.8467 124.851ZM96.166 123.78V134.66C96.166 134.898 96.098 135 95.86 135H94.823C94.602 135 94.517 134.898 94.517 134.66V123.78C94.517 123.542 94.602 123.44 94.823 123.44H95.86C96.098 123.44 96.166 123.542 96.166 123.78ZM104.016 123.78V133.589H108.368C108.589 133.589 108.691 133.657 108.691 133.895V134.677C108.691 134.915 108.589 135 108.368 135H102.622C102.435 135 102.35 134.881 102.35 134.66V123.78C102.35 123.542 102.435 123.44 102.673 123.44H103.71C103.931 123.44 104.016 123.542 104.016 123.78Z" fill="white"/>
<path d="M232.544 249.632C234.88 249.632 236.352 251.136 236.352 252.928C236.352 254.752 234.816 256.32 232.544 256.32C230.24 256.32 228.896 254.528 228.896 252.928C228.896 251.264 230.464 249.632 232.544 249.632ZM230.752 257.888H234.976L236.672 265.952V272.032H229.024V265.952L230.752 257.888ZM248.276 272H238.644V267.744H240.628V253.856H238.644V249.632H248.404C256.148 249.632 260.564 254.4 260.564 260.512C260.564 267.808 256.148 272 248.276 272ZM253.204 260.512C253.204 257.088 251.796 253.856 248.404 253.856H247.188V267.744H248.404C251.796 267.68 253.204 264.512 253.204 260.512ZM270.987 249.632L264.907 253.312L261.323 252.672L266.123 248.992L270.987 249.632ZM270.635 267.808V272H261.675V267.808H263.019V260.16H261.675V256H269.099V267.808H270.635ZM273.934 261.056L272.59 257.344C273.87 256.576 276.622 255.072 279.566 255.072C283.406 255.072 288.238 256.512 288.238 261.664V267.904H290.158V272H283.31L282.542 270.56C281.358 272.192 279.374 272.608 278.222 272.608C275.182 272.608 271.918 270.976 271.918 267.264C271.918 263.648 274.958 261.376 278.574 261.376C280.462 261.376 281.582 262.304 281.742 262.496V261.376C281.742 259.936 280.43 259.584 278.702 259.584C276.814 259.584 275.15 260.384 273.934 261.056ZM279.694 268.448C280.654 268.448 281.454 267.872 281.742 267.392V266.176C281.646 266.016 281.198 265.248 279.854 265.248C278.574 265.248 277.998 265.952 277.998 266.944C277.998 267.84 278.734 268.448 279.694 268.448ZM310.401 256.896V252.16H308.929V248H316.897V267.84H318.433V272H310.945L310.401 270.816C309.985 271.2 308.577 272.288 306.369 272.288C301.857 272.288 298.945 268.288 298.945 263.84C298.945 258.848 302.433 255.68 306.369 255.68C308.641 255.68 309.793 256.512 310.401 256.896ZM305.825 263.84C305.825 265.76 306.721 267.776 308.129 267.776C309.377 267.776 310.529 266.208 310.401 263.68C310.401 261.504 309.313 259.84 308.097 259.84C306.753 259.84 305.825 261.408 305.825 263.84ZM333.082 266.688L335.77 269.792C333.402 271.84 330.842 272.576 327.514 272.576C323.546 272.576 319.066 270.048 319.066 263.904C319.066 258.656 322.842 255.552 327.674 255.552C331.482 255.552 334.394 257.504 335.322 260.192C335.706 261.312 336.058 263.776 335.386 265.6H325.306C325.498 266.464 325.914 268.224 328.602 268.224C329.69 268.224 331.354 268.128 333.082 266.688ZM327.866 259.872C325.914 259.872 325.466 261.632 325.402 262.432H330.234C330.202 261.216 329.914 259.872 327.866 259.872ZM346.394 267.808V272H337.05V267.808H338.426V252.128H337.082V248H344.506V267.808H346.394Z" fill="black"/>
<path d="M228.48 284.632H249.952V292.952H245.248V288.856H242.56V302.744H245.216V307H233.312V302.744H235.936V288.856H233.184V292.952H228.48V284.632ZM258.387 302.808V307H249.331V302.808H250.739V295.16H249.363V291H255.379L256.339 293.048C257.171 291.512 258.003 290.424 261.299 290.424V295.96C258.419 295.96 256.787 296.696 256.787 299.512V302.808H258.387ZM264.277 296.056L262.933 292.344C264.213 291.576 266.965 290.072 269.909 290.072C273.749 290.072 278.581 291.512 278.581 296.664V302.904H280.501V307H273.653L272.885 305.56C271.701 307.192 269.717 307.608 268.565 307.608C265.525 307.608 262.261 305.976 262.261 302.264C262.261 298.648 265.301 296.376 268.917 296.376C270.805 296.376 271.925 297.304 272.085 297.496V296.376C272.085 294.936 270.773 294.584 269.045 294.584C267.157 294.584 265.493 295.384 264.277 296.056ZM270.037 303.448C270.997 303.448 271.797 302.872 272.085 302.392V301.176C271.989 301.016 271.541 300.248 270.197 300.248C268.917 300.248 268.341 300.952 268.341 301.944C268.341 302.84 269.077 303.448 270.037 303.448ZM289.161 307H281.961V302.84H283.305V287.192H281.961V283H289.705V292.248C290.409 291.416 292.329 290.744 293.897 290.744C298.761 290.744 301.353 294.84 301.257 299.128C301.161 304.056 298.377 307.352 293.865 307.352C291.433 307.352 290.537 306.68 289.641 305.912L289.161 307ZM294.217 299.192C294.217 297.272 293.321 295.256 291.913 295.256C290.665 295.256 289.513 296.824 289.641 299.352C289.641 301.528 290.729 303.192 291.945 303.192C293.289 303.192 294.217 301.624 294.217 299.192ZM304.465 296.056L303.121 292.344C304.401 291.576 307.153 290.072 310.097 290.072C313.937 290.072 318.769 291.512 318.769 296.664V302.904H320.689V307H313.841L313.073 305.56C311.889 307.192 309.905 307.608 308.753 307.608C305.713 307.608 302.449 305.976 302.449 302.264C302.449 298.648 305.489 296.376 309.105 296.376C310.993 296.376 312.113 297.304 312.273 297.496V296.376C312.273 294.936 310.961 294.584 309.233 294.584C307.345 294.584 305.681 295.384 304.465 296.056ZM310.225 303.448C311.185 303.448 311.985 302.872 312.273 302.392V301.176C312.177 301.016 311.729 300.248 310.385 300.248C309.105 300.248 308.529 300.952 308.529 301.944C308.529 302.84 309.265 303.448 310.225 303.448ZM324.804 286.328C324.804 284.856 326.02 283.064 328.26 283.064C330.468 283.064 331.78 284.856 331.78 286.328C331.78 288.088 330.532 289.56 328.26 289.56C326.244 289.56 324.804 287.864 324.804 286.328ZM325.252 304.76V295.16H323.908V291H331.332V304.76C331.332 308.728 330.116 313.688 321.604 313.688V309.4C325.316 309.4 325.252 306.296 325.252 304.76ZM335.184 296.056L333.84 292.344C335.12 291.576 337.872 290.072 340.816 290.072C344.656 290.072 349.488 291.512 349.488 296.664V302.904H351.408V307H344.56L343.792 305.56C342.608 307.192 340.624 307.608 339.472 307.608C336.432 307.608 333.168 305.976 333.168 302.264C333.168 298.648 336.208 296.376 339.824 296.376C341.712 296.376 342.832 297.304 342.992 297.496V296.376C342.992 294.936 341.68 294.584 339.952 294.584C338.064 294.584 336.4 295.384 335.184 296.056ZM340.944 303.448C341.904 303.448 342.704 302.872 342.992 302.392V301.176C342.896 301.016 342.448 300.248 341.104 300.248C339.824 300.248 339.248 300.952 339.248 301.944C339.248 302.84 339.984 303.448 340.944 303.448ZM363.651 291.896V287.16H362.179V283H370.147V302.84H371.683V307H364.195L363.651 305.816C363.235 306.2 361.827 307.288 359.619 307.288C355.107 307.288 352.195 303.288 352.195 298.84C352.195 293.848 355.683 290.68 359.619 290.68C361.891 290.68 363.043 291.512 363.651 291.896ZM359.075 298.84C359.075 300.76 359.971 302.776 361.379 302.776C362.627 302.776 363.779 301.208 363.651 298.68C363.651 296.504 362.563 294.84 361.347 294.84C360.003 294.84 359.075 296.408 359.075 298.84ZM381.436 307.416C376.86 307.416 372.444 304.6 372.508 298.936C372.54 293.592 376.86 290.616 381.276 290.616C386.332 290.68 390.076 293.72 390.172 299.064C390.236 304.376 386.3 307.416 381.436 307.416ZM381.436 303.32C382.812 303.32 383.612 301.464 383.612 299.064C383.612 296.664 382.78 294.808 381.276 294.776C380.028 294.776 379.068 296.632 379.068 298.968C379.068 301.592 380.092 303.32 381.436 303.32ZM400.387 302.808V307H391.331V302.808H392.739V295.16H391.363V291H397.379L398.339 293.048C399.171 291.512 400.003 290.424 403.299 290.424V295.96C400.419 295.96 398.787 296.696 398.787 299.512V302.808H400.387ZM406.533 298.776L404.805 290.712V284.632H412.453V290.712L410.757 298.776H406.533ZM404.677 303.736C404.677 302.136 406.021 300.344 408.325 300.344C410.597 300.344 412.133 301.912 412.133 303.736C412.133 305.528 410.661 307.032 408.325 307.032C406.245 307.032 404.677 305.4 404.677 303.736Z" fill="black"/>
<g clip-path="url(#clip1_777_2)">
<path d="M405.201 330.6C400.631 333.11 396.751 338.32 398.381 343.26C399.371 346.27 402.261 348.39 405.361 349.06C408.451 349.73 411.711 349.12 414.661 347.99C421.991 345.18 427.951 339.02 430.521 331.6C432.821 324.97 432.751 315.74 428.431 310.28C423.441 324.06 417.461 323.86 405.201 330.59V330.6Z" fill="#05F1DA"/>
<path d="M441.641 325.9C445.221 330.25 450.571 333.11 456.191 333.65C460.901 334.11 466.611 332.13 467.571 327.49C468.491 323.02 464.341 318.99 460.031 317.51C455.721 316.03 450.971 316.07 446.731 314.38C443.411 313.06 441.021 309.41 438.471 306.99C437.781 314.32 436.581 319.73 441.651 325.89L441.641 325.9Z" fill="#FFE842"/>
</g>
<path d="M194.031 264.46H193.631V297.39H194.031V264.46Z" fill="#FF4E0E"/>
<path d="M194.031 264.46H193.631V297.39H194.031V264.46Z" fill="black"/>
<path d="M96.7594 264.36C98.9094 264.36 100.659 262.61 100.659 260.46C100.659 258.31 98.9094 256.56 96.7594 256.56C94.6094 256.56 92.8594 258.31 92.8594 260.46C92.8594 262.61 94.6094 264.36 96.7594 264.36Z" fill="#FF4E0E"/>
<path d="M112.27 287.19C111.7 287.19 111.24 286.73 111.24 286.16V253.39H104.91V287.59C104.91 290.32 107.13 292.54 109.86 292.54H114.67V287.19H112.27Z" fill="#FF4E0E"/>
<path d="M41 255.77V264.06H46.35V261.91H54.54V287.19H52.08V292.54H63.67V287.19H61.21V261.91H69.39V264.06H74.7V255.77H41Z" fill="#FF4E0E"/>
<path d="M99.61 287.02V268H86V273.39H93.28V287.02H86V292.37H102.17V287.02H99.61Z" fill="#FF4E0E"/>
<path d="M69.3901 268.17V287.19H66.8301V292.54H83.2001V287.19H75.7201V273.56H83.2001V268.17L73.2401 268.19L69.3901 268.17Z" fill="#FF4E0E"/>
<path d="M145.79 277.9C145.85 277.1 146.07 276.38 146.45 275.73C146.83 275.09 147.31 274.55 147.89 274.12C148.47 273.69 149.13 273.36 149.85 273.13C150.57 272.91 151.35 272.79 152.17 272.79C153.93 272.79 155.25 273.25 156.11 274.16C156.98 275.07 157.41 276.32 157.41 277.89H145.79V277.9ZM162.11 273.08C161.43 271.79 160.56 270.76 159.49 269.99C158.42 269.22 157.25 268.68 155.97 268.36C154.69 268.05 153.46 267.89 152.26 267.89C150.47 267.89 148.8 268.15 147.25 268.67C145.71 269.19 144.36 269.97 143.21 271.01C142.06 272.05 141.16 273.35 140.49 274.91C139.83 276.47 139.5 278.29 139.5 280.37C139.5 281.07 139.54 281.75 139.61 282.4C139.75 283.53 140 284.6 140.37 285.6C140.52 286 141.7 288.93 144.87 290.81C146.97 292.05 149.93 292.55 153.96 292.55C157.99 292.55 160.03 292.38 160.03 292.38V287.16C160.03 287.16 157.21 287.2 153.73 287.2C148.64 287.2 146.91 284.09 146.55 283.22C146.44 282.96 146.35 282.68 146.28 282.4H163C163.48 280.05 163.27 275.36 162.1 273.09" fill="#FF4E0E"/>
<path d="M137.12 278.01V270.09C137.12 269.84 136.97 269.62 136.75 269.52C135.96 269.19 134.9 268.85 133.58 268.5C132.03 268.09 130.38 267.89 128.61 267.89C126.72 267.89 124.97 268.17 123.36 268.72C121.75 269.27 120.36 270.08 119.17 271.16C117.99 272.23 117.06 273.54 116.4 275.09C115.74 276.64 115.41 278.4 115.41 280.39C115.41 282.25 115.69 283.95 116.26 285.5C116.83 287.05 117.52 288.17 118.58 289.29C120.31 291.11 123.69 292.42 127.6 292.55H135.41V287.21H129.39C126.85 287.21 124.36 286.04 123.73 285.41C123.1 284.78 122.61 284.04 122.26 283.19C121.91 282.34 121.74 281.41 121.74 280.4C121.74 279.17 121.95 278.11 122.38 277.23C122.8 276.35 123.36 275.61 124.04 275.03C124.72 274.45 125.49 274.02 126.36 273.75C127.23 273.48 128.1 273.35 128.99 273.35C129.97 273.35 130.94 273.46 131.92 273.68V278.03H137.12V278.01Z" fill="#FF4E0E"/>
<defs>
<linearGradient id="paint0_linear_777_2" x1="0" y1="100.88" x2="129.78" y2="100.88" gradientUnits="userSpaceOnUse">
<stop offset="0.24" stop-color="#FF460E"/>
<stop offset="0.51" stop-color="#FF500E"/>
<stop offset="0.99" stop-color="#FF6C0E"/>
<stop offset="1" stop-color="#FF6D0E"/>
</linearGradient>
<clipPath id="clip0_777_2">
<rect width="129.78" height="135.76" fill="white" transform="translate(0 33)"/>
</clipPath>
<clipPath id="clip1_777_2">
<rect width="69.69" height="42.34" fill="white" transform="translate(398 307)"/>
</clipPath>
</defs>
</svg>
