<svg width="296" height="429" viewBox="0 0 296 429" fill="none" xmlns="http://www.w3.org/2000/svg">
<path d="M89.6852 4.76C91.2452 4.76 91.9852 4.94 93.9052 5.44V8.54H91.7852V6.86C91.4852 6.72 90.7652 6.52 89.7052 6.52C87.7252 6.52 86.7452 7.36 86.7452 8.54C86.7452 10.1 88.2452 10.36 90.3652 10.88C92.8252 11.48 94.4452 12.38 94.4452 14.82C94.4452 17.62 92.3852 19.24 89.0852 19.24C87.9252 19.24 85.4252 18.94 84.3452 18.5V15.12H86.5852V16.98C87.0052 17.2 88.0052 17.48 89.1252 17.48C90.9052 17.48 92.0852 16.7 92.0852 15.18C92.0852 14.04 91.3452 13.6 89.9052 13.2L87.4652 12.52C85.3852 11.94 84.3852 10.72 84.3852 8.86C84.3852 6.28 86.5052 4.76 89.6852 4.76ZM105.632 5H108.112L112.812 17.36H114.052V19H108.932V17.36H110.212L109.012 13.88H104.092L102.792 17.36H104.232V19H99.3517V17.36H100.552L105.632 5ZM106.692 6.88H106.652C106.572 7.28 106.472 7.66 106.312 8.06L104.732 12.12H108.432L107.052 8.16C106.872 7.62 106.772 7.26 106.692 6.88ZM104.752 3.72L108.792 0.359999L109.992 1.48L106.012 4.68L104.752 3.72ZM118.668 5H124.568C127.828 5 128.748 6.9 128.748 8.44C128.748 10.14 127.728 11.46 125.988 11.64V11.68C128.068 11.72 129.588 13.12 129.588 15.08C129.588 17.48 127.828 19 124.648 19H118.668V17.36H120.068L120.148 6.64H118.668V5ZM122.408 6.64L122.368 10.96H123.948C125.368 10.96 126.388 10.18 126.388 8.72C126.388 7.66 125.928 6.64 124.128 6.64H122.408ZM122.368 12.72L122.328 17.36H124.248C125.948 17.36 127.108 16.54 127.108 15C127.108 13.58 125.868 12.72 124.348 12.72H122.368ZM140.117 5H142.597L147.297 17.36H148.537V19H143.417V17.36H144.697L143.497 13.88H138.577L137.277 17.36H138.717V19H133.837V17.36H135.037L140.117 5ZM141.177 6.88H141.137C141.057 7.28 140.957 7.66 140.797 8.06L139.217 12.12H142.917L141.537 8.16C141.357 7.62 141.257 7.26 141.177 6.88ZM153.153 5H159.873C164.053 5 166.873 7.46 166.873 11.68C166.873 16.04 163.973 19 159.873 19H153.153V17.36H154.573L154.653 6.64H153.153V5ZM156.893 6.64L156.813 17.36H159.153C162.373 17.36 164.393 15.36 164.393 11.78C164.393 8.52 162.393 6.64 159.253 6.64H156.893ZM179.419 4.76C183.359 4.76 185.899 7.36 185.899 11.76C185.899 16.04 183.259 19.24 179.019 19.24C174.939 19.24 172.359 16.5 172.359 12.24C172.359 7.8 175.199 4.76 179.419 4.76ZM174.839 12.14C174.839 15.26 176.479 17.36 179.099 17.36C181.879 17.36 183.419 15.22 183.419 11.88C183.419 8.54 181.979 6.64 179.259 6.64C176.679 6.64 174.839 8.58 174.839 12.14Z" fill="black"/>
<g clip-path="url(#clip0_823_2)">
<path d="M76 31V155L135 136.915L194 155V31H76Z" fill="url(#paint0_linear_823_2)"/>
</g>
<path d="M113.346 102.876C101.155 102.876 92.3948 94.189 92.3948 76.231C92.3948 60.755 100.863 50.024 112.981 50.024C127.289 50.024 133.932 60.609 133.932 76.742C133.932 92.948 126.559 102.876 113.346 102.876ZM113.346 91.561C116.704 91.561 119.259 85.648 119.259 76.742C119.259 68.055 116.485 61.777 112.908 61.777C110.207 61.704 106.849 67.325 106.849 76.231C106.849 85.648 110.426 91.561 113.346 91.561ZM157.046 102.876C144.855 102.876 136.095 94.189 136.095 76.231C136.095 60.755 144.563 50.024 156.681 50.024C170.989 50.024 177.632 60.609 177.632 76.742C177.632 92.948 170.259 102.876 157.046 102.876ZM157.046 91.561C160.404 91.561 162.959 85.648 162.959 76.742C162.959 68.055 160.185 61.777 156.608 61.777C153.907 61.704 150.549 67.325 150.549 76.231C150.549 85.648 154.126 91.561 157.046 91.561Z" fill="white"/>
<path d="M98.0721 124H94.6961C94.5041 124 94.4401 123.888 94.4401 123.68V113.44C94.4401 113.216 94.5201 113.12 94.7281 113.12H98.0721C100.808 113.12 101.72 114.272 101.72 115.584V121.536C101.72 122.848 100.808 124 98.0721 124ZM98.0721 114.448H95.9921V122.672H98.0721C99.5121 122.672 100.152 122.144 100.152 121.28V115.84C100.152 114.976 99.5121 114.448 98.0721 114.448ZM113.295 124H107.647C107.439 124 107.359 123.904 107.359 123.68V113.44C107.359 113.216 107.439 113.12 107.647 113.12H113.119C113.327 113.12 113.423 113.2 113.423 113.424V114.144C113.423 114.368 113.327 114.448 113.119 114.448H108.911V117.68H112.831C113.055 117.68 113.151 117.76 113.151 117.984V118.672C113.151 118.88 113.055 118.976 112.831 118.976H108.911V122.672H113.295C113.503 122.672 113.599 122.736 113.599 122.96V123.696C113.599 123.92 113.503 124 113.295 124ZM127.74 113.12H128.732C128.94 113.12 129.052 113.216 129.116 113.424L132.22 123.696C132.284 123.888 132.204 124 131.98 124H130.972C130.764 124 130.684 123.888 130.62 123.696L129.868 121.216H126.492L125.756 123.696C125.692 123.888 125.612 124 125.404 124H124.476C124.268 124 124.188 123.888 124.252 123.696L127.356 113.424C127.42 113.216 127.532 113.12 127.74 113.12ZM129.532 119.968L128.636 117.056C128.508 116.64 128.268 115.344 128.204 114.688C128.092 115.488 127.916 116.528 127.756 117.024L126.844 119.968H129.532ZM140.668 124H137.372C137.164 124 137.084 123.904 137.084 123.68V113.44C137.084 113.216 137.164 113.12 137.372 113.12H140.204C142.956 113.12 143.836 114.144 143.836 115.44V116.448C143.836 117.28 143.452 117.92 142.492 118.288C143.708 118.624 144.3 119.312 144.3 120.24V121.6C144.3 122.912 143.42 124 140.668 124ZM140.204 114.416H138.636V117.808H140.316C141.644 117.808 142.284 117.296 142.284 116.416V115.68C142.284 114.8 141.644 114.416 140.204 114.416ZM140.668 119.024H138.636V122.704H140.668C142.108 122.704 142.748 122.208 142.748 121.328V120.352C142.748 119.552 142.108 119.024 140.668 119.024ZM151.195 123.68C151.195 123.904 151.131 124 150.907 124H149.931C149.723 124 149.643 123.904 149.643 123.68V113.44C149.643 113.216 149.723 113.12 149.931 113.12H153.179C155.931 113.12 156.811 114.272 156.811 115.584V117.248C156.811 118.208 156.315 119.104 154.939 119.488L156.859 123.68C156.939 123.872 156.795 124 156.571 124H155.515C155.339 124 155.243 123.904 155.147 123.68L153.371 119.696H151.195V123.68ZM153.179 114.448H151.195V118.368H153.179C154.619 118.368 155.259 117.856 155.259 116.976V115.84C155.259 114.976 154.619 114.448 153.179 114.448ZM163.833 113.44V123.68C163.833 123.904 163.769 124 163.545 124H162.569C162.361 124 162.281 123.904 162.281 123.68V113.44C162.281 113.216 162.361 113.12 162.569 113.12H163.545C163.769 113.12 163.833 113.216 163.833 113.44ZM171.221 113.44V122.672H175.317C175.525 122.672 175.621 122.736 175.621 122.96V123.696C175.621 123.92 175.525 124 175.317 124H169.909C169.733 124 169.653 123.888 169.653 123.68V113.44C169.653 113.216 169.733 113.12 169.957 113.12H170.933C171.141 113.12 171.221 113.216 171.221 113.44Z" fill="white"/>
<path d="M43.825 196.78L43.281 201.251H47.684L48.228 196.78C48.262 196.542 48.364 196.44 48.602 196.44H49.639C49.86 196.44 49.928 196.542 49.894 196.78L48.551 207.66C48.517 207.898 48.449 208 48.228 208H47.191C46.953 208 46.868 207.881 46.902 207.66L47.514 202.662H43.111L42.482 207.66C42.448 207.881 42.38 208 42.142 208H41.105C40.884 208 40.782 207.898 40.816 207.66L42.159 196.78C42.193 196.542 42.295 196.44 42.516 196.44H43.553C43.791 196.44 43.859 196.542 43.825 196.78ZM51.2054 205.807L51.6984 201.761C51.8684 200.367 52.8884 199.432 55.3534 199.432C57.4954 199.432 58.5154 200.231 58.5154 201.455C58.5154 201.557 58.5154 201.608 58.4984 201.761L58.0054 205.807C57.8354 207.201 56.8324 208.136 54.3674 208.136C52.2084 208.136 51.1884 207.32 51.1884 206.096C51.1884 206.011 51.1884 205.96 51.2054 205.807ZM56.4074 205.671L56.8664 202.033C56.9004 201.812 56.9004 201.778 56.9004 201.727C56.9004 201.098 56.3564 200.758 55.2344 200.758C53.9594 200.758 53.3984 201.166 53.3134 201.897L52.8374 205.671C52.8204 205.79 52.8204 205.807 52.8204 205.858C52.8204 206.504 53.3134 206.81 54.4864 206.81C55.7614 206.81 56.3224 206.402 56.4074 205.671ZM65.2054 199.449C65.4434 199.449 65.5454 199.534 65.5114 199.772L65.4094 200.571C65.3754 200.809 65.2734 200.877 65.0354 200.894C63.8284 200.979 62.7234 201.625 62.2814 201.965L61.5844 207.66C61.5504 207.898 61.4654 208 61.2274 208H60.2244C60.0034 208 59.9184 207.898 59.9524 207.66L60.9214 199.891C60.9554 199.67 61.0404 199.568 61.2614 199.568H62.1794C62.4004 199.568 62.4854 199.67 62.4684 199.891L62.4174 200.622C62.9444 200.163 63.9134 199.449 65.2054 199.449ZM71.0638 207.15C70.5198 207.524 69.5848 208.136 68.1568 208.136C66.7118 208.136 65.9638 207.388 65.9638 206.215C65.9638 206.096 65.9808 205.943 65.9978 205.824L66.5078 201.744C66.6778 200.35 67.4258 199.432 69.1428 199.432C70.5368 199.432 71.4548 200.061 71.8968 200.452L71.9988 199.908C72.0498 199.67 72.1178 199.568 72.3558 199.568H73.2568C73.4268 199.568 73.5628 199.653 73.5288 199.908L72.5768 207.66C72.5428 207.898 72.4408 208 72.2198 208H71.3018C71.1148 208 71.0128 207.915 71.0298 207.66L71.0638 207.15ZM68.0888 201.982L67.6298 205.586C67.6128 205.705 67.6128 205.739 67.6128 205.824C67.6128 206.317 67.9188 206.691 68.7688 206.691C69.8228 206.691 70.7748 206.096 71.1828 205.824L71.6928 201.761C71.3528 201.472 70.5708 200.877 69.4998 200.877C68.5478 200.877 68.1568 201.387 68.0888 201.982ZM77.511 199.908L77.341 201.268C77.307 201.489 77.222 201.591 76.984 201.591H75.964C75.743 201.591 75.658 201.489 75.692 201.268L75.862 199.908C75.896 199.67 75.998 199.568 76.219 199.568H77.239C77.477 199.568 77.545 199.67 77.511 199.908ZM76.712 206.317L76.559 207.677C76.525 207.915 76.423 208 76.202 208H75.182C74.944 208 74.876 207.915 74.91 207.677L75.063 206.317C75.08 206.096 75.199 205.994 75.437 205.994H76.457C76.678 205.994 76.729 206.096 76.712 206.317ZM83.4331 196.44H90.5731C90.8111 196.44 90.9131 196.525 90.8791 196.763L90.7771 197.511C90.7601 197.613 90.7091 197.766 90.6581 197.851L85.2011 207.66C85.0991 207.847 84.9971 208 84.7761 208H83.5521C83.3141 208 83.2291 207.898 83.3651 207.66L88.8221 197.851H83.2801C83.0591 197.851 82.9401 197.766 82.9741 197.528L83.0761 196.763C83.1101 196.525 83.2121 196.44 83.4331 196.44ZM93.7308 199.908L93.5608 201.268C93.5268 201.489 93.4418 201.591 93.2038 201.591H92.1838C91.9628 201.591 91.8778 201.489 91.9118 201.268L92.0818 199.908C92.1158 199.67 92.2178 199.568 92.4388 199.568H93.4588C93.6968 199.568 93.7648 199.67 93.7308 199.908ZM92.9318 206.317L92.7788 207.677C92.7448 207.915 92.6428 208 92.4218 208H91.4018C91.1638 208 91.0958 207.915 91.1298 207.677L91.2828 206.317C91.2998 206.096 91.4188 205.994 91.6568 205.994H92.6768C92.8978 205.994 92.9488 206.096 92.9318 206.317ZM97.8859 201.268H99.1779C100.708 201.268 101.201 200.775 101.337 199.84L101.439 199.126C101.456 198.99 101.473 198.922 101.473 198.837C101.473 198.106 100.997 197.681 99.6709 197.681C98.2089 197.681 97.6479 198.208 97.5799 199.126L97.5629 199.347C97.5459 199.568 97.4269 199.67 97.2059 199.67H96.2199C95.9819 199.67 95.9309 199.551 95.9479 199.347L95.9819 198.905C96.0839 197.528 96.9339 196.304 99.8409 196.304C102.34 196.304 103.139 197.29 103.139 198.497C103.139 198.633 103.122 198.786 103.105 198.956L102.952 200.112C102.833 201.047 102.459 201.608 101.354 201.914C102.323 202.22 102.646 202.798 102.646 203.529C102.646 203.682 102.629 203.835 102.612 203.988L102.408 205.603C102.238 206.997 101.405 208.136 98.5149 208.136C95.9479 208.136 95.0809 207.133 95.0809 205.892C95.0809 205.807 95.0809 205.722 95.0979 205.535L95.1489 205.093C95.1829 204.872 95.2849 204.77 95.5059 204.77H96.4919C96.7639 204.77 96.7809 204.906 96.7639 205.093L96.7469 205.314C96.7299 205.467 96.7299 205.535 96.7299 205.603C96.7299 206.334 97.2739 206.759 98.6169 206.759C100.096 206.759 100.691 206.232 100.81 205.314L100.963 204.073C100.98 203.903 100.98 203.818 100.98 203.75C100.98 203.036 100.487 202.645 99.1609 202.645H97.7159C97.4949 202.645 97.4099 202.526 97.4269 202.322L97.5119 201.591C97.5459 201.353 97.6479 201.268 97.8859 201.268ZM104.667 205.45L105.466 198.922C105.636 197.528 106.503 196.304 109.41 196.304C111.943 196.304 112.878 197.341 112.878 198.565C112.878 198.684 112.861 198.837 112.844 198.99L112.062 205.518C111.892 206.912 110.991 208.136 108.101 208.136C105.551 208.136 104.633 207.116 104.633 205.892C104.633 205.773 104.65 205.586 104.667 205.45ZM110.413 205.246L111.161 199.279C111.178 199.126 111.178 199.024 111.178 198.939C111.178 198.157 110.651 197.715 109.308 197.715C107.812 197.715 107.217 198.276 107.098 199.194L106.367 205.093C106.35 205.229 106.316 205.416 106.316 205.501C106.316 206.283 106.86 206.725 108.22 206.725C109.716 206.725 110.294 206.164 110.413 205.246ZM122.861 207.15C122.317 207.524 121.382 208.136 119.954 208.136C118.509 208.136 117.761 207.388 117.761 206.215C117.761 206.096 117.778 205.943 117.795 205.824L118.305 201.744C118.475 200.35 119.223 199.432 120.94 199.432C122.334 199.432 123.252 200.061 123.694 200.452L123.796 199.908C123.847 199.67 123.915 199.568 124.153 199.568H125.054C125.224 199.568 125.36 199.653 125.326 199.908L124.374 207.66C124.34 207.898 124.238 208 124.017 208H123.099C122.912 208 122.81 207.915 122.827 207.66L122.861 207.15ZM119.886 201.982L119.427 205.586C119.41 205.705 119.41 205.739 119.41 205.824C119.41 206.317 119.716 206.691 120.566 206.691C121.62 206.691 122.572 206.096 122.98 205.824L123.49 201.761C123.15 201.472 122.368 200.877 121.297 200.877C120.345 200.877 119.954 201.387 119.886 201.982ZM128.424 206.317L128.254 207.677C128.22 207.915 128.135 208 127.914 208H126.894C126.673 208 126.588 207.915 126.622 207.677L126.775 206.317C126.792 206.096 126.911 205.994 127.132 205.994H128.169C128.39 205.994 128.458 206.096 128.424 206.317ZM130.426 207.66L131.395 199.891C131.429 199.67 131.514 199.568 131.735 199.568H132.653C132.874 199.568 132.942 199.67 132.925 199.891L132.891 200.418C133.384 200.027 134.251 199.432 135.696 199.432C136.75 199.432 137.532 199.891 137.77 200.588C138.246 200.231 139.113 199.432 140.779 199.432C142.156 199.432 142.989 200.197 142.989 201.285C142.989 201.387 142.989 201.455 142.972 201.608L142.224 207.66C142.19 207.898 142.088 208 141.867 208H140.881C140.711 208 140.575 207.898 140.609 207.66L141.289 202.084C141.306 201.948 141.323 201.846 141.323 201.761C141.323 201.217 140.966 200.877 140.184 200.877C139.096 200.877 138.229 201.455 137.872 201.744L137.141 207.66C137.107 207.898 137.005 208 136.784 208H135.798C135.611 208 135.492 207.898 135.526 207.66L136.189 202.186C136.206 202.033 136.223 201.829 136.223 201.761C136.223 201.217 135.866 200.877 135.101 200.877C134.03 200.877 133.163 201.455 132.772 201.744L132.058 207.66C132.024 207.898 131.939 208 131.701 208H130.698C130.511 208 130.392 207.898 130.426 207.66ZM146.221 206.317L146.051 207.677C146.017 207.915 145.932 208 145.711 208H144.691C144.47 208 144.385 207.915 144.419 207.677L144.572 206.317C144.589 206.096 144.708 205.994 144.929 205.994H145.966C146.187 205.994 146.255 206.096 146.221 206.317ZM156.977 207.15C156.433 207.524 155.498 208.136 154.07 208.136C152.625 208.136 151.877 207.388 151.877 206.215C151.877 206.096 151.894 205.943 151.911 205.824L152.421 201.744C152.591 200.35 153.339 199.432 155.056 199.432C156.45 199.432 157.368 200.061 157.81 200.452L157.912 199.908C157.963 199.67 158.031 199.568 158.269 199.568H159.17C159.34 199.568 159.476 199.653 159.442 199.908L158.49 207.66C158.456 207.898 158.354 208 158.133 208H157.215C157.028 208 156.926 207.915 156.943 207.66L156.977 207.15ZM154.002 201.982L153.543 205.586C153.526 205.705 153.526 205.739 153.526 205.824C153.526 206.317 153.832 206.691 154.682 206.691C155.736 206.691 156.688 206.096 157.096 205.824L157.606 201.761C157.266 201.472 156.484 200.877 155.413 200.877C154.461 200.877 154.07 201.387 154.002 201.982ZM166.211 196.44H172.11C172.314 196.44 172.433 196.508 172.399 196.763L172.314 197.528C172.28 197.766 172.178 197.851 171.957 197.851H167.418L167.044 200.775H168.591C170.869 200.775 171.94 201.693 171.94 202.968C171.94 203.053 171.923 203.223 171.906 203.393L171.651 205.552C171.481 206.946 170.682 208.153 167.775 208.153C165.208 208.153 164.426 207.133 164.426 205.909C164.426 205.79 164.426 205.722 164.443 205.552L164.494 205.11C164.528 204.872 164.613 204.77 164.834 204.77H165.837C166.058 204.77 166.126 204.855 166.109 205.11L166.092 205.297C166.075 205.45 166.075 205.484 166.075 205.62C166.075 206.334 166.534 206.776 167.894 206.776C169.39 206.776 169.883 206.249 170.002 205.314L170.206 203.699C170.24 203.444 170.24 203.359 170.24 203.291C170.24 202.628 169.798 202.152 168.421 202.152H165.531C165.293 202.152 165.225 202.033 165.259 201.812L165.871 196.78C165.905 196.542 165.99 196.44 166.211 196.44ZM176.091 199.908L175.921 201.268C175.887 201.489 175.802 201.591 175.564 201.591H174.544C174.323 201.591 174.238 201.489 174.272 201.268L174.442 199.908C174.476 199.67 174.578 199.568 174.799 199.568H175.819C176.057 199.568 176.125 199.67 176.091 199.908ZM175.292 206.317L175.139 207.677C175.105 207.915 175.003 208 174.782 208H173.762C173.524 208 173.456 207.915 173.49 207.677L173.643 206.317C173.66 206.096 173.779 205.994 174.017 205.994H175.037C175.258 205.994 175.309 206.096 175.292 206.317ZM177.73 205.45L178.529 198.922C178.699 197.528 179.566 196.304 182.473 196.304C185.006 196.304 185.941 197.341 185.941 198.565C185.941 198.684 185.924 198.837 185.907 198.99L185.125 205.518C184.955 206.912 184.054 208.136 181.164 208.136C178.614 208.136 177.696 207.116 177.696 205.892C177.696 205.773 177.713 205.586 177.73 205.45ZM183.476 205.246L184.224 199.279C184.241 199.126 184.241 199.024 184.241 198.939C184.241 198.157 183.714 197.715 182.371 197.715C180.875 197.715 180.28 198.276 180.161 199.194L179.43 205.093C179.413 205.229 179.379 205.416 179.379 205.501C179.379 206.283 179.923 206.725 181.283 206.725C182.779 206.725 183.357 206.164 183.476 205.246ZM187.442 205.45L188.241 198.922C188.411 197.528 189.278 196.304 192.185 196.304C194.718 196.304 195.653 197.341 195.653 198.565C195.653 198.684 195.636 198.837 195.619 198.99L194.837 205.518C194.667 206.912 193.766 208.136 190.876 208.136C188.326 208.136 187.408 207.116 187.408 205.892C187.408 205.773 187.425 205.586 187.442 205.45ZM193.188 205.246L193.936 199.279C193.953 199.126 193.953 199.024 193.953 198.939C193.953 198.157 193.426 197.715 192.083 197.715C190.587 197.715 189.992 198.276 189.873 199.194L189.142 205.093C189.125 205.229 189.091 205.416 189.091 205.501C189.091 206.283 189.635 206.725 190.995 206.725C192.491 206.725 193.069 206.164 193.188 205.246ZM201.777 199.568H202.695C202.916 199.568 203.001 199.67 202.984 199.908L202.933 200.435C203.477 200.061 204.429 199.432 205.84 199.432C207.285 199.432 208.033 200.18 208.033 201.37C208.033 201.489 208.033 201.557 208.016 201.744L207.506 205.824C207.336 207.218 206.588 208.136 204.871 208.136C203.545 208.136 202.593 207.558 202.151 207.184L201.675 211.128C201.641 211.366 201.556 211.468 201.318 211.468H200.332C200.145 211.468 200.009 211.4 200.043 211.128L201.437 199.908C201.471 199.67 201.556 199.568 201.777 199.568ZM205.908 205.586L206.35 202.05C206.367 201.931 206.384 201.829 206.384 201.744C206.384 201.251 206.061 200.877 205.245 200.877C204.157 200.877 203.222 201.472 202.831 201.761L202.321 205.824C202.644 206.096 203.426 206.691 204.514 206.691C205.483 206.691 205.84 206.181 205.908 205.586ZM211.199 206.317L211.029 207.677C210.995 207.915 210.91 208 210.689 208H209.669C209.448 208 209.363 207.915 209.397 207.677L209.55 206.317C209.567 206.096 209.686 205.994 209.907 205.994H210.944C211.165 205.994 211.233 206.096 211.199 206.317ZM213.201 207.66L214.17 199.891C214.204 199.67 214.289 199.568 214.51 199.568H215.428C215.649 199.568 215.717 199.67 215.7 199.891L215.666 200.418C216.159 200.027 217.026 199.432 218.471 199.432C219.525 199.432 220.307 199.891 220.545 200.588C221.021 200.231 221.888 199.432 223.554 199.432C224.931 199.432 225.764 200.197 225.764 201.285C225.764 201.387 225.764 201.455 225.747 201.608L224.999 207.66C224.965 207.898 224.863 208 224.642 208H223.656C223.486 208 223.35 207.898 223.384 207.66L224.064 202.084C224.081 201.948 224.098 201.846 224.098 201.761C224.098 201.217 223.741 200.877 222.959 200.877C221.871 200.877 221.004 201.455 220.647 201.744L219.916 207.66C219.882 207.898 219.78 208 219.559 208H218.573C218.386 208 218.267 207.898 218.301 207.66L218.964 202.186C218.981 202.033 218.998 201.829 218.998 201.761C218.998 201.217 218.641 200.877 217.876 200.877C216.805 200.877 215.938 201.455 215.547 201.744L214.833 207.66C214.799 207.898 214.714 208 214.476 208H213.473C213.286 208 213.167 207.898 213.201 207.66ZM228.996 206.317L228.826 207.677C228.792 207.915 228.707 208 228.486 208H227.466C227.245 208 227.16 207.915 227.194 207.677L227.347 206.317C227.364 206.096 227.483 205.994 227.704 205.994H228.741C228.962 205.994 229.03 206.096 228.996 206.317Z" fill="black"/>
<path d="M12.5 191.25C14.1927 191.25 15.7715 191.681 17.2363 192.544C18.6523 193.358 19.7754 194.473 20.6055 195.889C21.4518 197.354 21.875 198.932 21.875 200.625C21.875 202.318 21.4518 203.896 20.6055 205.361C19.7754 206.777 18.6523 207.9 17.2363 208.73C15.7715 209.577 14.1927 210 12.5 210C10.8073 210 9.22852 209.577 7.76367 208.73C6.34766 207.9 5.23275 206.777 4.41895 205.361C3.55632 203.896 3.125 202.318 3.125 200.625C3.125 198.932 3.55632 197.354 4.41895 195.889C5.23275 194.473 6.34766 193.358 7.76367 192.544C9.22852 191.681 10.8073 191.25 12.5 191.25ZM12.5 192.812C11.084 192.812 9.76562 193.171 8.54492 193.887C7.37305 194.57 6.44531 195.498 5.76172 196.67C5.04557 197.891 4.6875 199.209 4.6875 200.625C4.6875 202.041 5.04557 203.359 5.76172 204.58C6.44531 205.752 7.37305 206.68 8.54492 207.363C9.76562 208.079 11.084 208.438 12.5 208.438C13.916 208.438 15.2344 208.079 16.4551 207.363C17.627 206.68 18.5547 205.752 19.2383 204.58C19.9544 203.359 20.3125 202.041 20.3125 200.625C20.3125 199.209 19.9544 197.891 19.2383 196.67C18.5547 195.498 17.627 194.57 16.4551 193.887C15.2344 193.171 13.916 192.812 12.5 192.812ZM11.7188 194.375H13.2812V199.844H17.1875V201.406H11.7188V194.375Z" fill="black"/>
<path d="M45.134 245.699H42.975L42.482 249.66C42.448 249.898 42.38 250 42.142 250H41.105C40.884 250 40.782 249.881 40.816 249.66L42.159 238.78C42.193 238.542 42.295 238.44 42.516 238.44H45.916C48.551 238.44 49.503 239.528 49.503 240.837C49.503 240.905 49.503 240.973 49.469 241.279L49.265 243.166C49.095 244.662 48.109 245.699 45.134 245.699ZM45.831 239.851H43.706L43.162 244.288H45.253C46.817 244.288 47.531 243.812 47.65 242.894L47.82 241.5C47.837 241.347 47.837 241.228 47.837 241.16C47.837 240.31 47.31 239.851 45.831 239.851ZM55.4737 249.677L55.5077 249.167C55.0147 249.558 54.1137 250.136 52.7197 250.136C51.3087 250.136 50.5097 249.371 50.5097 248.266C50.5097 248.164 50.5097 248.113 50.5267 247.977L51.2747 241.908C51.3087 241.67 51.4107 241.568 51.6317 241.568H52.6177C52.7877 241.568 52.9237 241.636 52.8897 241.908L52.1927 247.569C52.1757 247.705 52.1757 247.756 52.1757 247.841C52.1757 248.368 52.4987 248.691 53.3147 248.691C54.3687 248.691 55.2357 248.13 55.6437 247.841L56.3577 241.908C56.3917 241.67 56.4937 241.568 56.7147 241.568H57.7177C57.9557 241.568 58.0237 241.687 57.9897 241.908L57.0207 249.677C56.9867 249.915 56.9017 250 56.6637 250H55.7627C55.5417 250 55.4567 249.915 55.4737 249.677ZM60.6804 241.568H61.5984C61.8194 241.568 61.9044 241.67 61.8874 241.891L61.8534 242.435C62.3804 242.027 63.3494 241.432 64.7434 241.432C66.1204 241.432 66.9364 242.214 66.9364 243.319C66.9364 243.404 66.9364 243.523 66.9194 243.693L66.1884 249.66C66.1544 249.898 66.0524 250 65.8144 250H64.8454C64.6584 250 64.5394 249.932 64.5734 249.66L65.2534 244.084C65.2704 243.965 65.2874 243.829 65.2874 243.761C65.2874 243.217 64.9644 242.877 64.1484 242.877C63.0604 242.877 62.1254 243.455 61.7174 243.744L61.0034 249.66C60.9694 249.898 60.8674 250 60.6464 250H59.6434C59.4564 250 59.3374 249.932 59.3714 249.66L60.3404 241.891C60.3744 241.67 60.4594 241.568 60.6804 241.568ZM71.3756 242.928L70.8146 247.416C70.7976 247.535 70.7976 247.62 70.7976 247.705C70.7976 248.334 71.1886 248.623 72.3786 248.623H72.7016C72.9396 248.623 73.0076 248.759 72.9906 248.963L72.9226 249.677C72.9056 249.915 72.7866 250 72.5486 250H71.9876C69.8796 250 69.1486 249.32 69.1486 248.113C69.1486 247.96 69.1486 247.858 69.1656 247.671L69.7436 242.928H68.8086C68.5706 242.928 68.5196 242.809 68.5366 242.588L68.6046 241.993C68.6216 241.772 68.7406 241.687 68.9616 241.67L69.8966 241.602H69.9136L70.1346 239.885C70.1686 239.647 70.2536 239.545 70.4916 239.545H71.4776C71.7156 239.545 71.7836 239.664 71.7496 239.885L71.5286 241.602H73.2966C73.5346 241.602 73.5856 241.721 73.5686 241.908L73.5006 242.605C73.4836 242.843 73.3646 242.928 73.1266 242.928H71.3756ZM74.4642 247.807L74.9572 243.761C75.1272 242.367 76.1472 241.432 78.6122 241.432C80.7542 241.432 81.7742 242.231 81.7742 243.455C81.7742 243.557 81.7742 243.608 81.7572 243.761L81.2642 247.807C81.0942 249.201 80.0912 250.136 77.6262 250.136C75.4672 250.136 74.4472 249.32 74.4472 248.096C74.4472 248.011 74.4472 247.96 74.4642 247.807ZM79.6662 247.671L80.1252 244.033C80.1592 243.812 80.1592 243.778 80.1592 243.727C80.1592 243.098 79.6152 242.758 78.4932 242.758C77.2182 242.758 76.6572 243.166 76.5722 243.897L76.0962 247.671C76.0792 247.79 76.0792 247.807 76.0792 247.858C76.0792 248.504 76.5722 248.81 77.7452 248.81C79.0202 248.81 79.5812 248.402 79.6662 247.671ZM88.3452 243.931L88.3792 243.642C88.3962 243.489 88.3962 243.404 88.3962 243.37C88.3962 242.911 87.9032 242.605 86.9002 242.605C85.8632 242.605 85.3022 242.826 85.2172 243.438L85.1832 243.693C85.1662 243.846 85.1662 243.863 85.1662 243.88C85.1662 244.186 85.2512 244.441 85.7612 244.611L88.2262 245.461C89.1272 245.767 89.5522 246.362 89.5522 246.957C89.5522 247.076 89.5352 247.212 89.5182 247.365L89.4332 248.215C89.3312 249.269 88.3622 250.136 86.0162 250.136C83.8912 250.136 82.9732 249.286 82.9732 248.351C82.9732 248.283 82.9732 248.249 82.9902 248.079L83.0412 247.671C83.0752 247.45 83.1602 247.365 83.3812 247.365H84.2822C84.4692 247.365 84.5372 247.433 84.5202 247.671L84.4862 247.994C84.4692 248.113 84.4692 248.181 84.4692 248.215C84.4692 248.674 85.0982 248.946 86.0842 248.946C87.1722 248.946 87.8692 248.691 87.9542 248.079L88.0052 247.688C88.0222 247.501 88.0222 247.484 88.0222 247.399C88.0222 247.127 87.7332 246.889 87.2232 246.702L84.8772 245.869C84.0952 245.597 83.6532 245.019 83.6532 244.271C83.6532 244.237 83.6532 244.186 83.6702 243.999L83.7382 243.421C83.8572 242.367 84.6562 241.432 86.9852 241.432C89.0422 241.432 89.8922 242.333 89.8922 243.285C89.8922 243.37 89.8922 243.387 89.8752 243.574L89.8412 243.931C89.8242 244.152 89.7222 244.237 89.5012 244.237H88.6002C88.4132 244.237 88.3282 244.135 88.3452 243.931ZM99.9667 249.15C99.4227 249.524 98.5387 250.136 97.0767 250.136C95.6317 250.136 94.8837 249.388 94.8837 248.215C94.8837 248.096 94.9007 247.943 94.9177 247.824L95.4277 243.744C95.5977 242.35 96.3457 241.432 98.0627 241.432C99.3717 241.432 100.324 242.027 100.766 242.401L101.242 238.457C101.276 238.219 101.378 238.117 101.599 238.117H102.602C102.823 238.117 102.908 238.236 102.874 238.457L101.497 249.66C101.463 249.898 101.361 250 101.14 250H100.222C100.001 250 99.9497 249.898 99.9497 249.66L99.9667 249.15ZM97.0087 243.982L96.5667 247.518C96.5497 247.637 96.5327 247.739 96.5327 247.824C96.5327 248.317 96.8557 248.691 97.6887 248.691C98.7427 248.691 99.6947 248.096 100.103 247.824L100.613 243.761C100.273 243.472 99.4737 242.877 98.4197 242.877C97.4507 242.877 97.0767 243.387 97.0087 243.982ZM110.953 243.761L110.698 245.835C110.681 246.039 110.562 246.141 110.358 246.141H105.734L105.547 247.586C105.53 247.722 105.513 247.875 105.513 247.943C105.513 248.521 105.921 248.878 107.094 248.878C108.386 248.878 108.845 248.436 108.93 247.79L108.964 247.518C108.998 247.297 109.117 247.195 109.338 247.195H110.188C110.409 247.195 110.477 247.314 110.46 247.518L110.426 247.807C110.256 249.201 109.474 250.136 106.992 250.136C104.833 250.136 103.932 249.337 103.932 248.13C103.932 248.011 103.932 247.96 103.949 247.807L104.442 243.761C104.612 242.367 105.513 241.432 107.961 241.432C110.069 241.432 110.97 242.231 110.97 243.438C110.97 243.54 110.97 243.608 110.953 243.761ZM106.023 243.829L105.887 244.934H109.287L109.423 243.914C109.44 243.778 109.44 243.71 109.44 243.642C109.44 243.064 109.032 242.69 107.859 242.69C106.584 242.69 106.108 243.149 106.023 243.829ZM121.034 243.931L121.068 243.642C121.085 243.489 121.085 243.404 121.085 243.37C121.085 242.911 120.592 242.605 119.589 242.605C118.552 242.605 117.991 242.826 117.906 243.438L117.872 243.693C117.855 243.846 117.855 243.863 117.855 243.88C117.855 244.186 117.94 244.441 118.45 244.611L120.915 245.461C121.816 245.767 122.241 246.362 122.241 246.957C122.241 247.076 122.224 247.212 122.207 247.365L122.122 248.215C122.02 249.269 121.051 250.136 118.705 250.136C116.58 250.136 115.662 249.286 115.662 248.351C115.662 248.283 115.662 248.249 115.679 248.079L115.73 247.671C115.764 247.45 115.849 247.365 116.07 247.365H116.971C117.158 247.365 117.226 247.433 117.209 247.671L117.175 247.994C117.158 248.113 117.158 248.181 117.158 248.215C117.158 248.674 117.787 248.946 118.773 248.946C119.861 248.946 120.558 248.691 120.643 248.079L120.694 247.688C120.711 247.501 120.711 247.484 120.711 247.399C120.711 247.127 120.422 246.889 119.912 246.702L117.566 245.869C116.784 245.597 116.342 245.019 116.342 244.271C116.342 244.237 116.342 244.186 116.359 243.999L116.427 243.421C116.546 242.367 117.345 241.432 119.674 241.432C121.731 241.432 122.581 242.333 122.581 243.285C122.581 243.37 122.581 243.387 122.564 243.574L122.53 243.931C122.513 244.152 122.411 244.237 122.19 244.237H121.289C121.102 244.237 121.017 244.135 121.034 243.931ZM129.086 249.15C128.542 249.524 127.607 250.136 126.179 250.136C124.734 250.136 123.986 249.388 123.986 248.215C123.986 248.096 124.003 247.943 124.02 247.824L124.53 243.744C124.7 242.35 125.448 241.432 127.165 241.432C128.559 241.432 129.477 242.061 129.919 242.452L130.021 241.908C130.072 241.67 130.14 241.568 130.378 241.568H131.279C131.449 241.568 131.585 241.653 131.551 241.908L130.599 249.66C130.565 249.898 130.463 250 130.242 250H129.324C129.137 250 129.035 249.915 129.052 249.66L129.086 249.15ZM126.111 243.982L125.652 247.586C125.635 247.705 125.635 247.739 125.635 247.824C125.635 248.317 125.941 248.691 126.791 248.691C127.845 248.691 128.797 248.096 129.205 247.824L129.715 243.761C129.375 243.472 128.593 242.877 127.522 242.877C126.57 242.877 126.179 243.387 126.111 243.982ZM135.941 238.457L134.581 249.66C134.547 249.898 134.462 250 134.224 250H133.221C133 250 132.915 249.898 132.949 249.66L134.326 238.457C134.36 238.219 134.462 238.117 134.683 238.117H135.686C135.907 238.117 135.975 238.219 135.941 238.457ZM139.926 238.457L139.739 239.987C139.705 240.208 139.62 240.31 139.399 240.31H138.396C138.175 240.31 138.09 240.208 138.124 239.987L138.311 238.457C138.345 238.219 138.447 238.117 138.668 238.117H139.671C139.892 238.117 139.96 238.219 139.926 238.457ZM139.518 241.908L138.566 249.66C138.532 249.898 138.43 250 138.209 250H137.206C136.985 250 136.9 249.898 136.934 249.66L137.903 241.908C137.937 241.687 138.022 241.568 138.243 241.568H139.229C139.467 241.568 139.552 241.67 139.518 241.908ZM146.069 249.15C145.525 249.524 144.641 250.136 143.179 250.136C141.734 250.136 140.986 249.388 140.986 248.215C140.986 248.096 141.003 247.943 141.02 247.824L141.53 243.744C141.7 242.35 142.448 241.432 144.165 241.432C145.474 241.432 146.426 242.027 146.868 242.401L147.344 238.457C147.378 238.219 147.48 238.117 147.701 238.117H148.704C148.925 238.117 149.01 238.236 148.976 238.457L147.599 249.66C147.565 249.898 147.463 250 147.242 250H146.324C146.103 250 146.052 249.898 146.052 249.66L146.069 249.15ZM143.111 243.982L142.669 247.518C142.652 247.637 142.635 247.739 142.635 247.824C142.635 248.317 142.958 248.691 143.791 248.691C144.845 248.691 145.797 248.096 146.205 247.824L146.715 243.761C146.375 243.472 145.576 242.877 144.522 242.877C143.553 242.877 143.179 243.387 143.111 243.982ZM155.117 249.15C154.573 249.524 153.638 250.136 152.21 250.136C150.765 250.136 150.017 249.388 150.017 248.215C150.017 248.096 150.034 247.943 150.051 247.824L150.561 243.744C150.731 242.35 151.479 241.432 153.196 241.432C154.59 241.432 155.508 242.061 155.95 242.452L156.052 241.908C156.103 241.67 156.171 241.568 156.409 241.568H157.31C157.48 241.568 157.616 241.653 157.582 241.908L156.63 249.66C156.596 249.898 156.494 250 156.273 250H155.355C155.168 250 155.066 249.915 155.083 249.66L155.117 249.15ZM152.142 243.982L151.683 247.586C151.666 247.705 151.666 247.739 151.666 247.824C151.666 248.317 151.972 248.691 152.822 248.691C153.876 248.691 154.828 248.096 155.236 247.824L155.746 243.761C155.406 243.472 154.624 242.877 153.553 242.877C152.601 242.877 152.21 243.387 152.142 243.982ZM161.565 241.908L161.395 243.268C161.361 243.489 161.276 243.591 161.038 243.591H160.018C159.797 243.591 159.712 243.489 159.746 243.268L159.916 241.908C159.95 241.67 160.052 241.568 160.273 241.568H161.293C161.531 241.568 161.599 241.67 161.565 241.908ZM160.766 248.317L160.613 249.677C160.579 249.915 160.477 250 160.256 250H159.236C158.998 250 158.93 249.915 158.964 249.677L159.117 248.317C159.134 248.096 159.253 247.994 159.491 247.994H160.511C160.732 247.994 160.783 248.096 160.766 248.317ZM173.624 243.761L173.369 245.835C173.352 246.039 173.233 246.141 173.029 246.141H168.405L168.218 247.586C168.201 247.722 168.184 247.875 168.184 247.943C168.184 248.521 168.592 248.878 169.765 248.878C171.057 248.878 171.516 248.436 171.601 247.79L171.635 247.518C171.669 247.297 171.788 247.195 172.009 247.195H172.859C173.08 247.195 173.148 247.314 173.131 247.518L173.097 247.807C172.927 249.201 172.145 250.136 169.663 250.136C167.504 250.136 166.603 249.337 166.603 248.13C166.603 248.011 166.603 247.96 166.62 247.807L167.113 243.761C167.283 242.367 168.184 241.432 170.632 241.432C172.74 241.432 173.641 242.231 173.641 243.438C173.641 243.54 173.641 243.608 173.624 243.761ZM168.694 243.829L168.558 244.934H171.958L172.094 243.914C172.111 243.778 172.111 243.71 172.111 243.642C172.111 243.064 171.703 242.69 170.53 242.69C169.255 242.69 168.779 243.149 168.694 243.829ZM176.294 241.568H177.212C177.433 241.568 177.518 241.67 177.501 241.891L177.467 242.435C177.994 242.027 178.963 241.432 180.357 241.432C181.734 241.432 182.55 242.214 182.55 243.319C182.55 243.404 182.55 243.523 182.533 243.693L181.802 249.66C181.768 249.898 181.666 250 181.428 250H180.459C180.272 250 180.153 249.932 180.187 249.66L180.867 244.084C180.884 243.965 180.901 243.829 180.901 243.761C180.901 243.217 180.578 242.877 179.762 242.877C178.674 242.877 177.739 243.455 177.331 243.744L176.617 249.66C176.583 249.898 176.481 250 176.26 250H175.257C175.07 250 174.951 249.932 174.985 249.66L175.954 241.891C175.988 241.67 176.073 241.568 176.294 241.568ZM191.799 241.432C193.975 241.432 194.808 242.265 194.808 243.438C194.808 243.54 194.808 243.625 194.791 243.795L194.757 244.067C194.723 244.305 194.621 244.39 194.4 244.39H193.482C193.278 244.39 193.193 244.288 193.21 244.084L193.227 243.88C193.244 243.727 193.244 243.693 193.244 243.625C193.244 243.081 192.87 242.758 191.714 242.758C190.422 242.758 189.98 243.166 189.895 243.88L189.436 247.518C189.419 247.654 189.402 247.807 189.402 247.892C189.402 248.487 189.793 248.81 190.949 248.81C192.241 248.81 192.666 248.402 192.768 247.688L192.819 247.348C192.853 247.127 192.938 247.025 193.159 247.025H194.077C194.332 247.025 194.366 247.161 194.349 247.348L194.298 247.807C194.145 249.167 193.295 250.136 190.796 250.136C188.654 250.136 187.77 249.337 187.77 248.13C187.77 248.028 187.77 247.943 187.787 247.807L188.28 243.761C188.45 242.367 189.334 241.432 191.799 241.432ZM201.137 249.15C200.593 249.524 199.658 250.136 198.23 250.136C196.785 250.136 196.037 249.388 196.037 248.215C196.037 248.096 196.054 247.943 196.071 247.824L196.581 243.744C196.751 242.35 197.499 241.432 199.216 241.432C200.61 241.432 201.528 242.061 201.97 242.452L202.072 241.908C202.123 241.67 202.191 241.568 202.429 241.568H203.33C203.5 241.568 203.636 241.653 203.602 241.908L202.65 249.66C202.616 249.898 202.514 250 202.293 250H201.375C201.188 250 201.086 249.915 201.103 249.66L201.137 249.15ZM198.162 243.982L197.703 247.586C197.686 247.705 197.686 247.739 197.686 247.824C197.686 248.317 197.992 248.691 198.842 248.691C199.896 248.691 200.848 248.096 201.256 247.824L201.766 243.761C201.426 243.472 200.644 242.877 199.573 242.877C198.621 242.877 198.23 243.387 198.162 243.982ZM210.151 249.15C209.607 249.524 208.723 250.136 207.261 250.136C205.816 250.136 205.068 249.388 205.068 248.215C205.068 248.096 205.085 247.943 205.102 247.824L205.612 243.744C205.782 242.35 206.53 241.432 208.247 241.432C209.556 241.432 210.508 242.027 210.95 242.401L211.426 238.457C211.46 238.219 211.562 238.117 211.783 238.117H212.786C213.007 238.117 213.092 238.236 213.058 238.457L211.681 249.66C211.647 249.898 211.545 250 211.324 250H210.406C210.185 250 210.134 249.898 210.134 249.66L210.151 249.15ZM207.193 243.982L206.751 247.518C206.734 247.637 206.717 247.739 206.717 247.824C206.717 248.317 207.04 248.691 207.873 248.691C208.927 248.691 209.879 248.096 210.287 247.824L210.797 243.761C210.457 243.472 209.658 242.877 208.604 242.877C207.635 242.877 207.261 243.387 207.193 243.982ZM219.2 249.15C218.656 249.524 217.721 250.136 216.293 250.136C214.848 250.136 214.1 249.388 214.1 248.215C214.1 248.096 214.117 247.943 214.134 247.824L214.644 243.744C214.814 242.35 215.562 241.432 217.279 241.432C218.673 241.432 219.591 242.061 220.033 242.452L220.135 241.908C220.186 241.67 220.254 241.568 220.492 241.568H221.393C221.563 241.568 221.699 241.653 221.665 241.908L220.713 249.66C220.679 249.898 220.577 250 220.356 250H219.438C219.251 250 219.149 249.915 219.166 249.66L219.2 249.15ZM216.225 243.982L215.766 247.586C215.749 247.705 215.749 247.739 215.749 247.824C215.749 248.317 216.055 248.691 216.905 248.691C217.959 248.691 218.911 248.096 219.319 247.824L219.829 243.761C219.489 243.472 218.707 242.877 217.636 242.877C216.684 242.877 216.293 243.387 216.225 243.982ZM231.783 243.931L231.817 243.642C231.834 243.489 231.834 243.404 231.834 243.37C231.834 242.911 231.341 242.605 230.338 242.605C229.301 242.605 228.74 242.826 228.655 243.438L228.621 243.693C228.604 243.846 228.604 243.863 228.604 243.88C228.604 244.186 228.689 244.441 229.199 244.611L231.664 245.461C232.565 245.767 232.99 246.362 232.99 246.957C232.99 247.076 232.973 247.212 232.956 247.365L232.871 248.215C232.769 249.269 231.8 250.136 229.454 250.136C227.329 250.136 226.411 249.286 226.411 248.351C226.411 248.283 226.411 248.249 226.428 248.079L226.479 247.671C226.513 247.45 226.598 247.365 226.819 247.365H227.72C227.907 247.365 227.975 247.433 227.958 247.671L227.924 247.994C227.907 248.113 227.907 248.181 227.907 248.215C227.907 248.674 228.536 248.946 229.522 248.946C230.61 248.946 231.307 248.691 231.392 248.079L231.443 247.688C231.46 247.501 231.46 247.484 231.46 247.399C231.46 247.127 231.171 246.889 230.661 246.702L228.315 245.869C227.533 245.597 227.091 245.019 227.091 244.271C227.091 244.237 227.091 244.186 227.108 243.999L227.176 243.421C227.295 242.367 228.094 241.432 230.423 241.432C232.48 241.432 233.33 242.333 233.33 243.285C233.33 243.37 233.33 243.387 233.313 243.574L233.279 243.931C233.262 244.152 233.16 244.237 232.939 244.237H232.038C231.851 244.237 231.766 244.135 231.783 243.931ZM241.773 243.761L241.518 245.835C241.501 246.039 241.382 246.141 241.178 246.141H236.554L236.367 247.586C236.35 247.722 236.333 247.875 236.333 247.943C236.333 248.521 236.741 248.878 237.914 248.878C239.206 248.878 239.665 248.436 239.75 247.79L239.784 247.518C239.818 247.297 239.937 247.195 240.158 247.195H241.008C241.229 247.195 241.297 247.314 241.28 247.518L241.246 247.807C241.076 249.201 240.294 250.136 237.812 250.136C235.653 250.136 234.752 249.337 234.752 248.13C234.752 248.011 234.752 247.96 234.769 247.807L235.262 243.761C235.432 242.367 236.333 241.432 238.781 241.432C240.889 241.432 241.79 242.231 241.79 243.438C241.79 243.54 241.79 243.608 241.773 243.761ZM236.843 243.829L236.707 244.934H240.107L240.243 243.914C240.26 243.778 240.26 243.71 240.26 243.642C240.26 243.064 239.852 242.69 238.679 242.69C237.404 242.69 236.928 243.149 236.843 243.829ZM248.285 249.15C247.741 249.524 246.857 250.136 245.395 250.136C243.95 250.136 243.202 249.388 243.202 248.215C243.202 248.096 243.219 247.943 243.236 247.824L243.746 243.744C243.916 242.35 244.664 241.432 246.381 241.432C247.69 241.432 248.642 242.027 249.084 242.401L249.56 238.457C249.594 238.219 249.696 238.117 249.917 238.117H250.92C251.141 238.117 251.226 238.236 251.192 238.457L249.815 249.66C249.781 249.898 249.679 250 249.458 250H248.54C248.319 250 248.268 249.898 248.268 249.66L248.285 249.15ZM245.327 243.982L244.885 247.518C244.868 247.637 244.851 247.739 244.851 247.824C244.851 248.317 245.174 248.691 246.007 248.691C247.061 248.691 248.013 248.096 248.421 247.824L248.931 243.761C248.591 243.472 247.792 242.877 246.738 242.877C245.769 242.877 245.395 243.387 245.327 243.982ZM259.271 243.761L259.016 245.835C258.999 246.039 258.88 246.141 258.676 246.141H254.052L253.865 247.586C253.848 247.722 253.831 247.875 253.831 247.943C253.831 248.521 254.239 248.878 255.412 248.878C256.704 248.878 257.163 248.436 257.248 247.79L257.282 247.518C257.316 247.297 257.435 247.195 257.656 247.195H258.506C258.727 247.195 258.795 247.314 258.778 247.518L258.744 247.807C258.574 249.201 257.792 250.136 255.31 250.136C253.151 250.136 252.25 249.337 252.25 248.13C252.25 248.011 252.25 247.96 252.267 247.807L252.76 243.761C252.93 242.367 253.831 241.432 256.279 241.432C258.387 241.432 259.288 242.231 259.288 243.438C259.288 243.54 259.288 243.608 259.271 243.761ZM254.341 243.829L254.205 244.934H257.605L257.741 243.914C257.758 243.778 257.758 243.71 257.758 243.642C257.758 243.064 257.35 242.69 256.177 242.69C254.902 242.69 254.426 243.149 254.341 243.829Z" fill="black"/>
<path d="M17.1875 233.469C18.0339 233.469 18.8151 233.68 19.5312 234.104C20.2474 234.527 20.8171 235.096 21.2402 235.812C21.6634 236.529 21.875 237.31 21.875 238.156C21.875 238.514 21.8099 238.905 21.6797 239.328C21.582 239.67 21.4193 240.093 21.1914 240.598C20.8333 241.428 20.3776 242.315 19.8242 243.259C19.4173 243.975 18.9616 244.715 18.457 245.48L17.1875 247.336L16.5527 246.408C15.8854 245.448 15.2181 244.398 14.5508 243.259C13.9974 242.315 13.5417 241.428 13.1836 240.598C12.9557 240.093 12.793 239.67 12.6953 239.328C12.5651 238.905 12.5 238.514 12.5 238.156C12.5 237.31 12.7116 236.529 13.1348 235.812C13.5579 235.096 14.1276 234.527 14.8438 234.104C15.5599 233.68 16.3411 233.469 17.1875 233.469ZM9.35059 234.982L11.4258 235.739C11.2305 236.211 11.0921 236.716 11.0107 237.253L10.1562 236.936V248.557L14.8438 250.314V246.701L16.4062 248.972V250.241L20.3125 248.581V245.48C20.9473 244.471 21.4681 243.576 21.875 242.795V249.606L15.6494 252.268L9.39941 249.924L3.125 252.634V237.644L9.35059 234.982ZM17.1875 235.031C16.6178 235.031 16.0889 235.17 15.6006 235.446C15.1286 235.723 14.7542 236.105 14.4775 236.594C14.2008 237.066 14.0625 237.587 14.0625 238.156C14.0625 238.319 14.1113 238.571 14.209 238.913C14.3066 239.239 14.4368 239.589 14.5996 239.963C14.8926 240.63 15.332 241.468 15.918 242.478C16.2923 243.112 16.6748 243.723 17.0654 244.309L17.1875 244.504L17.3096 244.309C17.7002 243.723 18.0827 243.112 18.457 242.478C19.043 241.468 19.4824 240.63 19.7754 239.963C19.9382 239.589 20.0684 239.239 20.166 238.913C20.2637 238.571 20.3125 238.319 20.3125 238.156C20.3125 237.587 20.1742 237.066 19.8975 236.594C19.6208 236.105 19.2383 235.723 18.75 235.446C18.278 235.17 17.7572 235.031 17.1875 235.031ZM8.59375 236.984L4.6875 238.669V250.241L8.59375 248.581V236.984ZM17.1875 236.984C17.513 236.984 17.7897 237.098 18.0176 237.326C18.2454 237.554 18.3594 237.831 18.3594 238.156C18.3594 238.482 18.2454 238.758 18.0176 238.986C17.7897 239.214 17.513 239.328 17.1875 239.328C16.862 239.328 16.5853 239.214 16.3574 238.986C16.1296 238.758 16.0156 238.482 16.0156 238.156C16.0156 237.831 16.1296 237.554 16.3574 237.326C16.5853 237.098 16.862 236.984 17.1875 236.984Z" fill="black"/>
<path d="M41.377 285.251L41.547 283.891C41.581 283.653 41.666 283.568 41.904 283.568H42.924C43.162 283.568 43.247 283.653 43.213 283.891L43.043 285.251C43.009 285.472 42.907 285.574 42.686 285.574H41.649C41.411 285.574 41.343 285.472 41.377 285.251ZM40.731 290.198L41.326 286.798C41.36 286.577 41.462 286.475 41.683 286.475H42.414C42.652 286.475 42.703 286.577 42.686 286.798L42.431 290.198L41.87 294.788C41.836 295.026 41.751 295.128 41.513 295.128H40.459C40.221 295.128 40.153 295.026 40.187 294.788L40.731 290.198ZM48.8298 280.44H49.8838C50.1048 280.44 50.2068 280.542 50.2408 280.763L52.2128 291.677C52.2468 291.881 52.1618 292 51.9408 292H50.8868C50.6658 292 50.5638 291.881 50.5298 291.677L50.0708 289.042H46.4838L45.3618 291.677C45.2768 291.881 45.1918 292 44.9538 292H43.9678C43.7298 292 43.6788 291.881 43.7638 291.677L48.3878 280.763C48.4898 280.542 48.6088 280.44 48.8298 280.44ZM49.8668 287.716L49.3058 284.622C49.2208 284.146 49.1358 282.837 49.1358 282.106C49.0168 282.582 48.6088 284.027 48.3708 284.588L47.0278 287.716H49.8668ZM56.7354 280.457L55.3754 291.66C55.3414 291.898 55.2564 292 55.0184 292H54.0154C53.7944 292 53.7094 291.898 53.7434 291.66L55.1204 280.457C55.1544 280.219 55.2564 280.117 55.4774 280.117H56.4804C56.7014 280.117 56.7694 280.219 56.7354 280.457ZM60.7198 280.457L60.5328 281.987C60.4988 282.208 60.4138 282.31 60.1928 282.31H59.1898C58.9688 282.31 58.8838 282.208 58.9178 281.987L59.1048 280.457C59.1388 280.219 59.2408 280.117 59.4618 280.117H60.4648C60.6858 280.117 60.7538 280.219 60.7198 280.457ZM60.3118 283.908L59.3598 291.66C59.3258 291.898 59.2238 292 59.0028 292H57.9998C57.7788 292 57.6938 291.898 57.7278 291.66L58.6968 283.908C58.7308 283.687 58.8158 283.568 59.0368 283.568H60.0228C60.2608 283.568 60.3458 283.67 60.3118 283.908ZM66.8462 285.931L66.8802 285.642C66.8972 285.489 66.8972 285.404 66.8972 285.37C66.8972 284.911 66.4042 284.605 65.4012 284.605C64.3642 284.605 63.8032 284.826 63.7182 285.438L63.6842 285.693C63.6672 285.846 63.6672 285.863 63.6672 285.88C63.6672 286.186 63.7522 286.441 64.2622 286.611L66.7272 287.461C67.6282 287.767 68.0532 288.362 68.0532 288.957C68.0532 289.076 68.0362 289.212 68.0192 289.365L67.9342 290.215C67.8322 291.269 66.8632 292.136 64.5172 292.136C62.3922 292.136 61.4742 291.286 61.4742 290.351C61.4742 290.283 61.4742 290.249 61.4912 290.079L61.5422 289.671C61.5762 289.45 61.6612 289.365 61.8822 289.365H62.7832C62.9702 289.365 63.0382 289.433 63.0212 289.671L62.9872 289.994C62.9702 290.113 62.9702 290.181 62.9702 290.215C62.9702 290.674 63.5992 290.946 64.5852 290.946C65.6732 290.946 66.3702 290.691 66.4552 290.079L66.5062 289.688C66.5232 289.501 66.5232 289.484 66.5232 289.399C66.5232 289.127 66.2342 288.889 65.7242 288.702L63.3782 287.869C62.5962 287.597 62.1542 287.019 62.1542 286.271C62.1542 286.237 62.1542 286.186 62.1712 285.999L62.2392 285.421C62.3582 284.367 63.1572 283.432 65.4862 283.432C67.5432 283.432 68.3932 284.333 68.3932 285.285C68.3932 285.37 68.3932 285.387 68.3762 285.574L68.3422 285.931C68.3252 286.152 68.2232 286.237 68.0022 286.237H67.1012C66.9142 286.237 66.8292 286.135 66.8462 285.931ZM72.6207 284.928L72.0597 289.416C72.0427 289.535 72.0427 289.62 72.0427 289.705C72.0427 290.334 72.4337 290.623 73.6237 290.623H73.9467C74.1847 290.623 74.2527 290.759 74.2357 290.963L74.1677 291.677C74.1507 291.915 74.0317 292 73.7937 292H73.2327C71.1247 292 70.3937 291.32 70.3937 290.113C70.3937 289.96 70.3937 289.858 70.4107 289.671L70.9887 284.928H70.0537C69.8157 284.928 69.7647 284.809 69.7817 284.588L69.8497 283.993C69.8667 283.772 69.9857 283.687 70.2067 283.67L71.1417 283.602H71.1587L71.3797 281.885C71.4137 281.647 71.4987 281.545 71.7367 281.545H72.7227C72.9607 281.545 73.0287 281.664 72.9947 281.885L72.7737 283.602H74.5417C74.7797 283.602 74.8307 283.721 74.8137 283.908L74.7457 284.605C74.7287 284.843 74.6097 284.928 74.3717 284.928H72.6207ZM80.7923 291.15C80.2483 291.524 79.3133 292.136 77.8853 292.136C76.4403 292.136 75.6923 291.388 75.6923 290.215C75.6923 290.096 75.7093 289.943 75.7263 289.824L76.2363 285.744C76.4063 284.35 77.1543 283.432 78.8713 283.432C80.2653 283.432 81.1833 284.061 81.6253 284.452L81.7273 283.908C81.7783 283.67 81.8463 283.568 82.0843 283.568H82.9853C83.1553 283.568 83.2913 283.653 83.2573 283.908L82.3053 291.66C82.2713 291.898 82.1693 292 81.9483 292H81.0303C80.8433 292 80.7413 291.915 80.7583 291.66L80.7923 291.15ZM77.8173 285.982L77.3583 289.586C77.3413 289.705 77.3413 289.739 77.3413 289.824C77.3413 290.317 77.6473 290.691 78.4973 290.691C79.5513 290.691 80.5033 290.096 80.9113 289.824L81.4213 285.761C81.0813 285.472 80.2993 284.877 79.2283 284.877C78.2763 284.877 77.8853 285.387 77.8173 285.982ZM91.1315 284.928L90.5705 289.416C90.5535 289.535 90.5535 289.62 90.5535 289.705C90.5535 290.334 90.9445 290.623 92.1345 290.623H92.4575C92.6955 290.623 92.7635 290.759 92.7465 290.963L92.6785 291.677C92.6615 291.915 92.5425 292 92.3045 292H91.7435C89.6355 292 88.9045 291.32 88.9045 290.113C88.9045 289.96 88.9045 289.858 88.9215 289.671L89.4995 284.928H88.5645C88.3265 284.928 88.2755 284.809 88.2925 284.588L88.3605 283.993C88.3775 283.772 88.4965 283.687 88.7175 283.67L89.6525 283.602H89.6695L89.8905 281.885C89.9245 281.647 90.0095 281.545 90.2475 281.545H91.2335C91.4715 281.545 91.5395 281.664 91.5055 281.885L91.2845 283.602H93.0525C93.2905 283.602 93.3415 283.721 93.3245 283.908L93.2565 284.605C93.2395 284.843 93.1205 284.928 92.8825 284.928H91.1315ZM99.252 291.677L99.286 291.167C98.793 291.558 97.892 292.136 96.498 292.136C95.087 292.136 94.288 291.371 94.288 290.266C94.288 290.164 94.288 290.113 94.305 289.977L95.053 283.908C95.087 283.67 95.189 283.568 95.41 283.568H96.396C96.566 283.568 96.702 283.636 96.668 283.908L95.971 289.569C95.954 289.705 95.954 289.756 95.954 289.841C95.954 290.368 96.277 290.691 97.093 290.691C98.147 290.691 99.014 290.13 99.422 289.841L100.136 283.908C100.17 283.67 100.272 283.568 100.493 283.568H101.496C101.734 283.568 101.802 283.687 101.768 283.908L100.799 291.677C100.765 291.915 100.68 292 100.442 292H99.541C99.32 292 99.235 291.915 99.252 291.677ZM109.767 292H108.645C108.424 292 108.39 291.915 108.339 291.694L106.639 283.908C106.588 283.704 106.741 283.568 106.979 283.568H107.982C108.203 283.568 108.254 283.704 108.288 283.908L109.308 288.787C109.359 289.059 109.427 289.688 109.444 290.062C109.546 289.722 109.784 289.008 109.869 288.804L112.147 283.908C112.232 283.704 112.334 283.568 112.555 283.568H113.507C113.745 283.568 113.881 283.687 113.779 283.908L110.141 291.694C110.039 291.915 109.988 292 109.767 292ZM121.362 285.761L121.107 287.835C121.09 288.039 120.971 288.141 120.767 288.141H116.143L115.956 289.586C115.939 289.722 115.922 289.875 115.922 289.943C115.922 290.521 116.33 290.878 117.503 290.878C118.795 290.878 119.254 290.436 119.339 289.79L119.373 289.518C119.407 289.297 119.526 289.195 119.747 289.195H120.597C120.818 289.195 120.886 289.314 120.869 289.518L120.835 289.807C120.665 291.201 119.883 292.136 117.401 292.136C115.242 292.136 114.341 291.337 114.341 290.13C114.341 290.011 114.341 289.96 114.358 289.807L114.851 285.761C115.021 284.367 115.922 283.432 118.37 283.432C120.478 283.432 121.379 284.231 121.379 285.438C121.379 285.54 121.379 285.608 121.362 285.761ZM116.432 285.829L116.296 286.934H119.696L119.832 285.914C119.849 285.778 119.849 285.71 119.849 285.642C119.849 285.064 119.441 284.69 118.268 284.69C116.993 284.69 116.517 285.149 116.432 285.829ZM127.857 285.931L127.891 285.642C127.908 285.489 127.908 285.404 127.908 285.37C127.908 284.911 127.415 284.605 126.412 284.605C125.375 284.605 124.814 284.826 124.729 285.438L124.695 285.693C124.678 285.846 124.678 285.863 124.678 285.88C124.678 286.186 124.763 286.441 125.273 286.611L127.738 287.461C128.639 287.767 129.064 288.362 129.064 288.957C129.064 289.076 129.047 289.212 129.03 289.365L128.945 290.215C128.843 291.269 127.874 292.136 125.528 292.136C123.403 292.136 122.485 291.286 122.485 290.351C122.485 290.283 122.485 290.249 122.502 290.079L122.553 289.671C122.587 289.45 122.672 289.365 122.893 289.365H123.794C123.981 289.365 124.049 289.433 124.032 289.671L123.998 289.994C123.981 290.113 123.981 290.181 123.981 290.215C123.981 290.674 124.61 290.946 125.596 290.946C126.684 290.946 127.381 290.691 127.466 290.079L127.517 289.688C127.534 289.501 127.534 289.484 127.534 289.399C127.534 289.127 127.245 288.889 126.735 288.702L124.389 287.869C123.607 287.597 123.165 287.019 123.165 286.271C123.165 286.237 123.165 286.186 123.182 285.999L123.25 285.421C123.369 284.367 124.168 283.432 126.497 283.432C128.554 283.432 129.404 284.333 129.404 285.285C129.404 285.37 129.404 285.387 129.387 285.574L129.353 285.931C129.336 286.152 129.234 286.237 129.013 286.237H128.112C127.925 286.237 127.84 286.135 127.857 285.931ZM133.631 284.928L133.07 289.416C133.053 289.535 133.053 289.62 133.053 289.705C133.053 290.334 133.444 290.623 134.634 290.623H134.957C135.195 290.623 135.263 290.759 135.246 290.963L135.178 291.677C135.161 291.915 135.042 292 134.804 292H134.243C132.135 292 131.404 291.32 131.404 290.113C131.404 289.96 131.404 289.858 131.421 289.671L131.999 284.928H131.064C130.826 284.928 130.775 284.809 130.792 284.588L130.86 283.993C130.877 283.772 130.996 283.687 131.217 283.67L132.152 283.602H132.169L132.39 281.885C132.424 281.647 132.509 281.545 132.747 281.545H133.733C133.971 281.545 134.039 281.664 134.005 281.885L133.784 283.602H135.552C135.79 283.602 135.841 283.721 135.824 283.908L135.756 284.605C135.739 284.843 135.62 284.928 135.382 284.928H133.631ZM139.627 280.457L139.44 281.987C139.406 282.208 139.321 282.31 139.1 282.31H138.097C137.876 282.31 137.791 282.208 137.825 281.987L138.012 280.457C138.046 280.219 138.148 280.117 138.369 280.117H139.372C139.593 280.117 139.661 280.219 139.627 280.457ZM139.219 283.908L138.267 291.66C138.233 291.898 138.131 292 137.91 292H136.907C136.686 292 136.601 291.898 136.635 291.66L137.604 283.908C137.638 283.687 137.723 283.568 137.944 283.568H138.93C139.168 283.568 139.253 283.67 139.219 283.908ZM140.619 291.66L141.588 283.891C141.622 283.67 141.707 283.568 141.928 283.568H142.846C143.067 283.568 143.135 283.67 143.118 283.891L143.084 284.418C143.577 284.027 144.444 283.432 145.889 283.432C146.943 283.432 147.725 283.891 147.963 284.588C148.439 284.231 149.306 283.432 150.972 283.432C152.349 283.432 153.182 284.197 153.182 285.285C153.182 285.387 153.182 285.455 153.165 285.608L152.417 291.66C152.383 291.898 152.281 292 152.06 292H151.074C150.904 292 150.768 291.898 150.802 291.66L151.482 286.084C151.499 285.948 151.516 285.846 151.516 285.761C151.516 285.217 151.159 284.877 150.377 284.877C149.289 284.877 148.422 285.455 148.065 285.744L147.334 291.66C147.3 291.898 147.198 292 146.977 292H145.991C145.804 292 145.685 291.898 145.719 291.66L146.382 286.186C146.399 286.033 146.416 285.829 146.416 285.761C146.416 285.217 146.059 284.877 145.294 284.877C144.223 284.877 143.356 285.455 142.965 285.744L142.251 291.66C142.217 291.898 142.132 292 141.894 292H140.891C140.704 292 140.585 291.898 140.619 291.66ZM161.82 285.761L161.565 287.835C161.548 288.039 161.429 288.141 161.225 288.141H156.601L156.414 289.586C156.397 289.722 156.38 289.875 156.38 289.943C156.38 290.521 156.788 290.878 157.961 290.878C159.253 290.878 159.712 290.436 159.797 289.79L159.831 289.518C159.865 289.297 159.984 289.195 160.205 289.195H161.055C161.276 289.195 161.344 289.314 161.327 289.518L161.293 289.807C161.123 291.201 160.341 292.136 157.859 292.136C155.7 292.136 154.799 291.337 154.799 290.13C154.799 290.011 154.799 289.96 154.816 289.807L155.309 285.761C155.479 284.367 156.38 283.432 158.828 283.432C160.936 283.432 161.837 284.231 161.837 285.438C161.837 285.54 161.837 285.608 161.82 285.761ZM156.89 285.829L156.754 286.934H160.154L160.29 285.914C160.307 285.778 160.307 285.71 160.307 285.642C160.307 285.064 159.899 284.69 158.726 284.69C157.451 284.69 156.975 285.149 156.89 285.829ZM164.49 283.568H165.408C165.629 283.568 165.714 283.67 165.697 283.891L165.663 284.435C166.19 284.027 167.159 283.432 168.553 283.432C169.93 283.432 170.746 284.214 170.746 285.319C170.746 285.404 170.746 285.523 170.729 285.693L169.998 291.66C169.964 291.898 169.862 292 169.624 292H168.655C168.468 292 168.349 291.932 168.383 291.66L169.063 286.084C169.08 285.965 169.097 285.829 169.097 285.761C169.097 285.217 168.774 284.877 167.958 284.877C166.87 284.877 165.935 285.455 165.527 285.744L164.813 291.66C164.779 291.898 164.677 292 164.456 292H163.453C163.266 292 163.147 291.932 163.181 291.66L164.15 283.891C164.184 283.67 164.269 283.568 164.49 283.568ZM175.185 284.928L174.624 289.416C174.607 289.535 174.607 289.62 174.607 289.705C174.607 290.334 174.998 290.623 176.188 290.623H176.511C176.749 290.623 176.817 290.759 176.8 290.963L176.732 291.677C176.715 291.915 176.596 292 176.358 292H175.797C173.689 292 172.958 291.32 172.958 290.113C172.958 289.96 172.958 289.858 172.975 289.671L173.553 284.928H172.618C172.38 284.928 172.329 284.809 172.346 284.588L172.414 283.993C172.431 283.772 172.55 283.687 172.771 283.67L173.706 283.602H173.723L173.944 281.885C173.978 281.647 174.063 281.545 174.301 281.545H175.287C175.525 281.545 175.593 281.664 175.559 281.885L175.338 283.602H177.106C177.344 283.602 177.395 283.721 177.378 283.908L177.31 284.605C177.293 284.843 177.174 284.928 176.936 284.928H175.185ZM183.357 291.15C182.813 291.524 181.878 292.136 180.45 292.136C179.005 292.136 178.257 291.388 178.257 290.215C178.257 290.096 178.274 289.943 178.291 289.824L178.801 285.744C178.971 284.35 179.719 283.432 181.436 283.432C182.83 283.432 183.748 284.061 184.19 284.452L184.292 283.908C184.343 283.67 184.411 283.568 184.649 283.568H185.55C185.72 283.568 185.856 283.653 185.822 283.908L184.87 291.66C184.836 291.898 184.734 292 184.513 292H183.595C183.408 292 183.306 291.915 183.323 291.66L183.357 291.15ZM180.382 285.982L179.923 289.586C179.906 289.705 179.906 289.739 179.906 289.824C179.906 290.317 180.212 290.691 181.062 290.691C182.116 290.691 183.068 290.096 183.476 289.824L183.986 285.761C183.646 285.472 182.864 284.877 181.793 284.877C180.841 284.877 180.45 285.387 180.382 285.982ZM195.957 291.15C195.413 291.524 194.529 292.136 193.067 292.136C191.622 292.136 190.874 291.388 190.874 290.215C190.874 290.096 190.891 289.943 190.908 289.824L191.418 285.744C191.588 284.35 192.336 283.432 194.053 283.432C195.362 283.432 196.314 284.027 196.756 284.401L197.232 280.457C197.266 280.219 197.368 280.117 197.589 280.117H198.592C198.813 280.117 198.898 280.236 198.864 280.457L197.487 291.66C197.453 291.898 197.351 292 197.13 292H196.212C195.991 292 195.94 291.898 195.94 291.66L195.957 291.15ZM192.999 285.982L192.557 289.518C192.54 289.637 192.523 289.739 192.523 289.824C192.523 290.317 192.846 290.691 193.679 290.691C194.733 290.691 195.685 290.096 196.093 289.824L196.603 285.761C196.263 285.472 195.464 284.877 194.41 284.877C193.441 284.877 193.067 285.387 192.999 285.982ZM206.943 285.761L206.688 287.835C206.671 288.039 206.552 288.141 206.348 288.141H201.724L201.537 289.586C201.52 289.722 201.503 289.875 201.503 289.943C201.503 290.521 201.911 290.878 203.084 290.878C204.376 290.878 204.835 290.436 204.92 289.79L204.954 289.518C204.988 289.297 205.107 289.195 205.328 289.195H206.178C206.399 289.195 206.467 289.314 206.45 289.518L206.416 289.807C206.246 291.201 205.464 292.136 202.982 292.136C200.823 292.136 199.922 291.337 199.922 290.13C199.922 290.011 199.922 289.96 199.939 289.807L200.432 285.761C200.602 284.367 201.503 283.432 203.951 283.432C206.059 283.432 206.96 284.231 206.96 285.438C206.96 285.54 206.96 285.608 206.943 285.761ZM202.013 285.829L201.877 286.934H205.277L205.413 285.914C205.43 285.778 205.43 285.71 205.43 285.642C205.43 285.064 205.022 284.69 203.849 284.69C202.574 284.69 202.098 285.149 202.013 285.829ZM209.613 283.568H210.531C210.752 283.568 210.837 283.67 210.82 283.908L210.769 284.435C211.313 284.061 212.265 283.432 213.676 283.432C215.121 283.432 215.869 284.18 215.869 285.37C215.869 285.489 215.869 285.557 215.852 285.744L215.342 289.824C215.172 291.218 214.424 292.136 212.707 292.136C211.381 292.136 210.429 291.558 209.987 291.184L209.511 295.128C209.477 295.366 209.392 295.468 209.154 295.468H208.168C207.981 295.468 207.845 295.4 207.879 295.128L209.273 283.908C209.307 283.67 209.392 283.568 209.613 283.568ZM213.744 289.586L214.186 286.05C214.203 285.931 214.22 285.829 214.22 285.744C214.22 285.251 213.897 284.877 213.081 284.877C211.993 284.877 211.058 285.472 210.667 285.761L210.157 289.824C210.48 290.096 211.262 290.691 212.35 290.691C213.319 290.691 213.676 290.181 213.744 289.586ZM217.42 289.807L217.913 285.761C218.083 284.367 219.103 283.432 221.568 283.432C223.71 283.432 224.73 284.231 224.73 285.455C224.73 285.557 224.73 285.608 224.713 285.761L224.22 289.807C224.05 291.201 223.047 292.136 220.582 292.136C218.423 292.136 217.403 291.32 217.403 290.096C217.403 290.011 217.403 289.96 217.42 289.807ZM222.622 289.671L223.081 286.033C223.115 285.812 223.115 285.778 223.115 285.727C223.115 285.098 222.571 284.758 221.449 284.758C220.174 284.758 219.613 285.166 219.528 285.897L219.052 289.671C219.035 289.79 219.035 289.807 219.035 289.858C219.035 290.504 219.528 290.81 220.701 290.81C221.976 290.81 222.537 290.402 222.622 289.671ZM231.42 283.449C231.658 283.449 231.76 283.534 231.726 283.772L231.624 284.571C231.59 284.809 231.488 284.877 231.25 284.894C230.043 284.979 228.938 285.625 228.496 285.965L227.799 291.66C227.765 291.898 227.68 292 227.442 292H226.439C226.218 292 226.133 291.898 226.167 291.66L227.136 283.891C227.17 283.67 227.255 283.568 227.476 283.568H228.394C228.615 283.568 228.7 283.67 228.683 283.891L228.632 284.622C229.159 284.163 230.128 283.449 231.42 283.449ZM235.1 284.928L234.539 289.416C234.522 289.535 234.522 289.62 234.522 289.705C234.522 290.334 234.913 290.623 236.103 290.623H236.426C236.664 290.623 236.732 290.759 236.715 290.963L236.647 291.677C236.63 291.915 236.511 292 236.273 292H235.712C233.604 292 232.873 291.32 232.873 290.113C232.873 289.96 232.873 289.858 232.89 289.671L233.468 284.928H232.533C232.295 284.928 232.244 284.809 232.261 284.588L232.329 283.993C232.346 283.772 232.465 283.687 232.686 283.67L233.621 283.602H233.638L233.859 281.885C233.893 281.647 233.978 281.545 234.216 281.545H235.202C235.44 281.545 235.508 281.664 235.474 281.885L235.253 283.602H237.021C237.259 283.602 237.31 283.721 237.293 283.908L237.225 284.605C237.208 284.843 237.089 284.928 236.851 284.928H235.1ZM241.096 280.457L240.909 281.987C240.875 282.208 240.79 282.31 240.569 282.31H239.566C239.345 282.31 239.26 282.208 239.294 281.987L239.481 280.457C239.515 280.219 239.617 280.117 239.838 280.117H240.841C241.062 280.117 241.13 280.219 241.096 280.457ZM240.688 283.908L239.736 291.66C239.702 291.898 239.6 292 239.379 292H238.376C238.155 292 238.07 291.898 238.104 291.66L239.073 283.908C239.107 283.687 239.192 283.568 239.413 283.568H240.399C240.637 283.568 240.722 283.67 240.688 283.908ZM245.335 292H244.213C243.992 292 243.958 291.915 243.907 291.694L242.207 283.908C242.156 283.704 242.309 283.568 242.547 283.568H243.55C243.771 283.568 243.822 283.704 243.856 283.908L244.876 288.787C244.927 289.059 244.995 289.688 245.012 290.062C245.114 289.722 245.352 289.008 245.437 288.804L247.715 283.908C247.8 283.704 247.902 283.568 248.123 283.568H249.075C249.313 283.568 249.449 283.687 249.347 283.908L245.709 291.694C245.607 291.915 245.556 292 245.335 292ZM255.059 291.15C254.515 291.524 253.58 292.136 252.152 292.136C250.707 292.136 249.959 291.388 249.959 290.215C249.959 290.096 249.976 289.943 249.993 289.824L250.503 285.744C250.673 284.35 251.421 283.432 253.138 283.432C254.532 283.432 255.45 284.061 255.892 284.452L255.994 283.908C256.045 283.67 256.113 283.568 256.351 283.568H257.252C257.422 283.568 257.558 283.653 257.524 283.908L256.572 291.66C256.538 291.898 256.436 292 256.215 292H255.297C255.11 292 255.008 291.915 255.025 291.66L255.059 291.15ZM252.084 285.982L251.625 289.586C251.608 289.705 251.608 289.739 251.608 289.824C251.608 290.317 251.914 290.691 252.764 290.691C253.818 290.691 254.77 290.096 255.178 289.824L255.688 285.761C255.348 285.472 254.566 284.877 253.495 284.877C252.543 284.877 252.152 285.387 252.084 285.982ZM261.438 285.37L260.843 288.77C260.809 288.991 260.707 289.093 260.486 289.093H259.755C259.517 289.093 259.466 288.991 259.483 288.77L259.738 285.37L260.299 280.78C260.333 280.542 260.418 280.44 260.656 280.44H261.71C261.948 280.44 262.016 280.542 261.982 280.78L261.438 285.37ZM260.792 290.317L260.622 291.677C260.588 291.915 260.503 292 260.265 292H259.245C259.007 292 258.922 291.915 258.956 291.677L259.126 290.317C259.16 290.096 259.262 289.994 259.483 289.994H260.52C260.758 289.994 260.826 290.096 260.792 290.317Z" fill="black"/>
<path d="M12.5 276.469C13.0534 276.469 13.7858 276.607 14.6973 276.884C15.0879 276.998 15.4704 277.136 15.8447 277.299L18.75 278.251V278.324C19.6615 278.78 20.402 279.455 20.9717 280.351C21.167 280.66 21.3216 281.034 21.4355 281.474C21.5007 281.734 21.582 282.133 21.6797 282.67V282.743C21.7285 283.085 21.7773 283.427 21.8262 283.769L21.875 284.208V285.844H18.75V296.781H6.25V285.844H3.125V284.257L3.17383 283.646C3.22266 283.142 3.2959 282.654 3.39355 282.182C3.54004 281.514 3.73535 280.928 3.97949 280.424C4.43522 279.447 5.19206 278.731 6.25 278.275V278.251L6.49414 278.178L9.10645 277.299H9.15527C9.52962 277.136 9.91211 276.998 10.3027 276.884C11.2142 276.607 11.9466 276.469 12.5 276.469ZM12.5 278.031C12.1582 278.031 11.5804 278.153 10.7666 278.397L10.4736 278.495L10.6201 278.715C10.8317 278.992 11.0677 279.195 11.3281 279.325C11.6536 279.504 12.0443 279.594 12.5 279.594C12.9557 279.594 13.3464 279.504 13.6719 279.325C13.9323 279.195 14.1683 278.992 14.3799 278.715L14.5264 278.495L14.2334 278.397C13.4196 278.153 12.8418 278.031 12.5 278.031ZM8.93555 278.983L7.8125 279.374V295.219H17.1875V279.374L16.0645 278.983C15.9342 279.228 15.7796 279.464 15.6006 279.691C15.2588 280.115 14.86 280.448 14.4043 280.692C13.8184 281.002 13.1836 281.156 12.5 281.156C11.8164 281.156 11.1816 281.002 10.5957 280.692C10.14 280.448 9.74121 280.115 9.39941 279.691C9.22038 279.464 9.06576 279.228 8.93555 278.983ZM6.25 280.033C5.89193 280.31 5.6071 280.668 5.39551 281.107C5.15137 281.612 4.96419 282.279 4.83398 283.109C4.76888 283.533 4.72005 283.923 4.6875 284.281H6.25V280.033ZM18.75 280.155V284.281H20.3125C20.2637 283.858 20.2067 283.427 20.1416 282.987C20.0765 282.629 19.9951 282.263 19.8975 281.889C19.7998 281.514 19.7184 281.278 19.6533 281.181C19.4092 280.806 19.1081 280.465 18.75 280.155Z" fill="black"/>
<path d="M111 366.959H110.713V390.629H111V366.959Z" fill="black"/>
<path d="M41.0787 366.886C42.6242 366.886 43.8821 365.628 43.8821 364.083C43.8821 362.537 42.6242 361.279 41.0787 361.279C39.5333 361.279 38.2754 362.537 38.2754 364.083C38.2754 365.628 39.5333 366.886 41.0787 366.886Z" fill="#FF4E0E"/>
<path d="M52.2279 383.296C51.8182 383.296 51.4875 382.965 51.4875 382.555V359H46.9375V383.583C46.9375 385.546 48.5333 387.141 50.4956 387.141H53.953V383.296H52.2279Z" fill="#FF4E0E"/>
<path d="M1 360.709V366.668H4.84561V365.122H10.7326V383.294H8.96437V387.139H17.2953V383.294H15.5271V365.122H21.4069V366.668H25.2238V360.709H1Z" fill="#FF4E0E"/>
<path d="M43.1306 383.174V369.502H33.3477V373.376H38.5806V383.174H33.3477V387.019H44.9707V383.174H43.1306Z" fill="#FF4E0E"/>
<path d="M21.4065 369.625V383.297H19.5664V387.142H31.3333V383.297H25.9566V373.499H31.3333V369.625L24.174 369.639L21.4065 369.625Z" fill="#FF4E0E"/>
<path d="M76.324 376.617C76.3672 376.042 76.5253 375.525 76.7984 375.057C77.0716 374.597 77.4166 374.209 77.8335 373.9C78.2504 373.591 78.7248 373.354 79.2424 373.188C79.7599 373.03 80.3206 372.944 80.91 372.944C82.1751 372.944 83.1239 373.275 83.7421 373.929C84.3675 374.583 84.6766 375.481 84.6766 376.61H76.324V376.617ZM88.0549 373.152C87.5662 372.225 86.9408 371.485 86.1717 370.931C85.4025 370.378 84.5615 369.99 83.6415 369.76C82.7214 369.537 81.8373 369.422 80.9747 369.422C79.688 369.422 78.4876 369.609 77.3735 369.983C76.2665 370.356 75.2961 370.917 74.4695 371.665C73.6429 372.412 72.996 373.347 72.5144 374.468C72.0399 375.589 71.8027 376.897 71.8027 378.393C71.8027 378.896 71.8315 379.385 71.8818 379.852C71.9824 380.664 72.1621 381.433 72.4281 382.152C72.5359 382.439 73.3841 384.546 75.6627 385.897C77.1722 386.788 79.2999 387.148 82.1967 387.148C85.0935 387.148 86.5598 387.025 86.5598 387.025V383.273C86.5598 383.273 84.5328 383.302 82.0313 383.302C78.3726 383.302 77.1291 381.067 76.8703 380.441C76.7913 380.254 76.7266 380.053 76.6762 379.852H88.6947C89.0397 378.163 88.8888 374.791 88.0478 373.16" fill="#FF4E0E"/>
<path d="M70.0916 376.696V371.003C70.0916 370.824 69.9838 370.665 69.8256 370.594C69.2578 370.356 68.4959 370.112 67.547 369.86C66.4329 369.566 65.2469 369.422 63.9746 369.422C62.616 369.422 61.3581 369.623 60.2008 370.018C59.0436 370.414 58.0444 370.996 57.189 371.772C56.3408 372.541 55.6724 373.483 55.1979 374.597C54.7235 375.711 54.4863 376.977 54.4863 378.407C54.4863 379.744 54.6876 380.966 55.0973 382.08C55.507 383.194 56.003 383.999 56.7649 384.804C58.0085 386.113 60.438 387.054 63.2486 387.148H68.8624V383.309H64.5352C62.7095 383.309 60.9196 382.468 60.4668 382.015C60.0139 381.563 59.6617 381.031 59.4101 380.42C59.1586 379.809 59.0364 379.14 59.0364 378.414C59.0364 377.53 59.1873 376.768 59.4964 376.136C59.7983 375.503 60.2008 374.971 60.6896 374.554C61.1784 374.137 61.7319 373.828 62.3573 373.634C62.9826 373.44 63.608 373.347 64.2477 373.347C64.9521 373.347 65.6494 373.426 66.3538 373.584V376.711H70.0916V376.696Z" fill="#FF4E0E"/>
<path d="M138.266 356.923C139.945 356.923 141.003 358.004 141.003 359.292C141.003 360.603 139.899 361.73 138.266 361.73C136.61 361.73 135.644 360.442 135.644 359.292C135.644 358.096 136.771 356.923 138.266 356.923ZM136.978 362.857H140.014L141.233 368.653V373.023H135.736V368.653L136.978 362.857ZM149.573 373H142.65V369.941H144.076V359.959H142.65V356.923H149.665C155.231 356.923 158.405 360.35 158.405 364.743C158.405 369.987 155.231 373 149.573 373ZM153.115 364.743C153.115 362.282 152.103 359.959 149.665 359.959H148.791V369.941H149.665C152.103 369.895 153.115 367.618 153.115 364.743ZM165.897 356.923L161.527 359.568L158.951 359.108L162.401 356.463L165.897 356.923ZM165.644 369.987V373H159.204V369.987H160.17V364.49H159.204V361.5H164.54V369.987H165.644ZM168.015 365.134L167.049 362.466C167.969 361.914 169.947 360.833 172.063 360.833C174.823 360.833 178.296 361.868 178.296 365.571V370.056H179.676V373H174.754L174.202 371.965C173.351 373.138 171.925 373.437 171.097 373.437C168.912 373.437 166.566 372.264 166.566 369.596C166.566 366.997 168.751 365.364 171.35 365.364C172.707 365.364 173.512 366.031 173.627 366.169V365.364C173.627 364.329 172.684 364.076 171.442 364.076C170.085 364.076 168.889 364.651 168.015 365.134ZM172.155 370.447C172.845 370.447 173.42 370.033 173.627 369.688V368.814C173.558 368.699 173.236 368.147 172.27 368.147C171.35 368.147 170.936 368.653 170.936 369.366C170.936 370.01 171.465 370.447 172.155 370.447ZM194.226 362.144V358.74H193.168V355.75H198.895V370.01H199.999V373H194.617L194.226 372.149C193.927 372.425 192.915 373.207 191.328 373.207C188.085 373.207 185.992 370.332 185.992 367.135C185.992 363.547 188.499 361.27 191.328 361.27C192.961 361.27 193.789 361.868 194.226 362.144ZM190.937 367.135C190.937 368.515 191.581 369.964 192.593 369.964C193.49 369.964 194.318 368.837 194.226 367.02C194.226 365.456 193.444 364.26 192.57 364.26C191.604 364.26 190.937 365.387 190.937 367.135ZM210.528 369.182L212.46 371.413C210.758 372.885 208.918 373.414 206.526 373.414C203.674 373.414 200.454 371.597 200.454 367.181C200.454 363.409 203.168 361.178 206.641 361.178C209.378 361.178 211.471 362.581 212.138 364.513C212.414 365.318 212.667 367.089 212.184 368.4H204.939C205.077 369.021 205.376 370.286 207.308 370.286C208.09 370.286 209.286 370.217 210.528 369.182ZM206.779 364.283C205.376 364.283 205.054 365.548 205.008 366.123H208.481C208.458 365.249 208.251 364.283 206.779 364.283ZM220.096 369.987V373H213.38V369.987H214.369V358.717H213.403V355.75H218.739V369.987H220.096Z" fill="black"/>
<path d="M135.345 380.923H150.778V386.903H147.397V383.959H145.465V393.941H147.374V397H138.818V393.941H140.704V383.959H138.726V386.903H135.345V380.923ZM156.841 393.987V397H150.332V393.987H151.344V388.49H150.355V385.5H154.679L155.369 386.972C155.967 385.868 156.565 385.086 158.934 385.086V389.065C156.864 389.065 155.691 389.594 155.691 391.618V393.987H156.841ZM161.074 389.134L160.108 386.466C161.028 385.914 163.006 384.833 165.122 384.833C167.882 384.833 171.355 385.868 171.355 389.571V394.056H172.735V397H167.813L167.261 395.965C166.41 397.138 164.984 397.437 164.156 397.437C161.971 397.437 159.625 396.264 159.625 393.596C159.625 390.997 161.81 389.364 164.409 389.364C165.766 389.364 166.571 390.031 166.686 390.169V389.364C166.686 388.329 165.743 388.076 164.501 388.076C163.144 388.076 161.948 388.651 161.074 389.134ZM165.214 394.447C165.904 394.447 166.479 394.033 166.686 393.688V392.814C166.617 392.699 166.295 392.147 165.329 392.147C164.409 392.147 163.995 392.653 163.995 393.366C163.995 394.01 164.524 394.447 165.214 394.447ZM178.959 397H173.784V394.01H174.75V382.763H173.784V379.75H179.35V386.397C179.856 385.799 181.236 385.316 182.363 385.316C185.859 385.316 187.722 388.26 187.653 391.342C187.584 394.884 185.583 397.253 182.34 397.253C180.592 397.253 179.948 396.77 179.304 396.218L178.959 397ZM182.593 391.388C182.593 390.008 181.949 388.559 180.937 388.559C180.04 388.559 179.212 389.686 179.304 391.503C179.304 393.067 180.086 394.263 180.96 394.263C181.926 394.263 182.593 393.136 182.593 391.388ZM189.959 389.134L188.993 386.466C189.913 385.914 191.891 384.833 194.007 384.833C196.767 384.833 200.24 385.868 200.24 389.571V394.056H201.62V397H196.698L196.146 395.965C195.295 397.138 193.869 397.437 193.041 397.437C190.856 397.437 188.51 396.264 188.51 393.596C188.51 390.997 190.695 389.364 193.294 389.364C194.651 389.364 195.456 390.031 195.571 390.169V389.364C195.571 388.329 194.628 388.076 193.386 388.076C192.029 388.076 190.833 388.651 189.959 389.134ZM194.099 394.447C194.789 394.447 195.364 394.033 195.571 393.688V392.814C195.502 392.699 195.18 392.147 194.214 392.147C193.294 392.147 192.88 392.653 192.88 393.366C192.88 394.01 193.409 394.447 194.099 394.447ZM204.578 382.142C204.578 381.084 205.452 379.796 207.062 379.796C208.649 379.796 209.592 381.084 209.592 382.142C209.592 383.407 208.695 384.465 207.062 384.465C205.613 384.465 204.578 383.246 204.578 382.142ZM204.9 395.39V388.49H203.934V385.5H209.27V395.39C209.27 398.242 208.396 401.807 202.278 401.807V398.725C204.946 398.725 204.9 396.494 204.9 395.39ZM212.038 389.134L211.072 386.466C211.992 385.914 213.97 384.833 216.086 384.833C218.846 384.833 222.319 385.868 222.319 389.571V394.056H223.699V397H218.777L218.225 395.965C217.374 397.138 215.948 397.437 215.12 397.437C212.935 397.437 210.589 396.264 210.589 393.596C210.589 390.997 212.774 389.364 215.373 389.364C216.73 389.364 217.535 390.031 217.65 390.169V389.364C217.65 388.329 216.707 388.076 215.465 388.076C214.108 388.076 212.912 388.651 212.038 389.134ZM216.178 394.447C216.868 394.447 217.443 394.033 217.65 393.688V392.814C217.581 392.699 217.259 392.147 216.293 392.147C215.373 392.147 214.959 392.653 214.959 393.366C214.959 394.01 215.488 394.447 216.178 394.447ZM232.499 386.144V382.74H231.441V379.75H237.168V394.01H238.272V397H232.89L232.499 396.149C232.2 396.425 231.188 397.207 229.601 397.207C226.358 397.207 224.265 394.332 224.265 391.135C224.265 387.547 226.772 385.27 229.601 385.27C231.234 385.27 232.062 385.868 232.499 386.144ZM229.21 391.135C229.21 392.515 229.854 393.964 230.866 393.964C231.763 393.964 232.591 392.837 232.499 391.02C232.499 389.456 231.717 388.26 230.843 388.26C229.877 388.26 229.21 389.387 229.21 391.135ZM245.282 397.299C241.993 397.299 238.819 395.275 238.865 391.204C238.888 387.363 241.993 385.224 245.167 385.224C248.801 385.27 251.492 387.455 251.561 391.296C251.607 395.114 248.778 397.299 245.282 397.299ZM245.282 394.355C246.271 394.355 246.846 393.021 246.846 391.296C246.846 389.571 246.248 388.237 245.167 388.214C244.27 388.214 243.58 389.548 243.58 391.227C243.58 393.113 244.316 394.355 245.282 394.355ZM258.903 393.987V397H252.394V393.987H253.406V388.49H252.417V385.5H256.741L257.431 386.972C258.029 385.868 258.627 385.086 260.996 385.086V389.065C258.926 389.065 257.753 389.594 257.753 391.618V393.987H258.903ZM263.321 391.089L262.079 385.293V380.923H267.576V385.293L266.357 391.089H263.321ZM261.987 394.654C261.987 393.504 262.953 392.216 264.609 392.216C266.242 392.216 267.346 393.343 267.346 394.654C267.346 395.942 266.288 397.023 264.609 397.023C263.114 397.023 261.987 395.85 261.987 394.654Z" fill="black"/>
<g clip-path="url(#clip1_823_2)">
<path d="M252.95 415.23C249.81 416.95 247.14 420.54 248.26 423.93C248.94 426 250.93 427.46 253.06 427.92C255.19 428.38 257.42 427.96 259.46 427.18C264.5 425.25 268.6 421.01 270.37 415.91C271.95 411.35 271.9 405 268.93 401.25C265.5 410.72 261.38 410.59 252.96 415.22L252.95 415.23Z" fill="#05F0D9"/>
<path d="M278.011 412C280.471 414.99 284.151 416.96 288.011 417.33C291.251 417.64 295.181 416.28 295.841 413.09C296.471 410.02 293.621 407.24 290.651 406.22C287.681 405.2 284.421 405.23 281.501 404.07C279.221 403.16 277.581 400.65 275.821 398.99C275.341 404.03 274.521 407.75 278.011 411.99V412Z" fill="#FFE742"/>
</g>
<defs>
<linearGradient id="paint0_linear_823_2" x1="76" y1="93" x2="194" y2="93" gradientUnits="userSpaceOnUse">
<stop offset="0.24" stop-color="#FF460E"/>
<stop offset="0.51" stop-color="#FF500E"/>
<stop offset="0.99" stop-color="#FF6C0E"/>
<stop offset="1" stop-color="#FF6D0E"/>
</linearGradient>
<clipPath id="clip0_823_2">
<rect width="118" height="124" fill="white" transform="translate(76 31)"/>
</clipPath>
<clipPath id="clip1_823_2">
<rect width="47.93" height="29.12" fill="white" transform="translate(248 399)"/>
</clipPath>
</defs>
</svg>
