<svg width="295" height="78" viewBox="0 0 295 78" fill="none" xmlns="http://www.w3.org/2000/svg">
<path d="M110 15.959H109.713V39.6293H110V15.959Z" fill="black"/>
<path d="M40.0787 15.886C41.6242 15.886 42.8821 14.6281 42.8821 13.0826C42.8821 11.5372 41.6242 10.2793 40.0787 10.2793C38.5333 10.2793 37.2754 11.5372 37.2754 13.0826C37.2754 14.6281 38.5333 15.886 40.0787 15.886Z" fill="#FF4E0E"/>
<path d="M51.2279 32.2956C50.8182 32.2956 50.4875 31.965 50.4875 31.5553V8H45.9375V32.5832C45.9375 34.5455 47.5333 36.1413 49.4956 36.1413H52.953V32.2956H51.2279Z" fill="#FF4E0E"/>
<path d="M0 9.70898V15.6679H3.84561V14.1225H9.73263V32.2939H7.96437V36.1395H16.2953V32.2939H14.5271V14.1225H20.4069V15.6679H24.2238V9.70898H0Z" fill="#FF4E0E"/>
<path d="M42.1306 32.1736V18.502H32.3477V22.3763H37.5806V32.1736H32.3477V36.0193H43.9707V32.1736H42.1306Z" fill="#FF4E0E"/>
<path d="M20.4065 18.625V32.2967H18.5664V36.1423H30.3333V32.2967H24.9566V22.4994H30.3333V18.625L23.174 18.6394L20.4065 18.625Z" fill="#FF4E0E"/>
<path d="M75.324 25.6171C75.3672 25.0421 75.5253 24.5245 75.7984 24.0573C76.0716 23.5973 76.4166 23.2091 76.8335 22.9C77.2504 22.591 77.7248 22.3537 78.2424 22.1884C78.7599 22.0303 79.3206 21.944 79.91 21.944C81.1751 21.944 82.1239 22.2747 82.7421 22.9288C83.3675 23.5829 83.6766 24.4814 83.6766 25.6099H75.324V25.6171ZM87.0549 22.1525C86.5662 21.2252 85.9408 20.4848 85.1717 19.9314C84.4025 19.3779 83.5615 18.9897 82.6415 18.7597C81.7214 18.5369 80.8373 18.4219 79.9747 18.4219C78.688 18.4219 77.4876 18.6088 76.3735 18.9825C75.2665 19.3563 74.2961 19.917 73.4695 20.6646C72.6429 21.4121 71.996 22.3466 71.5144 23.4679C71.0399 24.5892 70.8027 25.8975 70.8027 27.3926C70.8027 27.8957 70.8315 28.3845 70.8818 28.8518C70.9824 29.664 71.1621 30.4331 71.4281 31.1519C71.5359 31.4395 72.3841 33.5456 74.6627 34.8969C76.1722 35.7882 78.2999 36.1476 81.1967 36.1476C84.0935 36.1476 85.5598 36.0254 85.5598 36.0254V32.2733C85.5598 32.2733 83.5328 32.302 81.0313 32.302C77.3726 32.302 76.1291 30.0665 75.8703 29.4412C75.7913 29.2543 75.7266 29.053 75.6762 28.8518H87.6947C88.0397 27.1626 87.8888 23.7914 87.0478 22.1597" fill="#FF4E0E"/>
<path d="M69.0916 25.6962V20.0032C69.0916 19.8235 68.9838 19.6654 68.8256 19.5935C68.2578 19.3563 67.4959 19.1119 66.547 18.8603C65.4329 18.5656 64.2469 18.4219 62.9746 18.4219C61.616 18.4219 60.3581 18.6231 59.2008 19.0185C58.0436 19.4138 57.0444 19.9961 56.189 20.7724C55.3408 21.5415 54.6724 22.4831 54.1979 23.5973C53.7235 24.7114 53.4863 25.9765 53.4863 27.407C53.4863 28.7439 53.6876 29.9659 54.0973 31.0801C54.507 32.1942 55.003 32.9993 55.7649 33.8043C57.0085 35.1126 59.438 36.0542 62.2486 36.1476H67.8624V32.3092H63.5352C61.7095 32.3092 59.9196 31.4682 59.4668 31.0154C59.0139 30.5625 58.6617 30.0306 58.4101 29.4196C58.1586 28.8086 58.0364 28.1401 58.0364 27.4141C58.0364 26.53 58.1873 25.7681 58.4964 25.1355C58.7983 24.503 59.2008 23.9711 59.6896 23.5542C60.1784 23.1372 60.7319 22.8282 61.3573 22.6341C61.9826 22.44 62.608 22.3466 63.2477 22.3466C63.9521 22.3466 64.6494 22.4256 65.3538 22.5838V25.7106H69.0916V25.6962Z" fill="#FF4E0E"/>
<path d="M137.266 5.923C138.945 5.923 140.003 7.004 140.003 8.292C140.003 9.603 138.899 10.73 137.266 10.73C135.61 10.73 134.644 9.442 134.644 8.292C134.644 7.096 135.771 5.923 137.266 5.923ZM135.978 11.857H139.014L140.233 17.653V22.023H134.736V17.653L135.978 11.857ZM148.573 22H141.65V18.941H143.076V8.959H141.65V5.923H148.665C154.231 5.923 157.405 9.35 157.405 13.743C157.405 18.987 154.231 22 148.573 22ZM152.115 13.743C152.115 11.282 151.103 8.959 148.665 8.959H147.791V18.941H148.665C151.103 18.895 152.115 16.618 152.115 13.743ZM164.897 5.923L160.527 8.568L157.951 8.108L161.401 5.463L164.897 5.923ZM164.644 18.987V22H158.204V18.987H159.17V13.49H158.204V10.5H163.54V18.987H164.644ZM167.015 14.134L166.049 11.466C166.969 10.914 168.947 9.833 171.063 9.833C173.823 9.833 177.296 10.868 177.296 14.571V19.056H178.676V22H173.754L173.202 20.965C172.351 22.138 170.925 22.437 170.097 22.437C167.912 22.437 165.566 21.264 165.566 18.596C165.566 15.997 167.751 14.364 170.35 14.364C171.707 14.364 172.512 15.031 172.627 15.169V14.364C172.627 13.329 171.684 13.076 170.442 13.076C169.085 13.076 167.889 13.651 167.015 14.134ZM171.155 19.447C171.845 19.447 172.42 19.033 172.627 18.688V17.814C172.558 17.699 172.236 17.147 171.27 17.147C170.35 17.147 169.936 17.653 169.936 18.366C169.936 19.01 170.465 19.447 171.155 19.447ZM193.226 11.144V7.74H192.168V4.75H197.895V19.01H198.999V22H193.617L193.226 21.149C192.927 21.425 191.915 22.207 190.328 22.207C187.085 22.207 184.992 19.332 184.992 16.135C184.992 12.547 187.499 10.27 190.328 10.27C191.961 10.27 192.789 10.868 193.226 11.144ZM189.937 16.135C189.937 17.515 190.581 18.964 191.593 18.964C192.49 18.964 193.318 17.837 193.226 16.02C193.226 14.456 192.444 13.26 191.57 13.26C190.604 13.26 189.937 14.387 189.937 16.135ZM209.528 18.182L211.46 20.413C209.758 21.885 207.918 22.414 205.526 22.414C202.674 22.414 199.454 20.597 199.454 16.181C199.454 12.409 202.168 10.178 205.641 10.178C208.378 10.178 210.471 11.581 211.138 13.513C211.414 14.318 211.667 16.089 211.184 17.4H203.939C204.077 18.021 204.376 19.286 206.308 19.286C207.09 19.286 208.286 19.217 209.528 18.182ZM205.779 13.283C204.376 13.283 204.054 14.548 204.008 15.123H207.481C207.458 14.249 207.251 13.283 205.779 13.283ZM219.096 18.987V22H212.38V18.987H213.369V7.717H212.403V4.75H217.739V18.987H219.096Z" fill="black"/>
<path d="M134.345 29.923H149.778V35.903H146.397V32.959H144.465V42.941H146.374V46H137.818V42.941H139.704V32.959H137.726V35.903H134.345V29.923ZM155.841 42.987V46H149.332V42.987H150.344V37.49H149.355V34.5H153.679L154.369 35.972C154.967 34.868 155.565 34.086 157.934 34.086V38.065C155.864 38.065 154.691 38.594 154.691 40.618V42.987H155.841ZM160.074 38.134L159.108 35.466C160.028 34.914 162.006 33.833 164.122 33.833C166.882 33.833 170.355 34.868 170.355 38.571V43.056H171.735V46H166.813L166.261 44.965C165.41 46.138 163.984 46.437 163.156 46.437C160.971 46.437 158.625 45.264 158.625 42.596C158.625 39.997 160.81 38.364 163.409 38.364C164.766 38.364 165.571 39.031 165.686 39.169V38.364C165.686 37.329 164.743 37.076 163.501 37.076C162.144 37.076 160.948 37.651 160.074 38.134ZM164.214 43.447C164.904 43.447 165.479 43.033 165.686 42.688V41.814C165.617 41.699 165.295 41.147 164.329 41.147C163.409 41.147 162.995 41.653 162.995 42.366C162.995 43.01 163.524 43.447 164.214 43.447ZM177.959 46H172.784V43.01H173.75V31.763H172.784V28.75H178.35V35.397C178.856 34.799 180.236 34.316 181.363 34.316C184.859 34.316 186.722 37.26 186.653 40.342C186.584 43.884 184.583 46.253 181.34 46.253C179.592 46.253 178.948 45.77 178.304 45.218L177.959 46ZM181.593 40.388C181.593 39.008 180.949 37.559 179.937 37.559C179.04 37.559 178.212 38.686 178.304 40.503C178.304 42.067 179.086 43.263 179.96 43.263C180.926 43.263 181.593 42.136 181.593 40.388ZM188.959 38.134L187.993 35.466C188.913 34.914 190.891 33.833 193.007 33.833C195.767 33.833 199.24 34.868 199.24 38.571V43.056H200.62V46H195.698L195.146 44.965C194.295 46.138 192.869 46.437 192.041 46.437C189.856 46.437 187.51 45.264 187.51 42.596C187.51 39.997 189.695 38.364 192.294 38.364C193.651 38.364 194.456 39.031 194.571 39.169V38.364C194.571 37.329 193.628 37.076 192.386 37.076C191.029 37.076 189.833 37.651 188.959 38.134ZM193.099 43.447C193.789 43.447 194.364 43.033 194.571 42.688V41.814C194.502 41.699 194.18 41.147 193.214 41.147C192.294 41.147 191.88 41.653 191.88 42.366C191.88 43.01 192.409 43.447 193.099 43.447ZM203.578 31.142C203.578 30.084 204.452 28.796 206.062 28.796C207.649 28.796 208.592 30.084 208.592 31.142C208.592 32.407 207.695 33.465 206.062 33.465C204.613 33.465 203.578 32.246 203.578 31.142ZM203.9 44.39V37.49H202.934V34.5H208.27V44.39C208.27 47.242 207.396 50.807 201.278 50.807V47.725C203.946 47.725 203.9 45.494 203.9 44.39ZM211.038 38.134L210.072 35.466C210.992 34.914 212.97 33.833 215.086 33.833C217.846 33.833 221.319 34.868 221.319 38.571V43.056H222.699V46H217.777L217.225 44.965C216.374 46.138 214.948 46.437 214.12 46.437C211.935 46.437 209.589 45.264 209.589 42.596C209.589 39.997 211.774 38.364 214.373 38.364C215.73 38.364 216.535 39.031 216.65 39.169V38.364C216.65 37.329 215.707 37.076 214.465 37.076C213.108 37.076 211.912 37.651 211.038 38.134ZM215.178 43.447C215.868 43.447 216.443 43.033 216.65 42.688V41.814C216.581 41.699 216.259 41.147 215.293 41.147C214.373 41.147 213.959 41.653 213.959 42.366C213.959 43.01 214.488 43.447 215.178 43.447ZM231.499 35.144V31.74H230.441V28.75H236.168V43.01H237.272V46H231.89L231.499 45.149C231.2 45.425 230.188 46.207 228.601 46.207C225.358 46.207 223.265 43.332 223.265 40.135C223.265 36.547 225.772 34.27 228.601 34.27C230.234 34.27 231.062 34.868 231.499 35.144ZM228.21 40.135C228.21 41.515 228.854 42.964 229.866 42.964C230.763 42.964 231.591 41.837 231.499 40.02C231.499 38.456 230.717 37.26 229.843 37.26C228.877 37.26 228.21 38.387 228.21 40.135ZM244.282 46.299C240.993 46.299 237.819 44.275 237.865 40.204C237.888 36.363 240.993 34.224 244.167 34.224C247.801 34.27 250.492 36.455 250.561 40.296C250.607 44.114 247.778 46.299 244.282 46.299ZM244.282 43.355C245.271 43.355 245.846 42.021 245.846 40.296C245.846 38.571 245.248 37.237 244.167 37.214C243.27 37.214 242.58 38.548 242.58 40.227C242.58 42.113 243.316 43.355 244.282 43.355ZM257.903 42.987V46H251.394V42.987H252.406V37.49H251.417V34.5H255.741L256.431 35.972C257.029 34.868 257.627 34.086 259.996 34.086V38.065C257.926 38.065 256.753 38.594 256.753 40.618V42.987H257.903ZM262.321 40.089L261.079 34.293V29.923H266.576V34.293L265.357 40.089H262.321ZM260.987 43.654C260.987 42.504 261.953 41.216 263.609 41.216C265.242 41.216 266.346 42.343 266.346 43.654C266.346 44.942 265.288 46.023 263.609 46.023C262.114 46.023 260.987 44.85 260.987 43.654Z" fill="black"/>
<g clip-path="url(#clip0_771_404)">
<path d="M251.95 64.23C248.81 65.95 246.14 69.54 247.26 72.93C247.94 75 249.93 76.46 252.06 76.92C254.19 77.38 256.42 76.96 258.46 76.18C263.5 74.25 267.6 70.01 269.37 64.91C270.95 60.35 270.9 54 267.93 50.25C264.5 59.72 260.38 59.59 251.96 64.22L251.95 64.23Z" fill="#05F0D9"/>
<path d="M277.011 61.0002C279.471 63.9902 283.151 65.9602 287.011 66.3302C290.251 66.6402 294.181 65.2802 294.841 62.0902C295.471 59.0202 292.621 56.2402 289.651 55.2202C286.681 54.2002 283.421 54.2302 280.501 53.0702C278.221 52.1602 276.581 49.6502 274.821 47.9902C274.341 53.0302 273.521 56.7502 277.011 60.9902V61.0002Z" fill="#FFE742"/>
</g>
<defs>
<clipPath id="clip0_771_404">
<rect width="47.93" height="29.12" fill="white" transform="translate(247 48)"/>
</clipPath>
</defs>
</svg>
