<svg width="611" height="95" viewBox="0 0 611 95" fill="none" xmlns="http://www.w3.org/2000/svg">
<g clip-path="url(#clip0_762_2)">
<path d="M2.8599 48.29C1.3699 45.55 0.389899 42.44 0.0598992 38.94C-0.250101 35.71 0.719899 32.24 3.1499 30.1C7.3299 26.43 14.1699 27.97 18.3299 31.66C22.4899 35.35 24.8199 40.62 27.7499 45.35C31.4699 51.36 42.2999 66.32 51.0299 64.76C35.3999 67.55 11.1799 63.67 2.8499 48.3L2.8599 48.29Z" fill="#BE2C97"/>
<path d="M21.4399 77.2695C19.2699 78.3795 17.1399 79.6795 15.5499 81.5395C13.9599 83.3995 12.9799 85.8895 13.4199 88.2895C14.1599 92.3795 18.9099 94.8295 23.0199 94.1995C27.1299 93.5795 30.5399 90.6495 33.1099 87.3795C35.6799 84.1095 37.6399 80.3795 40.2999 77.1895C42.9599 73.9995 46.5899 71.2695 50.7399 71.0195C40.4999 71.6295 30.8399 72.4395 21.4399 77.2595V77.2695Z" fill="#FF9024"/>
</g>
<path d="M91.9562 13.254V20.22H88.3922V51H76.7822L63.0122 30.426V44.034H67.1702V51H50.5922V44.034H53.7782V20.22H50.6462V13.254H66.1442L79.4282 33.072L79.3742 20.22H75.7022V13.254H91.9562ZM108.988 51.702C101.266 51.702 93.8141 46.95 93.9221 37.392C93.9761 28.374 101.266 23.352 108.718 23.352C117.25 23.46 123.568 28.59 123.73 37.608C123.838 46.572 117.196 51.702 108.988 51.702ZM108.988 44.79C111.31 44.79 112.66 41.658 112.66 37.608C112.66 33.558 111.256 30.426 108.718 30.372C106.612 30.372 104.992 33.504 104.992 37.446C104.992 41.874 106.72 44.79 108.988 44.79ZM131.896 51H125.146V41.28H132.382C132.382 44.142 136.486 44.898 138.106 44.898C139.186 44.898 140.482 44.574 140.482 43.062C140.482 41.442 136.432 41.172 132.544 39.822C128.872 38.526 125.362 36.258 125.362 31.182C125.362 25.674 131.032 23.352 134.866 23.352C138.538 23.352 141.778 25.242 142.912 27.564L143.344 24H149.986V33.72H142.966C142.966 31.452 140.158 29.616 137.458 29.616C136.324 29.616 135.352 30.21 135.352 31.56C135.352 33.072 138.538 33.72 141.994 34.908C146.098 36.312 150.688 37.878 150.688 43.548C150.688 48.624 145.882 51.648 140.644 51.648C136.756 51.648 133.678 49.758 132.382 47.706L131.896 51ZM182.862 42.252H183.078C183.132 41.118 183.78 38.418 184.698 36.312L187.29 30.858H184.428V24H198.36V30.858H195.552L186.21 51H177.84L167.796 30.858H165.258V24H181.674V30.858H178.974L181.458 36.582C182.16 38.634 182.754 41.118 182.862 42.252ZM222.297 42.036L226.833 47.274C222.837 50.73 218.517 51.972 212.901 51.972C206.205 51.972 198.645 47.706 198.645 37.338C198.645 28.482 205.017 23.244 213.171 23.244C219.597 23.244 224.511 26.538 226.077 31.074C226.725 32.964 227.319 37.122 226.185 40.2H209.175C209.499 41.658 210.201 44.628 214.737 44.628C216.573 44.628 219.381 44.466 222.297 42.036ZM213.495 30.534C210.201 30.534 209.445 33.504 209.337 34.854H217.491C217.437 32.802 216.951 30.534 213.495 30.534ZM245.031 43.926V51H228.993V43.926H231.261V31.182H228.993V24.054H239.199L240.387 27.24C241.251 26.214 243.735 23.298 247.137 23.298C252.591 23.298 254.319 25.89 255.183 27.186C256.857 25.296 259.395 23.298 263.121 23.298C271.869 23.298 273.219 29.67 273.219 36.258V43.71H275.865V51H262.149V37.77C262.149 35.178 262.635 31.074 260.097 31.074C257.775 31.074 257.235 32.694 257.235 35.016V43.764H260.475V51H246.489V37.23C246.489 32.856 246.381 31.074 244.221 31.074C242.493 31.074 241.791 32.1 241.791 34.314V43.926H245.031ZM292.346 51.702C284.624 51.702 277.172 46.95 277.28 37.392C277.334 28.374 284.624 23.352 292.076 23.352C300.608 23.46 306.926 28.59 307.088 37.608C307.196 46.572 300.554 51.702 292.346 51.702ZM292.346 44.79C294.668 44.79 296.018 41.658 296.018 37.608C296.018 33.558 294.614 30.426 292.076 30.372C289.97 30.372 288.35 33.504 288.35 37.446C288.35 41.874 290.078 44.79 292.346 44.79ZM315.253 51H308.503V41.28H315.739C315.739 44.142 319.843 44.898 321.463 44.898C322.543 44.898 323.839 44.574 323.839 43.062C323.839 41.442 319.789 41.172 315.901 39.822C312.229 38.526 308.719 36.258 308.719 31.182C308.719 25.674 314.389 23.352 318.223 23.352C321.895 23.352 325.135 25.242 326.269 27.564L326.701 24H333.343V33.72H326.323C326.323 31.452 323.515 29.616 320.815 29.616C319.681 29.616 318.709 30.21 318.709 31.56C318.709 33.072 321.895 33.72 325.351 34.908C329.455 36.312 334.045 37.878 334.045 43.548C334.045 48.624 329.239 51.648 324.001 51.648C320.113 51.648 317.035 49.758 315.739 47.706L315.253 51ZM368.487 25.512V17.52H366.003V10.5H379.449V43.98H382.041V51H369.405L368.487 49.002C367.785 49.65 365.409 51.486 361.683 51.486C354.069 51.486 349.155 44.736 349.155 37.23C349.155 28.806 355.041 23.46 361.683 23.46C365.517 23.46 367.461 24.864 368.487 25.512ZM360.765 37.23C360.765 40.47 362.277 43.872 364.653 43.872C366.759 43.872 368.703 41.226 368.487 36.96C368.487 33.288 366.651 30.48 364.599 30.48C362.331 30.48 360.765 33.126 360.765 37.23ZM406.762 42.036L411.298 47.274C407.302 50.73 402.982 51.972 397.366 51.972C390.67 51.972 383.11 47.706 383.11 37.338C383.11 28.482 389.482 23.244 397.636 23.244C404.062 23.244 408.976 26.538 410.542 31.074C411.19 32.964 411.784 37.122 410.65 40.2H393.64C393.964 41.658 394.666 44.628 399.202 44.628C401.038 44.628 403.846 44.466 406.762 42.036ZM397.96 30.534C394.666 30.534 393.91 33.504 393.802 34.854H401.956C401.902 32.802 401.416 30.534 397.96 30.534ZM430.089 43.926V51H413.457V43.926H415.725V31.02H413.457V24H424.959L426.201 27.348C428.037 24.81 430.521 23.028 433.923 23.028C442.293 23.028 443.697 29.238 443.697 34.908V43.926H446.235V51H432.627V36.258C432.627 34.422 432.789 31.236 429.603 31.236C426.849 31.236 426.201 33.936 426.201 36.258V43.926H430.089ZM447.88 31.02V24H450.796V19.032L460.732 15.846V24H465.862V31.02H460.732V40.632C460.732 42.468 460.354 44.952 462.46 44.952C463.162 44.952 464.836 44.466 465.862 44.034V50.946C464.242 51.594 460.57 51.972 459.328 51.972C451.228 51.972 450.958 47.544 450.796 40.632V31.02H447.88ZM483.32 43.926V51H468.038V43.926H470.414V31.02H468.092V24H478.244L479.864 27.456C481.268 24.864 482.672 23.028 488.234 23.028V32.37C483.374 32.37 480.62 33.612 480.62 38.364V43.926H483.32ZM504.707 51.702C496.985 51.702 489.533 46.95 489.641 37.392C489.695 28.374 496.985 23.352 504.437 23.352C512.969 23.46 519.287 28.59 519.449 37.608C519.557 46.572 512.915 51.702 504.707 51.702ZM504.707 44.79C507.029 44.79 508.379 41.658 508.379 37.608C508.379 33.558 506.975 30.426 504.437 30.372C502.331 30.372 500.711 33.504 500.711 37.446C500.711 41.874 502.439 44.79 504.707 44.79ZM553.427 25.512V17.52H550.943V10.5H564.389V43.98H566.981V51H554.345L553.427 49.002C552.725 49.65 550.349 51.486 546.623 51.486C539.009 51.486 534.095 44.736 534.095 37.23C534.095 28.806 539.981 23.46 546.623 23.46C550.457 23.46 552.401 24.864 553.427 25.512ZM545.705 37.23C545.705 40.47 547.217 43.872 549.593 43.872C551.699 43.872 553.643 41.226 553.427 36.96C553.427 33.288 551.591 30.48 549.539 30.48C547.271 30.48 545.705 33.126 545.705 37.23ZM591.701 42.036L596.237 47.274C592.241 50.73 587.921 51.972 582.305 51.972C575.609 51.972 568.049 47.706 568.049 37.338C568.049 28.482 574.421 23.244 582.575 23.244C589.001 23.244 593.915 26.538 595.481 31.074C596.129 32.964 596.723 37.122 595.589 40.2H578.579C578.903 41.658 579.605 44.628 584.141 44.628C585.977 44.628 588.785 44.466 591.701 42.036ZM582.899 30.534C579.605 30.534 578.849 33.504 578.741 34.854H586.895C586.841 32.802 586.355 30.534 582.899 30.534ZM597.857 29.292C597.857 26.592 599.963 23.244 603.851 23.244C607.739 23.244 609.953 26.592 609.953 29.292C609.953 32.478 607.685 35.016 603.851 35.016C600.503 35.016 597.857 32.1 597.857 29.292ZM597.857 45.708C597.857 43.008 599.963 39.66 603.851 39.66C607.739 39.66 609.953 43.008 609.953 45.708C609.953 48.894 607.523 51.432 603.851 51.432C600.341 51.432 597.857 48.516 597.857 45.708Z" fill="black"/>
<defs>
<clipPath id="clip0_762_2">
<rect width="51.03" height="66.31" fill="white" transform="translate(0 28)"/>
</clipPath>
</defs>
</svg>
