<svg width="638" height="96" viewBox="0 0 638 96" fill="none" xmlns="http://www.w3.org/2000/svg">
<g clip-path="url(#clip0_762_2)">
<path d="M2.8599 49.29C1.3699 46.55 0.389899 43.44 0.0598992 39.94C-0.250101 36.71 0.719899 33.24 3.1499 31.1C7.3299 27.43 14.1699 28.97 18.3299 32.66C22.4899 36.35 24.8199 41.62 27.7499 46.35C31.4699 52.36 42.2999 67.32 51.0299 65.76C35.3999 68.55 11.1799 64.67 2.8499 49.3L2.8599 49.29Z" fill="#BE2C97"/>
<path d="M21.4399 78.2695C19.2699 79.3795 17.1399 80.6795 15.5499 82.5395C13.9599 84.3995 12.9799 86.8895 13.4199 89.2895C14.1599 93.3795 18.9099 95.8295 23.0199 95.1995C27.1299 94.5795 30.5399 91.6495 33.1099 88.3795C35.6799 85.1095 37.6399 81.3795 40.2999 78.1895C42.9599 74.9995 46.5899 72.2695 50.7399 72.0195C40.4999 72.6295 30.8399 73.4395 21.4399 78.2595V78.2695Z" fill="#FF9024"/>
</g>
<path d="M90.9288 13.254V20.22H87.3648V51H75.7548L61.9848 30.426V44.034H66.1428V51H49.5648V44.034H52.7508V20.22H49.6188V13.254H65.1168L78.4008 33.072L78.3468 20.22H74.6748V13.254H90.9288ZM107.961 51.702C100.239 51.702 92.7868 46.95 92.8948 37.392C92.9488 28.374 100.239 23.352 107.691 23.352C116.223 23.46 122.541 28.59 122.703 37.608C122.811 46.572 116.169 51.702 107.961 51.702ZM107.961 44.79C110.283 44.79 111.633 41.658 111.633 37.608C111.633 33.558 110.229 30.426 107.691 30.372C105.585 30.372 103.965 33.504 103.965 37.446C103.965 41.874 105.693 44.79 107.961 44.79ZM130.869 51H124.119V41.28H131.355C131.355 44.142 135.459 44.898 137.079 44.898C138.159 44.898 139.455 44.574 139.455 43.062C139.455 41.442 135.405 41.172 131.517 39.822C127.845 38.526 124.335 36.258 124.335 31.182C124.335 25.674 130.005 23.352 133.839 23.352C137.511 23.352 140.751 25.242 141.885 27.564L142.317 24H148.959V33.72H141.939C141.939 31.452 139.131 29.616 136.431 29.616C135.297 29.616 134.325 30.21 134.325 31.56C134.325 33.072 137.511 33.72 140.967 34.908C145.071 36.312 149.661 37.878 149.661 43.548C149.661 48.624 144.855 51.648 139.617 51.648C135.729 51.648 132.651 49.758 131.355 47.706L130.869 51ZM181.834 42.252H182.05C182.104 41.118 182.752 38.418 183.67 36.312L186.262 30.858H183.4V24H197.332V30.858H194.524L185.182 51H176.812L166.768 30.858H164.23V24H180.646V30.858H177.946L180.43 36.582C181.132 38.634 181.726 41.118 181.834 42.252ZM221.27 42.036L225.806 47.274C221.81 50.73 217.49 51.972 211.874 51.972C205.178 51.972 197.618 47.706 197.618 37.338C197.618 28.482 203.99 23.244 212.144 23.244C218.57 23.244 223.484 26.538 225.05 31.074C225.698 32.964 226.292 37.122 225.158 40.2H208.148C208.472 41.658 209.174 44.628 213.71 44.628C215.546 44.628 218.354 44.466 221.27 42.036ZM212.468 30.534C209.174 30.534 208.418 33.504 208.31 34.854H216.464C216.41 32.802 215.924 30.534 212.468 30.534ZM244.003 43.926V51H227.965V43.926H230.233V31.182H227.965V24.054H238.171L239.359 27.24C240.223 26.214 242.707 23.298 246.109 23.298C251.563 23.298 253.291 25.89 254.155 27.186C255.829 25.296 258.367 23.298 262.093 23.298C270.841 23.298 272.191 29.67 272.191 36.258V43.71H274.837V51H261.121V37.77C261.121 35.178 261.607 31.074 259.069 31.074C256.747 31.074 256.207 32.694 256.207 35.016V43.764H259.447V51H245.461V37.23C245.461 32.856 245.353 31.074 243.193 31.074C241.465 31.074 240.763 32.1 240.763 34.314V43.926H244.003ZM291.318 51.702C283.596 51.702 276.144 46.95 276.252 37.392C276.306 28.374 283.596 23.352 291.048 23.352C299.58 23.46 305.898 28.59 306.06 37.608C306.168 46.572 299.526 51.702 291.318 51.702ZM291.318 44.79C293.64 44.79 294.99 41.658 294.99 37.608C294.99 33.558 293.586 30.426 291.048 30.372C288.942 30.372 287.322 33.504 287.322 37.446C287.322 41.874 289.05 44.79 291.318 44.79ZM314.226 51H307.476V41.28H314.712C314.712 44.142 318.816 44.898 320.436 44.898C321.516 44.898 322.812 44.574 322.812 43.062C322.812 41.442 318.762 41.172 314.874 39.822C311.202 38.526 307.692 36.258 307.692 31.182C307.692 25.674 313.362 23.352 317.196 23.352C320.868 23.352 324.108 25.242 325.242 27.564L325.674 24H332.316V33.72H325.296C325.296 31.452 322.488 29.616 319.788 29.616C318.654 29.616 317.682 30.21 317.682 31.56C317.682 33.072 320.868 33.72 324.324 34.908C328.428 36.312 333.018 37.878 333.018 43.548C333.018 48.624 328.212 51.648 322.974 51.648C319.086 51.648 316.008 49.758 314.712 47.706L314.226 51ZM367.46 25.512V17.52H364.976V10.5H378.422V43.98H381.014V51H368.378L367.46 49.002C366.758 49.65 364.382 51.486 360.656 51.486C353.042 51.486 348.128 44.736 348.128 37.23C348.128 28.806 354.014 23.46 360.656 23.46C364.49 23.46 366.434 24.864 367.46 25.512ZM359.738 37.23C359.738 40.47 361.25 43.872 363.626 43.872C365.732 43.872 367.676 41.226 367.46 36.96C367.46 33.288 365.624 30.48 363.572 30.48C361.304 30.48 359.738 33.126 359.738 37.23ZM405.735 42.036L410.271 47.274C406.275 50.73 401.955 51.972 396.339 51.972C389.643 51.972 382.083 47.706 382.083 37.338C382.083 28.482 388.455 23.244 396.609 23.244C403.035 23.244 407.949 26.538 409.515 31.074C410.163 32.964 410.757 37.122 409.623 40.2H392.613C392.937 41.658 393.639 44.628 398.175 44.628C400.011 44.628 402.819 44.466 405.735 42.036ZM396.933 30.534C393.639 30.534 392.883 33.504 392.775 34.854H400.929C400.875 32.802 400.389 30.534 396.933 30.534ZM429.062 43.926V51H412.43V43.926H414.698V31.02H412.43V24H423.932L425.174 27.348C427.01 24.81 429.494 23.028 432.896 23.028C441.266 23.028 442.67 29.238 442.67 34.908V43.926H445.208V51H431.6V36.258C431.6 34.422 431.762 31.236 428.576 31.236C425.822 31.236 425.174 33.936 425.174 36.258V43.926H429.062ZM446.853 31.02V24H449.769V19.032L459.705 15.846V24H464.835V31.02H459.705V40.632C459.705 42.468 459.327 44.952 461.433 44.952C462.135 44.952 463.809 44.466 464.835 44.034V50.946C463.215 51.594 459.543 51.972 458.301 51.972C450.201 51.972 449.931 47.544 449.769 40.632V31.02H446.853ZM482.292 43.926V51H467.01V43.926H469.386V31.02H467.064V24H477.216L478.836 27.456C480.24 24.864 481.644 23.028 487.206 23.028V32.37C482.346 32.37 479.592 33.612 479.592 38.364V43.926H482.292ZM503.68 51.702C495.958 51.702 488.506 46.95 488.614 37.392C488.668 28.374 495.958 23.352 503.41 23.352C511.942 23.46 518.26 28.59 518.422 37.608C518.53 46.572 511.888 51.702 503.68 51.702ZM503.68 44.79C506.002 44.79 507.352 41.658 507.352 37.608C507.352 33.558 505.948 30.426 503.41 30.372C501.304 30.372 499.684 33.504 499.684 37.446C499.684 41.874 501.412 44.79 503.68 44.79ZM552.399 25.512V17.52H549.915V10.5H563.361V43.98H565.953V51H553.317L552.399 49.002C551.697 49.65 549.321 51.486 545.595 51.486C537.981 51.486 533.067 44.736 533.067 37.23C533.067 28.806 538.953 23.46 545.595 23.46C549.429 23.46 551.373 24.864 552.399 25.512ZM544.677 37.23C544.677 40.47 546.189 43.872 548.565 43.872C550.671 43.872 552.615 41.226 552.399 36.96C552.399 33.288 550.563 30.48 548.511 30.48C546.243 30.48 544.677 33.126 544.677 37.23ZM590.674 42.036L595.21 47.274C591.214 50.73 586.894 51.972 581.278 51.972C574.582 51.972 567.022 47.706 567.022 37.338C567.022 28.482 573.394 23.244 581.548 23.244C587.974 23.244 592.888 26.538 594.454 31.074C595.102 32.964 595.696 37.122 594.562 40.2H577.552C577.876 41.658 578.578 44.628 583.114 44.628C584.95 44.628 587.758 44.466 590.674 42.036ZM581.872 30.534C578.578 30.534 577.822 33.504 577.714 34.854H585.868C585.814 32.802 585.328 30.534 581.872 30.534ZM596.83 45.384C596.83 42.63 598.99 39.228 602.932 39.228C606.874 39.228 609.142 42.63 609.142 45.384C609.142 48.624 606.982 51.216 602.932 51.216C599.368 51.216 596.83 48.246 596.83 45.384ZM610.751 45.384C610.751 42.63 612.911 39.228 616.853 39.228C620.795 39.228 623.063 42.63 623.063 45.384C623.063 48.624 620.903 51.216 616.853 51.216C613.289 51.216 610.751 48.246 610.751 45.384ZM624.673 45.384C624.673 42.63 626.833 39.228 630.775 39.228C634.717 39.228 636.985 42.63 636.985 45.384C636.985 48.624 634.825 51.216 630.775 51.216C627.211 51.216 624.673 48.246 624.673 45.384Z" fill="black"/>
<defs>
<clipPath id="clip0_762_2">
<rect width="51.03" height="66.31" fill="white" transform="translate(0 29)"/>
</clipPath>
</defs>
</svg>
