<svg width="254" height="84" viewBox="0 0 254 84" fill="none" xmlns="http://www.w3.org/2000/svg">
<g id="Group 11">
<g id="Group 6">
<path id="Vector" d="M2.24007 32.9135C1.0714 30.7644 0.30275 28.3251 0.0439175 25.5799C-0.199228 23.0465 0.561582 20.3249 2.46753 18.6464C5.74607 15.7678 11.111 16.9757 14.3738 19.8699C17.6367 22.7642 19.4642 26.8976 21.7623 30.6076C24.68 35.3214 33.1744 47.0552 40.0217 45.8316C27.7625 48.0199 8.76578 44.9767 2.23223 32.9214L2.24007 32.9135Z" fill="#BE2C97"/>
<path id="Vector_2" d="M16.8126 55.6443C15.1106 56.5149 13.4399 57.5346 12.1928 58.9934C10.9457 60.4523 10.1771 62.4053 10.5222 64.2877C11.1026 67.4957 14.8282 69.4173 18.0519 68.9232C21.2755 68.4369 23.9501 66.1388 25.9658 63.574C27.9816 61.0092 29.5189 58.0836 31.6053 55.5816C33.6916 53.0795 36.5388 50.9383 39.7938 50.7422C31.7621 51.2206 24.1854 51.8559 16.8126 55.6365V55.6443Z" fill="#FF9024"/>
</g>
<path id="Nos vemos dentro de..." d="M74.849 7.739V12.77H72.275V35H63.89L53.945 20.141V29.969H56.948V35H44.975V29.969H47.276V12.77H45.014V7.739H56.207L65.801 22.052L65.762 12.77H63.11V7.739H74.849ZM87.1498 35.507C81.5728 35.507 76.1908 32.075 76.2688 25.172C76.3078 18.659 81.5728 15.032 86.9548 15.032C93.1168 15.11 97.6798 18.815 97.7968 25.328C97.8748 31.802 93.0778 35.507 87.1498 35.507ZM87.1498 30.515C88.8268 30.515 89.8018 28.253 89.8018 25.328C89.8018 22.403 88.7878 20.141 86.9548 20.102C85.4338 20.102 84.2638 22.364 84.2638 25.211C84.2638 28.409 85.5118 30.515 87.1498 30.515ZM103.694 35H98.8194V27.98H104.045C104.045 30.047 107.009 30.593 108.179 30.593C108.959 30.593 109.895 30.359 109.895 29.267C109.895 28.097 106.97 27.902 104.162 26.927C101.51 25.991 98.9754 24.353 98.9754 20.687C98.9754 16.709 103.07 15.032 105.839 15.032C108.491 15.032 110.831 16.397 111.65 18.074L111.962 15.5H116.759V22.52H111.689C111.689 20.882 109.661 19.556 107.711 19.556C106.892 19.556 106.19 19.985 106.19 20.96C106.19 22.052 108.491 22.52 110.987 23.378C113.951 24.392 117.266 25.523 117.266 29.618C117.266 33.284 113.795 35.468 110.012 35.468C107.204 35.468 104.981 34.103 104.045 32.621L103.694 35ZM140.503 28.682H140.659C140.698 27.863 141.166 25.913 141.829 24.392L143.701 20.453H141.634V15.5H151.696V20.453H149.668L142.921 35H136.876L129.622 20.453H127.789V15.5H139.645V20.453H137.695L139.489 24.587C139.996 26.069 140.425 27.863 140.503 28.682ZM168.984 28.526L172.26 32.309C169.374 34.805 166.254 35.702 162.198 35.702C157.362 35.702 151.902 32.621 151.902 25.133C151.902 18.737 156.504 14.954 162.393 14.954C167.034 14.954 170.583 17.333 171.714 20.609C172.182 21.974 172.611 24.977 171.792 27.2H159.507C159.741 28.253 160.248 30.398 163.524 30.398C164.85 30.398 166.878 30.281 168.984 28.526ZM162.627 20.219C160.248 20.219 159.702 22.364 159.624 23.339H165.513C165.474 21.857 165.123 20.219 162.627 20.219ZM185.403 29.891V35H173.82V29.891H175.458V20.687H173.82V15.539H181.191L182.049 17.84C182.673 17.099 184.467 14.993 186.924 14.993C190.863 14.993 192.111 16.865 192.735 17.801C193.944 16.436 195.777 14.993 198.468 14.993C204.786 14.993 205.761 19.595 205.761 24.353V29.735H207.672V35H197.766V25.445C197.766 23.573 198.117 20.609 196.284 20.609C194.607 20.609 194.217 21.779 194.217 23.456V29.774H196.557V35H186.456V25.055C186.456 21.896 186.378 20.609 184.818 20.609C183.57 20.609 183.063 21.35 183.063 22.949V29.891H185.403ZM219.575 35.507C213.998 35.507 208.616 32.075 208.694 25.172C208.733 18.659 213.998 15.032 219.38 15.032C225.542 15.11 230.105 18.815 230.222 25.328C230.3 31.802 225.503 35.507 219.575 35.507ZM219.575 30.515C221.252 30.515 222.227 28.253 222.227 25.328C222.227 22.403 221.213 20.141 219.38 20.102C217.859 20.102 216.689 22.364 216.689 25.211C216.689 28.409 217.937 30.515 219.575 30.515ZM236.119 35H231.244V27.98H236.47C236.47 30.047 239.434 30.593 240.604 30.593C241.384 30.593 242.32 30.359 242.32 29.267C242.32 28.097 239.395 27.902 236.587 26.927C233.935 25.991 231.4 24.353 231.4 20.687C231.4 16.709 235.495 15.032 238.264 15.032C240.916 15.032 243.256 16.397 244.075 18.074L244.387 15.5H249.184V22.52H244.114C244.114 20.882 242.086 19.556 240.136 19.556C239.317 19.556 238.615 19.985 238.615 20.96C238.615 22.052 240.916 22.52 243.412 23.378C246.376 24.392 249.691 25.523 249.691 29.618C249.691 33.284 246.22 35.468 242.437 35.468C239.629 35.468 237.406 34.103 236.47 32.621L236.119 35ZM58.352 58.592V52.82H56.558V47.75H66.269V71.93H68.141V77H59.015L58.352 75.557C57.845 76.025 56.129 77.351 53.438 77.351C47.939 77.351 44.39 72.476 44.39 67.055C44.39 60.971 48.641 57.11 53.438 57.11C56.207 57.11 57.611 58.124 58.352 58.592ZM52.775 67.055C52.775 69.395 53.867 71.852 55.583 71.852C57.104 71.852 58.508 69.941 58.352 66.86C58.352 64.208 57.026 62.18 55.544 62.18C53.906 62.18 52.775 64.091 52.775 67.055ZM85.9948 70.526L89.2708 74.309C86.3848 76.805 83.2648 77.702 79.2088 77.702C74.3728 77.702 68.9128 74.621 68.9128 67.133C68.9128 60.737 73.5148 56.954 79.4038 56.954C84.0448 56.954 87.5938 59.333 88.7248 62.609C89.1928 63.974 89.6218 66.977 88.8028 69.2H76.5178C76.7518 70.253 77.2588 72.398 80.5348 72.398C81.8608 72.398 83.8888 72.281 85.9948 70.526ZM79.6378 62.219C77.2588 62.219 76.7128 64.364 76.6348 65.339H82.5238C82.4848 63.857 82.1338 62.219 79.6378 62.219ZM102.842 71.891V77H90.8305V71.891H92.4685V62.57H90.8305V57.5H99.1375L100.034 59.918C101.36 58.085 103.154 56.798 105.611 56.798C111.656 56.798 112.67 61.283 112.67 65.378V71.891H114.503V77H104.675V66.353C104.675 65.027 104.792 62.726 102.491 62.726C100.502 62.726 100.034 64.676 100.034 66.353V71.891H102.842ZM115.691 62.57V57.5H117.797V53.912L124.973 51.611V57.5H128.678V62.57H124.973V69.512C124.973 70.838 124.7 72.632 126.221 72.632C126.728 72.632 127.937 72.281 128.678 71.969V76.961C127.508 77.429 124.856 77.702 123.959 77.702C118.109 77.702 117.914 74.504 117.797 69.512V62.57H115.691ZM141.286 71.891V77H130.249V71.891H131.965V62.57H130.288V57.5H137.62L138.79 59.996C139.804 58.124 140.818 56.798 144.835 56.798V63.545C141.325 63.545 139.336 64.442 139.336 67.874V71.891H141.286ZM156.733 77.507C151.156 77.507 145.774 74.075 145.852 67.172C145.891 60.659 151.156 57.032 156.538 57.032C162.7 57.11 167.263 60.815 167.38 67.328C167.458 73.802 162.661 77.507 156.733 77.507ZM156.733 72.515C158.41 72.515 159.385 70.253 159.385 67.328C159.385 64.403 158.371 62.141 156.538 62.102C155.017 62.102 153.847 64.364 153.847 67.211C153.847 70.409 155.095 72.515 156.733 72.515ZM191.919 58.592V52.82H190.125V47.75H199.836V71.93H201.708V77H192.582L191.919 75.557C191.412 76.025 189.696 77.351 187.005 77.351C181.506 77.351 177.957 72.476 177.957 67.055C177.957 60.971 182.208 57.11 187.005 57.11C189.774 57.11 191.178 58.124 191.919 58.592ZM186.342 67.055C186.342 69.395 187.434 71.852 189.15 71.852C190.671 71.852 192.075 69.941 191.919 66.86C191.919 64.208 190.593 62.18 189.111 62.18C187.473 62.18 186.342 64.091 186.342 67.055ZM219.562 70.526L222.838 74.309C219.952 76.805 216.832 77.702 212.776 77.702C207.94 77.702 202.48 74.621 202.48 67.133C202.48 60.737 207.082 56.954 212.971 56.954C217.612 56.954 221.161 59.333 222.292 62.609C222.76 63.974 223.189 66.977 222.37 69.2H210.085C210.319 70.253 210.826 72.398 214.102 72.398C215.428 72.398 217.456 72.281 219.562 70.526ZM213.205 62.219C210.826 62.219 210.28 64.364 210.202 65.339H216.091C216.052 63.857 215.701 62.219 213.205 62.219ZM224.008 72.944C224.008 70.955 225.568 68.498 228.415 68.498C231.262 68.498 232.9 70.955 232.9 72.944C232.9 75.284 231.34 77.156 228.415 77.156C225.841 77.156 224.008 75.011 224.008 72.944ZM234.063 72.944C234.063 70.955 235.623 68.498 238.47 68.498C241.317 68.498 242.955 70.955 242.955 72.944C242.955 75.284 241.395 77.156 238.47 77.156C235.896 77.156 234.063 75.011 234.063 72.944ZM244.117 72.944C244.117 70.955 245.677 68.498 248.524 68.498C251.371 68.498 253.009 70.955 253.009 72.944C253.009 75.284 251.449 77.156 248.524 77.156C245.95 77.156 244.117 75.011 244.117 72.944Z" fill="black"/>
</g>
</svg>
